<svg width="24" height="15" viewBox="-4 0 24 15" fill="none" xmlns="http://www.w3.org/2000/svg">
<path d="M7.99909 0.5C8.44284 0.5 8.85222 0.734375 9.07722 1.11875L15.8272 12.6187C16.0553 13.0062 16.0553 13.4844 15.8335 13.8719C15.6116 14.2594 15.196 14.5 14.7491 14.5H1.24909C0.802216 14.5 0.386591 14.2594 0.164716 13.8719C-0.0571593 13.4844 -0.0540343 13.0031 0.170966 12.6187L6.92097 1.11875C7.14597 0.734375 7.55534 0.5 7.99909 0.5ZM7.99909 4.5C7.58347 4.5 7.24909 4.83437 7.24909 5.25V8.75C7.24909 9.16562 7.58347 9.5 7.99909 9.5C8.41472 9.5 8.74909 9.16562 8.74909 8.75V5.25C8.74909 4.83437 8.41472 4.5 7.99909 4.5ZM8.99909 11.5C8.99909 11.2348 8.89373 10.9804 8.7062 10.7929C8.51866 10.6054 8.26431 10.5 7.99909 10.5C7.73387 10.5 7.47952 10.6054 7.29198 10.7929C7.10445 10.9804 6.99909 11.2348 6.99909 11.5C6.99909 11.7652 7.10445 12.0196 7.29198 12.2071C7.47952 12.3946 7.73387 12.5 7.99909 12.5C8.26431 12.5 8.51866 12.3946 8.7062 12.2071C8.89373 12.0196 8.99909 11.7652 8.99909 11.5Z" fill="#164194"/>
</svg>
