<svg width="24" height="16" viewBox="-3.5 0 24 16" fill="none" xmlns="http://www.w3.org/2000/svg">
<g clip-path="url(#clip0_213_3849)">
<path d="M2.38672 2C2.38672 1.44687 1.93984 1 1.38672 1C0.833594 1 0.386719 1.44687 0.386719 2V12.5C0.386719 13.8813 1.50547 15 2.88672 15H15.3867C15.9398 15 16.3867 14.5531 16.3867 14C16.3867 13.4469 15.9398 13 15.3867 13H2.88672C2.61172 13 2.38672 12.775 2.38672 12.5V2ZM15.093 4.70625C15.4836 4.31563 15.4836 3.68125 15.093 3.29063C14.7023 2.9 14.068 2.9 13.6773 3.29063L10.3867 6.58437L8.59297 4.79063C8.20234 4.4 7.56797 4.4 7.17734 4.79063L3.67734 8.29062C3.28672 8.68125 3.28672 9.31563 3.67734 9.70625C4.06797 10.0969 4.70234 10.0969 5.09297 9.70625L7.88672 6.91563L9.68047 8.70938C10.0711 9.1 10.7055 9.1 11.0961 8.70938L15.0961 4.70937L15.093 4.70625Z" fill="#164194"/>
</g>
<defs>
<clipPath id="clip0_213_3849">
<rect width="16" height="16" fill="#164194" transform="translate(0.386719)"/>
</clipPath>
</defs>
</svg>
