<svg width="24" height="22" viewBox="-1.5 0 24 22" fill="none" xmlns="http://www.w3.org/2000/svg">
<path fill-rule="evenodd" clip-rule="evenodd" d="M11.9797 5.50589L13.4047 6.9189L7.08646 13.3788C6.76942 13.7047 6.76942 14.229 7.08646 14.5548C7.3873 14.864 7.88987 14.8626 8.18751 14.5532L15.1389 7.44288C16.1537 6.40012 16.1537 4.72544 15.1389 3.68268C14.1707 2.68777 12.4575 2.7099 11.5086 3.68457L3.92126 11.4398C2.20825 13.1993 2.20825 16.0246 3.92126 17.784C5.58467 19.4925 8.44216 19.4647 10.0796 17.7824L18.9286 8.73329L20.3537 10.1462L11.5063 19.1937C9.09244 21.6737 4.9468 21.714 2.49305 19.1937C0.0176576 16.6512 0.0176579 12.5726 2.49475 10.0283L10.082 2.27311C11.8055 0.502923 14.8068 0.464151 16.5674 2.27325C18.3442 4.09901 18.3442 7.02656 16.5658 8.85396L9.61858 15.9599C8.54391 17.0775 6.74606 17.0825 5.65785 15.9642C4.57896 14.8554 4.57896 13.0783 5.65965 11.9677L11.9797 5.50589Z" fill="#164194"/>
</svg>
