<svg width="24" height="12" viewBox="-4.5 0 24 12" fill="none" xmlns="http://www.w3.org/2000/svg">
<path d="M0.944336 0.5625C0.944336 0.250781 1.19512 0 1.50684 0H2.57324C3.08887 0 3.5459 0.3 3.75918 0.75H13.392C14.0084 0.75 14.4584 1.33594 14.2967 1.93125L13.3357 5.50078C13.1365 6.23672 12.4686 6.75 11.7068 6.75H4.94512L5.07168 7.41797C5.12324 7.68281 5.35527 7.875 5.6248 7.875H12.3818C12.6936 7.875 12.9443 8.12578 12.9443 8.4375C12.9443 8.74922 12.6936 9 12.3818 9H5.6248C4.81387 9 4.11777 8.42344 3.96777 7.62891L2.7584 1.27734C2.74199 1.18828 2.66465 1.125 2.57324 1.125H1.50684C1.19512 1.125 0.944336 0.874219 0.944336 0.5625ZM3.94434 10.875C3.94434 10.7273 3.97343 10.581 4.02997 10.4445C4.08651 10.308 4.16937 10.184 4.27384 10.0795C4.37831 9.97504 4.50233 9.89217 4.63882 9.83564C4.77531 9.7791 4.9216 9.75 5.06934 9.75C5.21707 9.75 5.36336 9.7791 5.49986 9.83564C5.63635 9.89217 5.76037 9.97504 5.86483 10.0795C5.9693 10.184 6.05216 10.308 6.1087 10.4445C6.16524 10.581 6.19434 10.7273 6.19434 10.875C6.19434 11.0227 6.16524 11.169 6.1087 11.3055C6.05216 11.442 5.9693 11.566 5.86483 11.6705C5.76037 11.775 5.63635 11.8578 5.49986 11.9144C5.36336 11.9709 5.21707 12 5.06934 12C4.9216 12 4.77531 11.9709 4.63882 11.9144C4.50233 11.8578 4.37831 11.775 4.27384 11.6705C4.16937 11.566 4.08651 11.442 4.02997 11.3055C3.97343 11.169 3.94434 11.0227 3.94434 10.875ZM11.8193 9.75C12.1177 9.75 12.4039 9.86853 12.6148 10.0795C12.8258 10.2905 12.9443 10.5766 12.9443 10.875C12.9443 11.1734 12.8258 11.4595 12.6148 11.6705C12.4039 11.8815 12.1177 12 11.8193 12C11.521 12 11.2348 11.8815 11.0238 11.6705C10.8129 11.4595 10.6943 11.1734 10.6943 10.875C10.6943 10.5766 10.8129 10.2905 11.0238 10.0795C11.2348 9.86853 11.521 9.75 11.8193 9.75ZM6.85059 3.75C6.85059 4.00781 7.06152 4.21875 7.31934 4.21875H8.35059V5.25C8.35059 5.50781 8.56152 5.71875 8.81934 5.71875C9.07715 5.71875 9.28809 5.50781 9.28809 5.25V4.21875H10.3193C10.5771 4.21875 10.7881 4.00781 10.7881 3.75C10.7881 3.49219 10.5771 3.28125 10.3193 3.28125H9.28809V2.25C9.28809 1.99219 9.07715 1.78125 8.81934 1.78125C8.56152 1.78125 8.35059 1.99219 8.35059 2.25V3.28125H7.31934C7.06152 3.28125 6.85059 3.49219 6.85059 3.75Z" fill="#164194"/>
</svg>
