<svg width="24" height="15" viewBox="-3.5 0 24 15" fill="none" xmlns="http://www.w3.org/2000/svg">
<path d="M0.640625 1.15625C0.640625 0.792578 0.933203 0.5 1.29688 0.5H2.54102C3.14258 0.5 3.67578 0.85 3.92461 1.375H15.1629C15.882 1.375 16.407 2.05859 16.2184 2.75312L15.0973 6.91758C14.8648 7.77617 14.0855 8.375 13.1969 8.375H5.3082L5.45586 9.1543C5.51602 9.46328 5.78672 9.6875 6.10117 9.6875H13.9844C14.348 9.6875 14.6406 9.98008 14.6406 10.3438C14.6406 10.7074 14.348 11 13.9844 11H6.10117C5.15508 11 4.34297 10.3273 4.16797 9.40039L2.75703 1.99023C2.73789 1.88633 2.64766 1.8125 2.54102 1.8125H1.29688C0.933203 1.8125 0.640625 1.51992 0.640625 1.15625ZM4.14062 13.1875C4.14062 13.0151 4.17457 12.8445 4.24053 12.6852C4.30649 12.526 4.40317 12.3813 4.52505 12.2594C4.64692 12.1375 4.79161 12.0409 4.95085 11.9749C5.11009 11.9089 5.28077 11.875 5.45312 11.875C5.62548 11.875 5.79616 11.9089 5.9554 11.9749C6.11464 12.0409 6.25933 12.1375 6.3812 12.2594C6.50308 12.3813 6.59976 12.526 6.66572 12.6852C6.73168 12.8445 6.76562 13.0151 6.76562 13.1875C6.76562 13.3599 6.73168 13.5305 6.66572 13.6898C6.59976 13.849 6.50308 13.9937 6.3812 14.1156C6.25933 14.2375 6.11464 14.3341 5.9554 14.4001C5.79616 14.4661 5.62548 14.5 5.45312 14.5C5.28077 14.5 5.11009 14.4661 4.95085 14.4001C4.79161 14.3341 4.64692 14.2375 4.52505 14.1156C4.40317 13.9937 4.30649 13.849 4.24053 13.6898C4.17457 13.5305 4.14062 13.3599 4.14062 13.1875ZM13.3281 11.875C13.6762 11.875 14.0101 12.0133 14.2562 12.2594C14.5023 12.5056 14.6406 12.8394 14.6406 13.1875C14.6406 13.5356 14.5023 13.8694 14.2562 14.1156C14.0101 14.3617 13.6762 14.5 13.3281 14.5C12.98 14.5 12.6462 14.3617 12.4 14.1156C12.1539 13.8694 12.0156 13.5356 12.0156 13.1875C12.0156 12.8394 12.1539 12.5056 12.4 12.2594C12.6462 12.0133 12.98 11.875 13.3281 11.875Z" fill="#164194"/>
</svg>
