<svg width="24" height="16" viewBox="-5.5 0 24 16" fill="none" xmlns="http://www.w3.org/2000/svg">
<path d="M7.75 4.25V0H1.5C1.08437 0 0.75 0.334375 0.75 0.75V15.25C0.75 15.6656 1.08437 16 1.5 16H12C12.4156 16 12.75 15.6656 12.75 15.25V5H8.5C8.0875 5 7.75 4.6625 7.75 4.25ZM9.75 11.625C9.75 11.8313 9.58125 12 9.375 12H4.125C3.91875 12 3.75 11.8313 3.75 11.625V11.375C3.75 11.1687 3.91875 11 4.125 11H9.375C9.58125 11 9.75 11.1687 9.75 11.375V11.625ZM9.75 9.625C9.75 9.83125 9.58125 10 9.375 10H4.125C3.91875 10 3.75 9.83125 3.75 9.625V9.375C3.75 9.16875 3.91875 9 4.125 9H9.375C9.58125 9 9.75 9.16875 9.75 9.375V9.625ZM9.75 7.375V7.625C9.75 7.83125 9.58125 8 9.375 8H4.125C3.91875 8 3.75 7.83125 3.75 7.625V7.375C3.75 7.16875 3.91875 7 4.125 7H9.375C9.58125 7 9.75 7.16875 9.75 7.375ZM12.75 3.80938V4H8.75V0H8.94063C9.14062 0 9.33125 0.078125 9.47188 0.21875L12.5312 3.28125C12.6719 3.42188 12.75 3.6125 12.75 3.80938Z" fill="#164194"/>
</svg>
