<svg width="24" height="20" viewBox="-0.5 0 24 20" fill="none" xmlns="http://www.w3.org/2000/svg">
<g clip-path="url(#clip0_286_4466)">
<path d="M2.83301 2.5C1.4541 2.5 0.333008 3.62109 0.333008 5V15C0.333008 16.3789 1.4541 17.5 2.83301 17.5H20.333C21.7119 17.5 22.833 16.3789 22.833 15V5C22.833 3.62109 21.7119 2.5 20.333 2.5H2.83301ZM5.33301 15H2.83301V12.5C4.21191 12.5 5.33301 13.6211 5.33301 15ZM2.83301 7.5V5H5.33301C5.33301 6.37891 4.21191 7.5 2.83301 7.5ZM17.833 15C17.833 13.6211 18.9541 12.5 20.333 12.5V15H17.833ZM20.333 7.5C18.9541 7.5 17.833 6.37891 17.833 5H20.333V7.5ZM11.583 6.25C12.5776 6.25 13.5314 6.64509 14.2347 7.34835C14.9379 8.05161 15.333 9.00544 15.333 10C15.333 10.9946 14.9379 11.9484 14.2347 12.6517C13.5314 13.3549 12.5776 13.75 11.583 13.75C10.5884 13.75 9.63462 13.3549 8.93136 12.6517C8.2281 11.9484 7.83301 10.9946 7.83301 10C7.83301 9.00544 8.2281 8.05161 8.93136 7.34835C9.63462 6.64509 10.5884 6.25 11.583 6.25Z" fill="#164194"/>
</g>
<defs>
<clipPath id="clip0_286_4466">
<rect width="22.5" height="20" fill="white" transform="translate(0.333008)"/>
</clipPath>
</defs>
</svg>
