<svg width="24" height="18" viewBox="-3.5 0 24 18" fill="none" xmlns="http://www.w3.org/2000/svg">
<path fill-rule="evenodd" clip-rule="evenodd" d="M5.1 3.86483H3.4V3.00899H1.7V5.57655H15.3V3.00899H13.6V3.86483H11.9V3.00899H5.1V3.86483ZM15.3 7.28827H1.7V15.8468H15.3V7.28827ZM11.9 1.29727H5.1V0.441406H3.4V1.29727H1.7C0.761116 1.29727 0 2.06363 0 3.00898V15.8468C0 16.7922 0.761116 17.5585 1.7 17.5585H15.3C16.2389 17.5585 17 16.7922 17 15.8468V3.00898C17 2.06363 16.2389 1.29727 15.3 1.29727H13.6V0.441406H11.9V1.29727ZM5.95 10.7117H4.25V8.99998H5.95V10.7117ZM7.65 10.7117H9.35V8.99998H7.65V10.7117ZM11.05 10.7117V8.99998H12.75V10.7117H11.05ZM4.25 14.1351H5.95V12.4234H4.25V14.1351ZM9.35 14.1351H7.65V12.4234H9.35V14.1351Z" fill="#164194"/>
</svg>
