<svg width="24" height="14" viewBox="-5.5 0 24 14" fill="none" xmlns="http://www.w3.org/2000/svg">
<path d="M4.08359 0.483984L3.88672 0.875H1.26172C0.777734 0.875 0.386719 1.26602 0.386719 1.75C0.386719 2.23398 0.777734 2.625 1.26172 2.625H11.7617C12.2457 2.625 12.6367 2.23398 12.6367 1.75C12.6367 1.26602 12.2457 0.875 11.7617 0.875H9.13672L8.93984 0.483984C8.79219 0.185938 8.48867 0 8.15781 0H4.86562C4.53477 0 4.23125 0.185938 4.08359 0.483984ZM11.7617 3.5H1.26172L1.84141 12.7695C1.88516 13.4613 2.45937 14 3.15117 14H9.87227C10.5641 14 11.1383 13.4613 11.182 12.7695L11.7617 3.5Z" fill="#164194"/>
</svg>
