<svg width="24" height="14" viewBox="-4.5 0 24 14" fill="none" xmlns="http://www.w3.org/2000/svg">
<path d="M13.7174 0.521143C13.1186 -0.0776856 12.1506 -0.0776856 11.5518 0.521143L10.7288 1.34146L13.4057 4.01841L14.2288 3.19536C14.8276 2.59653 14.8276 1.62856 14.2288 1.02974L13.7174 0.521143ZM5.53618 6.53677C5.36938 6.70356 5.24086 6.90864 5.16703 7.1356L4.35766 9.56372C4.27836 9.79888 4.34125 10.0586 4.51625 10.2364C4.69125 10.4141 4.95102 10.4743 5.18891 10.395L7.61703 9.5856C7.84125 9.51177 8.04633 9.38325 8.21586 9.21646L12.7905 4.63911L10.1108 1.95942L5.53618 6.53677ZM3.44711 1.67778C1.99789 1.67778 0.822113 2.85356 0.822113 4.30278V11.3028C0.822113 12.752 1.99789 13.9278 3.44711 13.9278H10.4471C11.8963 13.9278 13.0721 12.752 13.0721 11.3028V8.67778C13.0721 8.1938 12.6811 7.80278 12.1971 7.80278C11.7131 7.80278 11.3221 8.1938 11.3221 8.67778V11.3028C11.3221 11.7868 10.9311 12.1778 10.4471 12.1778H3.44711C2.96313 12.1778 2.57211 11.7868 2.57211 11.3028V4.30278C2.57211 3.8188 2.96313 3.42778 3.44711 3.42778H6.07211C6.5561 3.42778 6.94711 3.03677 6.94711 2.55278C6.94711 2.0688 6.5561 1.67778 6.07211 1.67778H3.44711Z" fill="#164194"/>
</svg>
