<svg width="28" height="24" viewBox="0 0 28 24" fill="none" xmlns="http://www.w3.org/2000/svg">
<path d="M11.9584 0H10.0834C8.84119 0 7.83337 1.00781 7.83337 2.25V7.5C7.83337 9.15469 9.17869 10.5 10.8334 10.5H16.8334C18.4881 10.5 19.8334 9.15469 19.8334 7.5V2.25C19.8334 1.00781 18.8256 0 17.5834 0H15.7084V3.75C15.7084 4.1625 15.3709 4.5 14.9584 4.5H12.7084C12.2959 4.5 11.9584 4.1625 11.9584 3.75V0ZM3.33337 12C1.67869 12 0.333374 13.3453 0.333374 15V21C0.333374 22.6547 1.67869 24 3.33337 24H10.8334C12.4881 24 13.8334 22.6547 13.8334 21V15C13.8334 13.3453 12.4881 12 10.8334 12H8.95837V15.75C8.95837 16.1625 8.62087 16.5 8.20837 16.5H5.95837C5.54587 16.5 5.20837 16.1625 5.20837 15.75V12H3.33337ZM16.8334 24H24.3334C25.9881 24 27.3334 22.6547 27.3334 21V15C27.3334 13.3453 25.9881 12 24.3334 12H22.4584V15.75C22.4584 16.1625 22.1209 16.5 21.7084 16.5H19.4584C19.0459 16.5 18.7084 16.1625 18.7084 15.75V12H16.8334C16.1302 12 15.4834 12.2391 14.9724 12.6469C15.2021 13.1344 15.3334 13.6781 15.3334 14.25V21.75C15.3334 22.3219 15.2021 22.8656 14.9724 23.3531C15.4834 23.7609 16.1302 24 16.8334 24Z" fill="#164194"/>
</svg>
