<svg width="24" height="14" viewBox="-4.5 0 24 14" fill="none" xmlns="http://www.w3.org/2000/svg">
<path d="M8.51172 0.875C8.51172 0.391016 8.1207 0 7.63672 0C7.15273 0 6.76172 0.391016 6.76172 0.875V7.51133L4.75469 5.5043C4.41289 5.1625 3.85781 5.1625 3.51602 5.5043C3.17422 5.84609 3.17422 6.40117 3.51602 6.74297L7.01602 10.243C7.35781 10.5848 7.91289 10.5848 8.25469 10.243L11.7547 6.74297C12.0965 6.40117 12.0965 5.84609 11.7547 5.5043C11.4129 5.1625 10.8578 5.1625 10.516 5.5043L8.51172 7.51133V0.875ZM2.38672 9.625C1.42148 9.625 0.636719 10.4098 0.636719 11.375V12.25C0.636719 13.2152 1.42148 14 2.38672 14H12.8867C13.852 14 14.6367 13.2152 14.6367 12.25V11.375C14.6367 10.4098 13.852 9.625 12.8867 9.625H10.1113L8.87266 10.8637C8.18906 11.5473 7.08164 11.5473 6.39805 10.8637L5.16211 9.625H2.38672ZM12.4492 11.1562C12.6233 11.1562 12.7902 11.2254 12.9133 11.3485C13.0363 11.4715 13.1055 11.6385 13.1055 11.8125C13.1055 11.9865 13.0363 12.1535 12.9133 12.2765C12.7902 12.3996 12.6233 12.4688 12.4492 12.4688C12.2752 12.4688 12.1083 12.3996 11.9852 12.2765C11.8621 12.1535 11.793 11.9865 11.793 11.8125C11.793 11.6385 11.8621 11.4715 11.9852 11.3485C12.1083 11.2254 12.2752 11.1562 12.4492 11.1562Z" fill="#164194"/>
</svg>
