<svg width="24" height="14" viewBox="-4 0 24 14" fill="none" xmlns="http://www.w3.org/2000/svg">
<path d="M7.87363 0.875C5.66425 0.875 3.89511 1.88125 2.60722 3.07891C1.32754 4.26562 0.471677 5.6875 0.0669891 6.66367C-0.0232452 6.87969 -0.0232452 7.12031 0.0669891 7.33633C0.471677 8.3125 1.32754 9.73438 2.60722 10.9211C3.89511 12.1187 5.66425 13.125 7.87363 13.125C10.083 13.125 11.8521 12.1187 13.14 10.9211C14.4197 9.73164 15.2756 8.3125 15.683 7.33633C15.7732 7.12031 15.7732 6.87969 15.683 6.66367C15.2756 5.6875 14.4197 4.26562 13.14 3.07891C11.8521 1.88125 10.083 0.875 7.87363 0.875ZM3.93613 7C3.93613 5.95571 4.35097 4.95419 5.0894 4.21577C5.82782 3.47734 6.82934 3.0625 7.87363 3.0625C8.91792 3.0625 9.91944 3.47734 10.6579 4.21577C11.3963 4.95419 11.8111 5.95571 11.8111 7C11.8111 8.04429 11.3963 9.04581 10.6579 9.78423C9.91944 10.5227 8.91792 10.9375 7.87363 10.9375C6.82934 10.9375 5.82782 10.5227 5.0894 9.78423C4.35097 9.04581 3.93613 8.04429 3.93613 7ZM7.87363 5.25C7.87363 6.21523 7.08886 7 6.12363 7C5.92949 7 5.74355 6.96719 5.56855 6.90977C5.41816 6.86055 5.24316 6.95352 5.24863 7.11211C5.25683 7.30078 5.28418 7.48945 5.33613 7.67812C5.71074 9.07812 7.15175 9.90938 8.55175 9.53477C9.95175 9.16016 10.783 7.71914 10.4084 6.31914C10.1049 5.18438 9.10136 4.42148 7.98574 4.375C7.82715 4.36953 7.73418 4.5418 7.7834 4.69492C7.84082 4.86992 7.87363 5.05586 7.87363 5.25Z" fill="#164194"/>
</svg>
