<svg width="24" height="24" viewBox="-4 -4 24 24" fill="none" xmlns="http://www.w3.org/2000/svg">
<path d="M10.0909 0.0898862C10.0315 0.155487 9.90034 0.470994 9.60359 1.27694L9.20062 2.37653L8.08231 2.78888C7.30137 3.07627 6.94526 3.22621 6.89528 3.2762C6.79532 3.38241 6.79532 3.62607 6.89528 3.73228C6.94526 3.78538 7.30137 3.9322 8.08231 4.21959L9.20062 4.63506L9.60359 5.73153C10.0597 6.97482 10.0753 7.00293 10.3314 7.00293C10.4532 7.00293 10.5001 6.98731 10.5595 6.92796C10.6126 6.87798 10.7656 6.49687 11.0374 5.76277C11.2592 5.16612 11.4497 4.66318 11.4622 4.65068C11.4747 4.63506 11.9776 4.44139 12.5743 4.21959C13.7863 3.77289 13.8363 3.74165 13.8363 3.50424C13.8363 3.26682 13.7863 3.23559 12.5743 2.78888C11.9745 2.56709 11.4747 2.37341 11.4622 2.35779C11.4497 2.34529 11.2592 1.84236 11.0374 1.2457C10.7656 0.502232 10.6157 0.13362 10.5626 0.0836382C10.447 -0.0319433 10.2096 -0.0256958 10.0909 0.0898862ZM10.6157 2.12975C10.7844 2.59208 10.8968 2.85448 10.9437 2.89821C10.9812 2.93257 11.3342 3.07939 11.7215 3.22309C12.112 3.36991 12.4306 3.49486 12.4306 3.50424C12.4306 3.51361 12.112 3.63856 11.7215 3.78538C11.3342 3.92908 10.9812 4.0759 10.9437 4.11026C10.8968 4.15399 10.7844 4.4164 10.6157 4.87872C10.4751 5.26608 10.3502 5.59408 10.3377 5.60658C10.3252 5.61907 10.2002 5.31294 10.0565 4.92246C9.91284 4.53198 9.7629 4.17586 9.72541 4.13213C9.67543 4.07277 9.47239 3.98218 8.9351 3.78538C8.53838 3.63856 8.21351 3.51361 8.21351 3.50424C8.21351 3.49486 8.53838 3.36991 8.9351 3.22309C9.47551 3.02629 9.67543 2.9357 9.72541 2.87635C9.7629 2.83261 9.91284 2.47649 10.0565 2.08602C10.2002 1.69866 10.3252 1.3894 10.3377 1.4019C10.3502 1.41439 10.4751 1.74239 10.6157 2.12975Z" fill="#164194"/>
<path d="M13.0823 0.595976C12.998 0.68032 12.9917 0.70531 12.9917 0.923979V1.16139H12.7543C12.5357 1.16139 12.5107 1.16764 12.4294 1.25198C12.267 1.4113 12.267 1.59873 12.4294 1.75804C12.5107 1.84239 12.5357 1.84863 12.7543 1.84863H12.9917V2.08604C12.9917 2.30471 12.998 2.3297 13.0823 2.41405C13.1604 2.48902 13.201 2.50464 13.326 2.50464C13.4572 2.50464 13.4946 2.48902 13.5696 2.41092C13.6508 2.32346 13.6633 2.28909 13.6727 2.08292L13.6852 1.84863H13.9039C14.11 1.84863 14.1288 1.84239 14.2287 1.74242C14.3162 1.65496 14.3349 1.61122 14.3349 1.50501C14.3349 1.3988 14.3162 1.35507 14.2287 1.2676C14.1288 1.16764 14.11 1.16139 13.9039 1.16139H13.6852L13.6727 0.927103C13.6633 0.72093 13.6508 0.686567 13.5696 0.5991C13.4946 0.521004 13.4572 0.505385 13.326 0.505385C13.201 0.505385 13.1604 0.521004 13.0823 0.595976Z" fill="#164194"/>
<path d="M1.28745 1.05826C1.1094 1.12073 0.856371 1.3519 0.753287 1.5487L0.668945 1.70801V8.50235V15.2967L0.753287 15.456C0.800143 15.5435 0.909475 15.6809 0.99694 15.759C1.28745 16.0214 0.803267 15.9996 6.64783 15.9996C9.95589 15.9996 11.8926 15.9871 11.9613 15.9683C12.1394 15.9183 12.3549 15.7653 12.4736 15.6028C12.6892 15.3061 12.6798 15.4435 12.6798 12.0198C12.6798 8.68354 12.6861 8.82723 12.5174 8.70853C12.3799 8.61169 12.0988 8.67416 12.0238 8.81161C12.002 8.85222 11.9926 9.88934 11.9926 11.9136C11.9926 13.9003 11.9801 14.9937 11.9613 15.0687C11.9426 15.1311 11.8926 15.2123 11.8458 15.2498C11.7646 15.3123 11.7552 15.3123 6.66345 15.3123H1.55922L1.45926 15.2217L1.35617 15.1311V8.50548V1.87983L1.44364 1.79548L1.52798 1.70801L4.91726 1.6924L8.30342 1.67678L8.39713 1.58619C8.47835 1.50809 8.49397 1.4706 8.49397 1.3394C8.49397 1.21445 8.47835 1.17384 8.40338 1.09574L8.31279 1.00515L4.86416 1.00828C1.89034 1.00828 1.39991 1.01765 1.28745 1.05826Z" fill="#164194"/>
<path d="M13.1483 4.37267C13.0452 4.42266 13.0265 4.45702 12.8172 5.01931L12.5954 5.61284L12.0519 5.81901C11.3646 6.07829 11.4052 6.05642 11.3521 6.16263C11.2928 6.27509 11.2928 6.38755 11.3521 6.50313C11.4115 6.61871 11.4271 6.62808 12.0612 6.86237C12.3517 6.9717 12.5954 7.06542 12.5985 7.07167C12.6048 7.07479 12.6953 7.32782 12.8078 7.62771C13.039 8.2681 13.0952 8.34619 13.3201 8.34619C13.545 8.34619 13.6012 8.2681 13.8324 7.62771C13.9417 7.32782 14.0354 7.07479 14.0417 7.06854C14.0448 7.06542 14.2885 6.96858 14.5821 6.86237C15.2193 6.62496 15.2287 6.61871 15.2881 6.50313C15.3755 6.33444 15.3224 6.1189 15.1725 6.0408C15.135 6.01894 14.8632 5.91585 14.5727 5.80651L14.0448 5.60971L13.848 5.08179C13.6075 4.43203 13.595 4.41016 13.47 4.35706C13.3388 4.30395 13.2795 4.30395 13.1483 4.37267ZM13.3982 5.89086C13.4763 6.12827 13.5107 6.16263 13.7699 6.25947L13.9698 6.33444L13.7762 6.40629C13.5544 6.49063 13.4575 6.5906 13.3826 6.81551C13.3545 6.89986 13.3263 6.9717 13.3201 6.9717C13.3139 6.9717 13.2857 6.89986 13.2576 6.81551C13.1827 6.5906 13.0858 6.49063 12.864 6.40941L12.6735 6.33757L12.8703 6.26259C13.1264 6.16576 13.1608 6.13139 13.2451 5.89086C13.2857 5.78152 13.3201 5.69093 13.3232 5.69093C13.3263 5.69093 13.3607 5.78152 13.3982 5.89086Z" fill="#164194"/>
<path d="M3.21476 4.838C3.18977 4.84737 3.13042 4.89111 3.08356 4.93484C3.01171 5.00044 2.99609 5.04105 2.99609 5.16913C2.99609 5.29408 3.01171 5.33469 3.08668 5.41279L3.17727 5.50338H3.83639H4.4955V7.24648V8.98958L4.58297 9.07704C4.69854 9.18325 4.86098 9.21137 4.98905 9.14577C5.18585 9.04268 5.18273 9.08329 5.18273 7.20587V5.50338H5.83247H6.48221L6.56968 5.41591C6.67589 5.30033 6.704 5.13789 6.6384 5.00981C6.53532 4.81301 6.56343 4.81613 4.83287 4.81926C3.96758 4.81926 3.23975 4.82863 3.21476 4.838Z" fill="#164194"/>
<path d="M7.47597 4.87553C7.28542 4.99111 7.26043 5.24726 7.42286 5.41595L7.5072 5.50342H7.99451H8.48182L8.56928 5.41595C8.67549 5.30037 8.70361 5.13793 8.63801 5.00985C8.55367 4.84429 8.45371 4.81617 7.98826 4.81617C7.6384 4.81617 7.55719 4.82555 7.47597 4.87553Z" fill="#164194"/>
<path d="M7.41929 6.59065C7.31308 6.70624 7.28497 6.86867 7.35057 6.99675C7.44428 7.17793 7.50676 7.19043 8.32206 7.19043C9.10925 7.19043 9.18422 7.17793 9.2873 7.02799C9.38414 6.89054 9.32166 6.6094 9.18422 6.53442C9.14673 6.51568 8.80937 6.50319 8.31581 6.50319H7.50676L7.41929 6.59065Z" fill="#164194"/>
<path d="M6.50758 8.26491C6.42011 8.35238 6.40137 8.39612 6.40137 8.50233C6.40137 8.60854 6.42011 8.65227 6.50758 8.73974L6.61378 8.84595H8.41619H10.2186L10.3061 8.75536C10.4685 8.59604 10.4685 8.40861 10.3061 8.2493L10.2186 8.1587H8.41619H6.61378L6.50758 8.26491Z" fill="#164194"/>
<path d="M3.06813 9.87694C3.01503 9.90818 2.95256 9.96441 2.93694 9.99877C2.86197 10.1393 2.92757 10.4017 3.05564 10.4705C3.09625 10.4923 4.29577 10.5017 6.67296 10.5017H10.2309L10.3184 10.4142C10.4246 10.2987 10.4527 10.1362 10.3871 10.0081C10.2809 9.80197 10.5089 9.81447 6.66046 9.81447C3.25868 9.81447 3.16497 9.81759 3.06813 9.87694Z" fill="#164194"/>
<path d="M3.00855 11.7637C2.92109 11.8512 2.90234 11.8949 2.90234 12.0011C2.90234 12.1073 2.92109 12.151 3.00855 12.2385L3.11476 12.3447H6.66648H10.2182L10.3057 12.2541C10.4681 12.0948 10.4681 11.9074 10.3057 11.7481L10.2182 11.6575H6.66648H3.11476L3.00855 11.7637Z" fill="#164194"/>
</svg>
