<svg width="24" height="24" viewBox="0 0 24 24" fill="none" xmlns="http://www.w3.org/2000/svg">
<g clip-path="url(#clip0_295_10114)">
<path d="M9.11658 0.00756264C7.63888 0.542051 6.31838 1.72107 5.56381 3.19877C5.34372 3.63894 5.06076 4.00051 4.91928 4.00051C4.33763 4.00051 2.89137 4.89656 2.10535 5.76117C0.957776 7.00307 0.56477 8.05633 0.549049 9.8956C0.533329 11.1061 0.59621 11.4362 0.957776 12.2222C1.19358 12.7252 1.5237 13.3069 1.69663 13.527C1.94815 13.8414 1.96387 13.9986 1.83811 14.5645C1.58659 15.6335 1.79095 17.1898 2.30972 18.3217C2.90709 19.6422 3.96034 20.7111 5.28084 21.3242C6.1769 21.7487 6.52274 21.8273 7.70176 21.843C8.99082 21.8744 9.11658 21.9059 9.68251 22.3775C11.5532 23.9338 14.0999 24.201 16.3322 23.0849C17.5584 22.4718 18.3601 21.6543 18.9575 20.4124C19.319 19.705 19.4762 19.5321 19.9478 19.4063C20.8282 19.1705 22.2116 18.2116 22.8246 17.4256C24.4753 15.3191 24.5539 12.0964 23.0447 10.1C22.636 9.58119 22.636 9.51831 22.8089 8.66942C23.1862 6.87731 22.4316 4.59788 21.0168 3.27737C19.8221 2.16124 18.7531 1.73679 16.961 1.67391C15.5619 1.62675 15.4361 1.57959 14.996 1.17086C14.7444 0.919338 14.0999 0.526331 13.5811 0.274807C12.4021 -0.275402 10.2484 -0.401163 9.11658 0.00756264ZM12.968 1.73679C13.4397 1.95687 13.8169 2.19268 13.8169 2.25556C13.8169 2.31844 12.7322 2.99441 11.4275 3.7647C10.107 4.51927 8.92794 5.25813 8.83362 5.38389C8.67642 5.57253 8.62926 6.54719 8.62926 9.06243C8.62926 10.9489 8.5821 12.4894 8.53494 12.4894C8.48777 12.4894 8.03189 12.2536 7.51312 11.9707L6.58562 11.4676V8.22925C6.58562 4.50355 6.69567 3.98479 7.7332 2.80577C9.03798 1.31234 11.1602 0.887897 12.968 1.73679ZM18.7688 3.6075C20.2465 4.31491 21.1583 5.71401 21.3312 7.50612C21.3941 8.27641 21.3627 8.43362 21.1897 8.37074C21.064 8.32357 19.8692 7.63188 18.533 6.84587C16.8667 5.8555 16.0178 5.44677 15.8134 5.50965C15.6405 5.55681 14.2414 6.34282 12.6851 7.23888C11.1288 8.13493 9.824 8.87378 9.79255 8.87378C9.76112 8.87378 9.72967 8.35501 9.72967 7.71049V6.54719L11.4275 5.55681C15.0117 3.46602 15.5933 3.21449 16.8195 3.21449C17.6684 3.21449 18.1086 3.30882 18.7688 3.6075ZM5.0136 8.68514C5.0136 11.3261 5.04504 11.6877 5.29656 11.8921C5.43805 12.0178 6.58562 12.7095 7.84324 13.4327C11.1445 15.3348 11.1759 15.3505 11.0345 15.4763C10.9716 15.5392 10.5157 15.8064 10.0284 16.0737L9.16374 16.561L6.5699 15.0833C3.23721 13.1811 2.6084 12.568 2.16823 10.8703C1.77523 9.25107 2.48264 7.31748 3.88174 6.2485C5.02932 5.38389 5.0136 5.33673 5.0136 8.68514ZM18.2186 8.4965C21.1269 10.1786 21.5356 10.5087 22.1015 11.6091C22.9504 13.2755 22.6989 15.1462 21.4255 16.561C20.7967 17.2527 20.0264 17.8343 19.712 17.8343C19.6649 17.8343 19.6334 16.4981 19.6334 14.8632C19.6334 12.5995 19.5863 11.8292 19.4291 11.672C19.319 11.5619 17.9356 10.7288 16.3636 9.817C14.7916 8.90522 13.5025 8.13493 13.5025 8.08777C13.5025 7.97773 15.2632 7.00307 15.4676 6.98735C15.5619 6.98735 16.8038 7.66332 18.2186 8.4965ZM14.2571 9.817L14.9174 10.1943V11.7191V13.244L13.6912 13.9671C13.0152 14.3601 12.4021 14.6903 12.3235 14.6903C12.2449 14.6903 11.6318 14.3601 10.9559 13.9671L9.72967 13.244V11.7191V10.1943L11.0345 9.47115L12.3235 8.7323L12.9523 9.09387C13.2982 9.29823 13.8798 9.61263 14.2571 9.817ZM17.1025 11.4833L18.0614 12.0493V15.2562C18.0614 18.0701 18.03 18.5575 17.747 19.2963C17.1654 20.8369 15.6719 21.9845 14.0056 22.1888C13.1567 22.2832 11.8205 21.953 11.0973 21.4814L10.6572 21.1827L13.0624 19.7994C14.3829 19.0448 15.5933 18.3217 15.7505 18.1802C15.9863 17.9601 16.0178 17.5828 16.0178 14.423C16.0178 12.5052 16.0492 10.9174 16.0807 10.9174C16.1278 10.9174 16.5837 11.1689 17.1025 11.4833ZM14.8545 16.8125C14.7444 17.1269 9.49387 20.0509 8.75502 20.2238C7.90613 20.4124 6.74283 20.271 5.86249 19.8465C4.91928 19.4063 3.88174 18.2116 3.55162 17.2055C3.26865 16.3252 3.19005 15.1619 3.42585 15.1619C3.50446 15.1619 4.66775 15.7907 6.00398 16.5767C7.35592 17.347 8.56638 17.9915 8.70786 17.9915C8.84934 17.9915 10.2799 17.2212 11.8991 16.2623L14.8388 14.5488L14.8859 15.5863C14.9174 16.1523 14.9016 16.7025 14.8545 16.8125Z" fill="#164194"/>
</g>
<defs>
<clipPath id="clip0_295_10114">
<rect width="24" height="24" fill="white"/>
</clipPath>
</defs>
</svg>
