<svg width="24" height="24" viewBox="-4.5 -4.5 24 24" fill="none" xmlns="http://www.w3.org/2000/svg">
<path d="M2.625 2.30078L1.69531 1.37109C1.28242 0.958203 0.574219 1.25078 0.574219 1.8332V4.84375C0.574219 5.20742 0.866797 5.5 1.23047 5.5H4.24102C4.82617 5.5 5.11875 4.7918 4.70586 4.37891L3.86367 3.53672C4.8125 2.58789 6.125 2 7.57422 2C10.4727 2 12.8242 4.35156 12.8242 7.25C12.8242 10.1484 10.4727 12.5 7.57422 12.5C6.45859 12.5 5.425 12.1527 4.57461 11.5594C4.17813 11.2832 3.63398 11.3789 3.35508 11.7754C3.07617 12.1719 3.17461 12.716 3.57109 12.9949C4.70859 13.7852 6.08945 14.25 7.57422 14.25C11.4406 14.25 14.5742 11.1164 14.5742 7.25C14.5742 3.38359 11.4406 0.25 7.57422 0.25C5.64102 0.25 3.89102 1.03477 2.625 2.30078ZM7.57422 3.75C7.21055 3.75 6.91797 4.04258 6.91797 4.40625V7.25C6.91797 7.425 6.98633 7.5918 7.10938 7.71484L9.07812 9.68359C9.33516 9.94063 9.75078 9.94063 10.0051 9.68359C10.2594 9.42656 10.2621 9.01094 10.0051 8.75664L8.22773 6.9793V4.40625C8.22773 4.04258 7.93516 3.75 7.57148 3.75H7.57422Z" fill="#164194"/>
</svg>
