<svg width="24" height="16" viewBox="-3.5 0 24 16" fill="none" xmlns="http://www.w3.org/2000/svg">
<path d="M9.63672 3.41533V10.9997C9.63672 11.5528 9.18984 11.9997 8.63672 11.9997C8.08359 11.9997 7.63672 11.5528 7.63672 10.9997V3.41533L5.34297 5.70908C4.95234 6.09971 4.31797 6.09971 3.92734 5.70908C3.53672 5.31846 3.53672 4.68408 3.92734 4.29346L7.92734 0.293457C8.31797 -0.097168 8.95234 -0.097168 9.34297 0.293457L13.343 4.29346C13.7336 4.68408 13.7336 5.31846 13.343 5.70908C12.9523 6.09971 12.318 6.09971 11.9273 5.70908L9.63672 3.41533ZM2.63672 10.9997H6.63672C6.63672 12.1028 7.53359 12.9997 8.63672 12.9997C9.73984 12.9997 10.6367 12.1028 10.6367 10.9997H14.6367C15.7398 10.9997 16.6367 11.8966 16.6367 12.9997V13.9997C16.6367 15.1028 15.7398 15.9997 14.6367 15.9997H2.63672C1.53359 15.9997 0.636719 15.1028 0.636719 13.9997V12.9997C0.636719 11.8966 1.53359 10.9997 2.63672 10.9997ZM14.1367 14.2497C14.3356 14.2497 14.5264 14.1707 14.667 14.03C14.8077 13.8894 14.8867 13.6986 14.8867 13.4997C14.8867 13.3008 14.8077 13.11 14.667 12.9694C14.5264 12.8287 14.3356 12.7497 14.1367 12.7497C13.9378 12.7497 13.747 12.8287 13.6064 12.9694C13.4657 13.11 13.3867 13.3008 13.3867 13.4997C13.3867 13.6986 13.4657 13.8894 13.6064 14.03C13.747 14.1707 13.9378 14.2497 14.1367 14.2497Z" fill="#164194"/>
</svg>
