<svg width="24" height="17" viewBox="-2.5 0 24 17" fill="none" xmlns="http://www.w3.org/2000/svg">
<path d="M18.3805 8.48438C18.3805 9.04688 17.9117 9.4875 17.3805 9.4875H16.3805L16.4023 14.4937C16.4023 14.5781 16.3961 14.6625 16.3867 14.7469V15.25C16.3867 15.9406 15.8273 16.5 15.1367 16.5H14.6367C14.6023 16.5 14.568 16.5 14.5336 16.4969C14.4898 16.5 14.4461 16.5 14.4023 16.5H13.3867H12.6367C11.9461 16.5 11.3867 15.9406 11.3867 15.25V14.5V12.5C11.3867 11.9469 10.9398 11.5 10.3867 11.5H8.38672C7.83359 11.5 7.38672 11.9469 7.38672 12.5V14.5V15.25C7.38672 15.9406 6.82734 16.5 6.13672 16.5H5.38672H4.38984C4.34297 16.5 4.29609 16.4969 4.24922 16.4937C4.21172 16.4969 4.17422 16.5 4.13672 16.5H3.63672C2.94609 16.5 2.38672 15.9406 2.38672 15.25V11.75C2.38672 11.7219 2.38672 11.6906 2.38984 11.6625V9.4875H1.38672C0.824219 9.4875 0.386719 9.05 0.386719 8.48438C0.386719 8.20312 0.480469 7.95312 0.699219 7.73438L8.71172 0.75C8.93047 0.53125 9.18047 0.5 9.39922 0.5C9.61797 0.5 9.86797 0.5625 10.0555 0.71875L18.0367 7.73438C18.2867 7.95312 18.4117 8.20312 18.3805 8.48438Z" fill="#164194"/>
</svg>
