<svg width="24" height="17" viewBox="-4 0 24 17" fill="none" xmlns="http://www.w3.org/2000/svg">
<path d="M8.38673 0.5C8.53048 0.5 8.67423 0.53125 8.80548 0.590625L14.6899 3.0875C15.3774 3.37813 15.8899 4.05625 15.8867 4.875C15.8711 7.975 14.5961 13.6469 9.21173 16.225C8.68986 16.475 8.08361 16.475 7.56173 16.225C2.17736 13.6469 0.902358 7.975 0.886733 4.875C0.883608 4.05625 1.39611 3.37813 2.08361 3.0875L7.97111 0.590625C8.09923 0.53125 8.24298 0.5 8.38673 0.5ZM8.38673 2.5875V14.4C12.6992 12.3125 13.8586 7.69062 13.8867 4.91875L8.38673 2.5875Z" fill="#164194"/>
</svg>
