<svg width="24" height="17" viewBox="-5.5 0 24 17" fill="none" xmlns="http://www.w3.org/2000/svg">
<path d="M7.38672 4.75V0.5H1.13672C0.721094 0.5 0.386719 0.834375 0.386719 1.25V15.75C0.386719 16.1656 0.721094 16.5 1.13672 16.5H11.6367C12.0523 16.5 12.3867 16.1656 12.3867 15.75V5.5H8.13672C7.72422 5.5 7.38672 5.1625 7.38672 4.75ZM9.38672 12.125C9.38672 12.3313 9.21797 12.5 9.01172 12.5H3.76172C3.55547 12.5 3.38672 12.3313 3.38672 12.125V11.875C3.38672 11.6687 3.55547 11.5 3.76172 11.5H9.01172C9.21797 11.5 9.38672 11.6687 9.38672 11.875V12.125ZM9.38672 10.125C9.38672 10.3313 9.21797 10.5 9.01172 10.5H3.76172C3.55547 10.5 3.38672 10.3313 3.38672 10.125V9.875C3.38672 9.66875 3.55547 9.5 3.76172 9.5H9.01172C9.21797 9.5 9.38672 9.66875 9.38672 9.875V10.125ZM9.38672 7.875V8.125C9.38672 8.33125 9.21797 8.5 9.01172 8.5H3.76172C3.55547 8.5 3.38672 8.33125 3.38672 8.125V7.875C3.38672 7.66875 3.55547 7.5 3.76172 7.5H9.01172C9.21797 7.5 9.38672 7.66875 9.38672 7.875ZM12.3867 4.30938V4.5H8.38672V0.5H8.57734C8.77734 0.5 8.96797 0.578125 9.10859 0.71875L12.168 3.78125C12.3086 3.92188 12.3867 4.1125 12.3867 4.30938Z" fill="#164194"/>
</svg>
