<svg width="24" height="13" viewBox="-1.5 0 24 13" fill="none" xmlns="http://www.w3.org/2000/svg">
<path d="M10.493 1.1625L7.46797 3.6125C6.96484 4.01875 6.86797 4.75 7.24922 5.27187C7.65234 5.82812 8.43672 5.9375 8.97734 5.51562L12.0805 3.10313C12.2992 2.93438 12.6117 2.97188 12.7836 3.19063C12.9555 3.40938 12.9148 3.72188 12.6961 3.89375L12.043 4.4L16.3867 8.4V2.5H16.3648L16.243 2.42188L13.9742 0.96875C13.4961 0.6625 12.9367 0.5 12.368 0.5C11.6867 0.5 11.0242 0.734375 10.493 1.1625ZM11.2055 5.05L9.58984 6.30625C8.60547 7.075 7.17734 6.875 6.43984 5.8625C5.74609 4.90938 5.92109 3.57812 6.83672 2.8375L9.43672 0.734375C9.07422 0.58125 8.68359 0.503125 8.28672 0.503125C7.69922 0.5 7.12734 0.675 6.63672 1L4.38672 2.5V9.5H5.26797L8.12422 12.1062C8.73672 12.6656 9.68359 12.6219 10.243 12.0094C10.4148 11.8187 10.5305 11.5969 10.5898 11.3656L11.1211 11.8531C11.7305 12.4125 12.6805 12.3719 13.2398 11.7625C13.3805 11.6094 13.4836 11.4312 13.5492 11.2469C14.1555 11.6531 14.9805 11.5687 15.4898 11.0125C16.0492 10.4031 16.0086 9.45312 15.3992 8.89375L11.2055 5.05ZM0.886719 2.5C0.611719 2.5 0.386719 2.725 0.386719 3V9.5C0.386719 10.0531 0.833594 10.5 1.38672 10.5H2.38672C2.93984 10.5 3.38672 10.0531 3.38672 9.5V2.5H0.886719ZM1.88672 8.5C2.01933 8.5 2.1465 8.55268 2.24027 8.64645C2.33404 8.74021 2.38672 8.86739 2.38672 9C2.38672 9.13261 2.33404 9.25979 2.24027 9.35355C2.1465 9.44732 2.01933 9.5 1.88672 9.5C1.75411 9.5 1.62693 9.44732 1.53317 9.35355C1.4394 9.25979 1.38672 9.13261 1.38672 9C1.38672 8.86739 1.4394 8.74021 1.53317 8.64645C1.62693 8.55268 1.75411 8.5 1.88672 8.5ZM17.3867 2.5V9.5C17.3867 10.0531 17.8336 10.5 18.3867 10.5H19.3867C19.9398 10.5 20.3867 10.0531 20.3867 9.5V3C20.3867 2.725 20.1617 2.5 19.8867 2.5H17.3867ZM18.3867 9C18.3867 8.86739 18.4394 8.74021 18.5332 8.64645C18.6269 8.55268 18.7541 8.5 18.8867 8.5C19.0193 8.5 19.1465 8.55268 19.2403 8.64645C19.334 8.74021 19.3867 8.86739 19.3867 9C19.3867 9.13261 19.334 9.25979 19.2403 9.35355C19.1465 9.44732 19.0193 9.5 18.8867 9.5C18.7541 9.5 18.6269 9.44732 18.5332 9.35355C18.4394 9.25979 18.3867 9.13261 18.3867 9Z" fill="#164194"/>
</svg>
