<svg width="24" height="17" viewBox="-2.5 0 24 17" fill="none" xmlns="http://www.w3.org/2000/svg">
<path d="M8.13672 0.5H6.88672C6.05859 0.5 5.38672 1.17188 5.38672 2V5.5C5.38672 6.60313 6.28359 7.5 7.38672 7.5H11.3867C12.4898 7.5 13.3867 6.60313 13.3867 5.5V2C13.3867 1.17188 12.7148 0.5 11.8867 0.5H10.6367V3C10.6367 3.275 10.4117 3.5 10.1367 3.5H8.63672C8.36172 3.5 8.13672 3.275 8.13672 3V0.5ZM2.38672 8.5C1.28359 8.5 0.386719 9.39688 0.386719 10.5V14.5C0.386719 15.6031 1.28359 16.5 2.38672 16.5H7.38672C8.48984 16.5 9.38672 15.6031 9.38672 14.5V10.5C9.38672 9.39688 8.48984 8.5 7.38672 8.5H6.13672V11C6.13672 11.275 5.91172 11.5 5.63672 11.5H4.13672C3.86172 11.5 3.63672 11.275 3.63672 11V8.5H2.38672ZM11.3867 16.5H16.3867C17.4898 16.5 18.3867 15.6031 18.3867 14.5V10.5C18.3867 9.39688 17.4898 8.5 16.3867 8.5H15.1367V11C15.1367 11.275 14.9117 11.5 14.6367 11.5H13.1367C12.8617 11.5 12.6367 11.275 12.6367 11V8.5H11.3867C10.918 8.5 10.4867 8.65937 10.1461 8.93125C10.2992 9.25625 10.3867 9.61875 10.3867 10V15C10.3867 15.3813 10.2992 15.7438 10.1461 16.0688C10.4867 16.3406 10.918 16.5 11.3867 16.5Z" fill="#164194"/>
</svg>
