<svg width="24" height="17" viewBox="-4.5 0 24 17" fill="none" xmlns="http://www.w3.org/2000/svg">
<path d="M3.38672 0.5C1.73047 0.5 0.386719 1.84375 0.386719 3.5V13.5C0.386719 15.1562 1.73047 16.5 3.38672 16.5H12.3867H13.3867C13.9398 16.5 14.3867 16.0531 14.3867 15.5C14.3867 14.9469 13.9398 14.5 13.3867 14.5V12.5C13.9398 12.5 14.3867 12.0531 14.3867 11.5V1.5C14.3867 0.946875 13.9398 0.5 13.3867 0.5H12.3867H3.38672ZM3.38672 12.5H11.3867V14.5H3.38672C2.83359 14.5 2.38672 14.0531 2.38672 13.5C2.38672 12.9469 2.83359 12.5 3.38672 12.5ZM4.38672 5C4.38672 4.725 4.61172 4.5 4.88672 4.5H10.8867C11.1617 4.5 11.3867 4.725 11.3867 5C11.3867 5.275 11.1617 5.5 10.8867 5.5H4.88672C4.61172 5.5 4.38672 5.275 4.38672 5ZM4.88672 6.5H10.8867C11.1617 6.5 11.3867 6.725 11.3867 7C11.3867 7.275 11.1617 7.5 10.8867 7.5H4.88672C4.61172 7.5 4.38672 7.275 4.38672 7C4.38672 6.725 4.61172 6.5 4.88672 6.5Z" fill="#164194"/>
</svg>
