<svg width="24" height="17" viewBox="-1.5 0 24 17" fill="none" xmlns="http://www.w3.org/2000/svg">
<path d="M4.88672 0.5C5.54976 0.5 6.18564 0.763392 6.65449 1.23223C7.12333 1.70107 7.38672 2.33696 7.38672 3C7.38672 3.66304 7.12333 4.29893 6.65449 4.76777C6.18564 5.23661 5.54976 5.5 4.88672 5.5C4.22368 5.5 3.58779 5.23661 3.11895 4.76777C2.65011 4.29893 2.38672 3.66304 2.38672 3C2.38672 2.33696 2.65011 1.70107 3.11895 1.23223C3.58779 0.763392 4.22368 0.5 4.88672 0.5ZM16.3867 0.5C17.0498 0.5 17.6856 0.763392 18.1545 1.23223C18.6233 1.70107 18.8867 2.33696 18.8867 3C18.8867 3.66304 18.6233 4.29893 18.1545 4.76777C17.6856 5.23661 17.0498 5.5 16.3867 5.5C15.7237 5.5 15.0878 5.23661 14.619 4.76777C14.1501 4.29893 13.8867 3.66304 13.8867 3C13.8867 2.33696 14.1501 1.70107 14.619 1.23223C15.0878 0.763392 15.7237 0.5 16.3867 0.5ZM0.386719 9.83438C0.386719 7.99375 1.88047 6.5 3.72109 6.5H5.05547C5.55234 6.5 6.02422 6.60938 6.44922 6.80312C6.40859 7.02812 6.38984 7.2625 6.38984 7.5C6.38984 8.69375 6.91484 9.76562 7.74297 10.5C7.73672 10.5 7.73047 10.5 7.72109 10.5H1.05234C0.686719 10.5 0.386719 10.2 0.386719 9.83438ZM13.0523 10.5C13.0461 10.5 13.0398 10.5 13.0305 10.5C13.8617 9.76562 14.3836 8.69375 14.3836 7.5C14.3836 7.2625 14.3617 7.03125 14.3242 6.80312C14.7492 6.60625 15.2211 6.5 15.718 6.5H17.0523C18.893 6.5 20.3867 7.99375 20.3867 9.83438C20.3867 10.2031 20.0867 10.5 19.7211 10.5H13.0523ZM7.38672 7.5C7.38672 6.70435 7.70279 5.94129 8.2654 5.37868C8.82801 4.81607 9.59107 4.5 10.3867 4.5C11.1824 4.5 11.9454 4.81607 12.508 5.37868C13.0706 5.94129 13.3867 6.70435 13.3867 7.5C13.3867 8.29565 13.0706 9.05871 12.508 9.62132C11.9454 10.1839 11.1824 10.5 10.3867 10.5C9.59107 10.5 8.82801 10.1839 8.2654 9.62132C7.70279 9.05871 7.38672 8.29565 7.38672 7.5ZM4.38672 15.6656C4.38672 13.3656 6.25234 11.5 8.55234 11.5H12.2211C14.5211 11.5 16.3867 13.3656 16.3867 15.6656C16.3867 16.125 16.0148 16.5 15.5523 16.5H5.22109C4.76172 16.5 4.38672 16.1281 4.38672 15.6656Z" fill="#164194"/>
</svg>
