<svg width="24" height="24" viewBox="-3.5 -3.5 24 24" fill="none" xmlns="http://www.w3.org/2000/svg">
<path d="M9.38672 1.5C9.38672 0.946875 8.93984 0.5 8.38672 0.5C7.83359 0.5 7.38672 0.946875 7.38672 1.5V9.08438L5.09297 6.79063C4.70234 6.4 4.06797 6.4 3.67734 6.79063C3.28672 7.18125 3.28672 7.81563 3.67734 8.20625L7.67734 12.2063C8.06797 12.5969 8.70234 12.5969 9.09297 12.2063L13.093 8.20625C13.4836 7.81563 13.4836 7.18125 13.093 6.79063C12.7023 6.4 12.068 6.4 11.6773 6.79063L9.38672 9.08438V1.5ZM2.38672 11.5C1.28359 11.5 0.386719 12.3969 0.386719 13.5V14.5C0.386719 15.6031 1.28359 16.5 2.38672 16.5H14.3867C15.4898 16.5 16.3867 15.6031 16.3867 14.5V13.5C16.3867 12.3969 15.4898 11.5 14.3867 11.5H11.2148L9.79922 12.9156C9.01797 13.6969 7.75234 13.6969 6.97109 12.9156L5.55859 11.5H2.38672ZM13.8867 13.25C14.0856 13.25 14.2764 13.329 14.417 13.4697C14.5577 13.6103 14.6367 13.8011 14.6367 14C14.6367 14.1989 14.5577 14.3897 14.417 14.5303C14.2764 14.671 14.0856 14.75 13.8867 14.75C13.6878 14.75 13.497 14.671 13.3564 14.5303C13.2157 14.3897 13.1367 14.1989 13.1367 14C13.1367 13.8011 13.2157 13.6103 13.3564 13.4697C13.497 13.329 13.6878 13.25 13.8867 13.25Z" fill="#164194"/>
</svg>
