<svg width="24" height="16" viewBox="-3.5 0 24 16" fill="none" xmlns="http://www.w3.org/2000/svg">
<path d="M1.38672 2C1.38672 0.896875 2.28359 0 3.38672 0H8.38672C9.48984 0 10.3867 0.896875 10.3867 2V8H10.6367C12.1555 8 13.3867 9.23125 13.3867 10.75V11.75C13.3867 12.1656 13.7211 12.5 14.1367 12.5C14.5523 12.5 14.8867 12.1656 14.8867 11.75V6.9375C14.0242 6.71562 13.3867 5.93125 13.3867 5V3L12.3867 2C12.1117 1.725 12.1117 1.275 12.3867 1C12.6617 0.725 13.1117 0.725 13.3867 1L15.8023 3.41563C16.1773 3.79063 16.3867 4.3 16.3867 4.83125V5.25V6V7V11.75C16.3867 12.9937 15.3805 14 14.1367 14C12.893 14 11.8867 12.9937 11.8867 11.75V10.75C11.8867 10.0594 11.3273 9.5 10.6367 9.5H10.3867V14C10.9398 14 11.3867 14.4469 11.3867 15C11.3867 15.5531 10.9398 16 10.3867 16H1.38672C0.833594 16 0.386719 15.5531 0.386719 15C0.386719 14.4469 0.833594 14 1.38672 14V2ZM3.38672 2.5V5.5C3.38672 5.775 3.61172 6 3.88672 6H7.88672C8.16172 6 8.38672 5.775 8.38672 5.5V2.5C8.38672 2.225 8.16172 2 7.88672 2H3.88672C3.61172 2 3.38672 2.225 3.38672 2.5Z" fill="#164194"/>
</svg>
