<svg width="24" height="25" viewBox="-1.5 0 24 25" fill="none" xmlns="http://www.w3.org/2000/svg">
<path d="M10.499 0.5C9.66926 0.5 8.99895 1.17031 8.99895 2V2.83906C5.60051 3.37813 2.99895 6.32187 2.99895 9.875V11.4406C2.99895 13.5687 2.27239 15.6359 0.945827 17.2953L0.247389 18.1719C-0.0244857 18.5094 -0.0760482 18.9734 0.111452 19.3625C0.298952 19.7516 0.692702 20 1.12395 20H19.874C20.3052 20 20.699 19.7516 20.8865 19.3625C21.074 18.9734 21.0224 18.5094 20.7505 18.1719L20.0521 17.3C18.7255 15.6359 17.999 13.5687 17.999 11.4406V9.875C17.999 6.32187 15.3974 3.37813 11.999 2.83906V2C11.999 1.17031 11.3286 0.5 10.499 0.5ZM10.499 5H10.874C13.5646 5 15.749 7.18437 15.749 9.875V11.4406C15.749 13.6859 16.4005 15.875 17.6099 17.75H3.38801C4.59739 15.875 5.24895 13.6859 5.24895 11.4406V9.875C5.24895 7.18437 7.43333 5 10.124 5H10.499ZM13.499 21.5H10.499H7.49895C7.49895 22.2969 7.81301 23.0609 8.37551 23.6234C8.93801 24.1859 9.70208 24.5 10.499 24.5C11.2958 24.5 12.0599 24.1859 12.6224 23.6234C13.1849 23.0609 13.499 22.2969 13.499 21.5Z" fill="#164194"/>
</svg>
