<svg width="24" height="24" viewBox="0 0 24 24" fill="none" xmlns="http://www.w3.org/2000/svg">
<path fill-rule="evenodd" clip-rule="evenodd" d="M1.82904 0.313814C1.41063 -0.104605 0.732234 -0.104605 0.313814 0.313814C-0.104605 0.732234 -0.104605 1.41063 0.313814 1.82904L22.1711 23.6862C22.5894 24.1046 23.2679 24.1046 23.6862 23.6862C24.1046 23.2679 24.1046 22.5894 23.6862 22.1711L22.1426 20.6274C23.2247 20.2451 24 19.2131 24 18V6.2143C24 4.67579 22.7529 3.42858 21.2143 3.42858H4.9438L1.82904 0.313814ZM9.82303 8.3078L15.6922 14.177C16.0691 13.539 16.2857 12.7945 16.2857 12C16.2857 9.63309 14.367 7.7143 12 7.7143C11.2056 7.7143 10.461 7.93097 9.82303 8.3078ZM1.07143 5.78572C1.66317 5.78572 2.14286 6.26542 2.14286 6.85715V17.7857C2.14286 18.1408 2.43067 18.4286 2.78572 18.4286H13.5C14.0918 18.4286 14.5715 18.9083 14.5715 19.5C14.5715 20.0918 14.0918 20.5715 13.5 20.5715H2.78572C1.24721 20.5715 9.57933e-08 19.3243 9.57933e-08 17.7857V6.85715C9.57933e-08 6.26542 0.479696 5.78572 1.07143 5.78572Z" fill="#164194"/>
</svg>
