<svg width="24" height="24" viewBox="-3.5 -3.5 24 24" fill="none" xmlns="http://www.w3.org/2000/svg">
<path d="M1.5 2.5C1.5 1.39688 2.39688 0.5 3.5 0.5H8.5C9.60312 0.5 10.5 1.39688 10.5 2.5V8.5H10.75C12.2688 8.5 13.5 9.73125 13.5 11.25V12.25C13.5 12.6656 13.8344 13 14.25 13C14.6656 13 15 12.6656 15 12.25V7.4375C14.1375 7.21562 13.5 6.43125 13.5 5.5V3.5L12.5 2.5C12.225 2.225 12.225 1.775 12.5 1.5C12.775 1.225 13.225 1.225 13.5 1.5L15.9156 3.91563C16.2906 4.29063 16.5 4.8 16.5 5.33125V5.75V6.5V7.5V12.25C16.5 13.4937 15.4937 14.5 14.25 14.5C13.0063 14.5 12 13.4937 12 12.25V11.25C12 10.5594 11.4406 10 10.75 10H10.5V14.5C11.0531 14.5 11.5 14.9469 11.5 15.5C11.5 16.0531 11.0531 16.5 10.5 16.5H1.5C0.946875 16.5 0.5 16.0531 0.5 15.5C0.5 14.9469 0.946875 14.5 1.5 14.5V2.5ZM3.5 3V6C3.5 6.275 3.725 6.5 4 6.5H8C8.275 6.5 8.5 6.275 8.5 6V3C8.5 2.725 8.275 2.5 8 2.5H4C3.725 2.5 3.5 2.725 3.5 3Z" fill="#164194"/>
</svg>
