<svg width="24" height="17" viewBox="-5.5 0 24 17" fill="none" xmlns="http://www.w3.org/2000/svg">
<path d="M6.8335 0.5C5.52725 0.5 4.41475 1.33438 4.00537 2.5H2.8335C1.73037 2.5 0.833496 3.39687 0.833496 4.5V14.5C0.833496 15.6031 1.73037 16.5 2.8335 16.5H10.8335C11.9366 16.5 12.8335 15.6031 12.8335 14.5V4.5C12.8335 3.39687 11.9366 2.5 10.8335 2.5H9.66162C9.25225 1.33438 8.13975 0.5 6.8335 0.5ZM6.8335 2.5C7.09871 2.5 7.35307 2.60536 7.5406 2.79289C7.72814 2.98043 7.8335 3.23478 7.8335 3.5C7.8335 3.76522 7.72814 4.01957 7.5406 4.20711C7.35307 4.39464 7.09871 4.5 6.8335 4.5C6.56828 4.5 6.31393 4.39464 6.12639 4.20711C5.93885 4.01957 5.8335 3.76522 5.8335 3.5C5.8335 3.23478 5.93885 2.98043 6.12639 2.79289C6.31393 2.60536 6.56828 2.5 6.8335 2.5ZM3.0835 9C3.0835 8.80109 3.16251 8.61032 3.30317 8.46967C3.44382 8.32902 3.63458 8.25 3.8335 8.25C4.03241 8.25 4.22317 8.32902 4.36383 8.46967C4.50448 8.61032 4.5835 8.80109 4.5835 9C4.5835 9.19891 4.50448 9.38968 4.36383 9.53033C4.22317 9.67098 4.03241 9.75 3.8335 9.75C3.63458 9.75 3.44382 9.67098 3.30317 9.53033C3.16251 9.38968 3.0835 9.19891 3.0835 9ZM6.3335 8.5H10.3335C10.6085 8.5 10.8335 8.725 10.8335 9C10.8335 9.275 10.6085 9.5 10.3335 9.5H6.3335C6.0585 9.5 5.8335 9.275 5.8335 9C5.8335 8.725 6.0585 8.5 6.3335 8.5ZM3.0835 12C3.0835 11.8011 3.16251 11.6103 3.30317 11.4697C3.44382 11.329 3.63458 11.25 3.8335 11.25C4.03241 11.25 4.22317 11.329 4.36383 11.4697C4.50448 11.6103 4.5835 11.8011 4.5835 12C4.5835 12.1989 4.50448 12.3897 4.36383 12.5303C4.22317 12.671 4.03241 12.75 3.8335 12.75C3.63458 12.75 3.44382 12.671 3.30317 12.5303C3.16251 12.3897 3.0835 12.1989 3.0835 12ZM5.8335 12C5.8335 11.725 6.0585 11.5 6.3335 11.5H10.3335C10.6085 11.5 10.8335 11.725 10.8335 12C10.8335 12.275 10.6085 12.5 10.3335 12.5H6.3335C6.0585 12.5 5.8335 12.275 5.8335 12Z" fill="#164194"/>
</svg>
