<svg width="24" height="12" viewBox="-5.5 0 24 12" fill="none" xmlns="http://www.w3.org/2000/svg">
<path d="M2.47957 0.117225C2.25691 -0.0562124 1.94051 -0.0351186 1.73895 0.1641L0.801445 1.1016C0.602227 1.30082 0.581133 1.61723 0.752227 1.84223L2.62723 4.27973C2.7327 4.41801 2.8991 4.50004 3.07254 4.50004H4.34051L6.8952 7.05473C6.55066 7.73441 6.66082 8.58754 7.23035 9.15473L9.85535 11.7797C10.1483 12.0727 10.6241 12.0727 10.9171 11.7797L12.4171 10.2797C12.71 9.98676 12.71 9.51097 12.4171 9.21801L9.79207 6.59301C9.22488 6.02582 8.37176 5.91332 7.69207 6.25785L5.13738 3.70316V2.43754C5.13738 2.26176 5.05535 2.09769 4.91707 1.99223L2.47957 0.117225ZM1.10379 9.28363C0.806133 9.58129 0.637383 9.98676 0.637383 10.4086C0.637383 11.2875 1.34988 12 2.22879 12C2.65066 12 3.05613 11.8313 3.35379 11.5336L6.11473 8.77269C5.93191 8.28285 5.90379 7.75082 6.03035 7.24691L4.58426 5.80082L1.10379 9.28363ZM12.6374 3.37504C12.6374 3.12894 12.6116 2.88988 12.5624 2.66019C12.5061 2.39769 12.185 2.32973 11.9952 2.51957L10.4975 4.01723C10.4272 4.08754 10.3311 4.12738 10.2327 4.12738H8.88738C8.68113 4.12738 8.51238 3.95863 8.51238 3.75238V2.40473C8.51238 2.30629 8.55223 2.21019 8.62254 2.13988L10.1202 0.642225C10.31 0.452381 10.2421 0.131288 9.97957 0.0750376C9.74754 0.0258189 9.50848 3.76048e-05 9.26238 3.76048e-05C7.3991 3.76048e-05 5.88738 1.51176 5.88738 3.37504V3.39379L7.8866 5.39301C8.73035 5.17973 9.66316 5.40473 10.3241 6.06566L10.6921 6.43363C11.8405 5.89457 12.6374 4.72738 12.6374 3.37504ZM1.94988 10.125C1.94988 9.97585 2.00915 9.83278 2.11464 9.72729C2.22012 9.6218 2.3632 9.56254 2.51238 9.56254C2.66157 9.56254 2.80464 9.6218 2.91013 9.72729C3.01562 9.83278 3.07488 9.97585 3.07488 10.125C3.07488 10.2742 3.01562 10.4173 2.91013 10.5228C2.80464 10.6283 2.66157 10.6875 2.51238 10.6875C2.3632 10.6875 2.22012 10.6283 2.11464 10.5228C2.00915 10.4173 1.94988 10.2742 1.94988 10.125Z" fill="#164194"/>
</svg>
