<svg width="24" height="24" viewBox="-6 -6 24 24" fill="none" xmlns="http://www.w3.org/2000/svg">
<path d="M6.63672 1.1875C6.63672 0.703516 6.2457 0.3125 5.76172 0.3125C5.27773 0.3125 4.88672 0.703516 4.88672 1.1875V5.125H0.949219C0.465234 5.125 0.0742188 5.51602 0.0742188 6C0.0742188 6.48398 0.465234 6.875 0.949219 6.875H4.88672V10.8125C4.88672 11.2965 5.27773 11.6875 5.76172 11.6875C6.2457 11.6875 6.63672 11.2965 6.63672 10.8125V6.875H10.5742C11.0582 6.875 11.4492 6.48398 11.4492 6C11.4492 5.51602 11.0582 5.125 10.5742 5.125H6.63672V1.1875Z" fill="#164194"/>
</svg>
