<svg width="25" height="24" viewBox="0 0 25 24" fill="none" xmlns="http://www.w3.org/2000/svg">
<path d="M2.35494 0.0509262C2.24218 0.0728512 2.00413 0.166819 1.82246 0.25452C1.53742 0.395472 1.45599 0.454985 1.20854 0.702431C0.961093 0.949877 0.90158 1.03131 0.763762 1.31635C0.481861 1.88642 0.506919 0.727489 0.506919 13.0497V24L2.90621 21.6007L5.3055 19.2014L13.9223 19.192C22.1037 19.1858 22.5516 19.1826 22.7301 19.1294C23.2062 18.9853 23.698 18.6627 23.983 18.2993C24.171 18.0644 24.3589 17.6791 24.4372 17.3722C24.4998 17.1279 24.4998 17.012 24.4998 9.60424C24.4998 2.18398 24.4998 2.08061 24.4372 1.82064C24.3338 1.39466 24.1302 1.03758 23.7951 0.702431C23.5508 0.454985 23.4693 0.395472 23.1843 0.25452C22.9964 0.163687 22.7615 0.0728512 22.6362 0.0477943C22.3167 -0.0179844 2.66816 -0.0148506 2.35494 0.0509262ZM15.3913 3.70311C15.6419 3.81901 15.8674 4.03826 15.9896 4.28884L16.0898 4.49557V6.5785V8.66144L16.0146 8.84938C15.9614 8.98406 15.8831 9.09056 15.7484 9.22524C15.5761 9.39438 15.4665 9.45703 14.6239 9.87675L13.6936 10.3435V10.5752V10.807H12.5002H11.31L11.3194 10.0459L11.3288 9.28476L11.429 9.08116C11.6013 8.73035 11.7235 8.64265 12.7665 8.1227L13.6936 7.65913V6.82282V5.98338H12.5034H11.3131L11.3069 6.63175L11.2975 7.28326L10.101 7.29265L8.90131 7.29892V5.97712C8.90131 4.55195 8.91071 4.45798 9.06732 4.18861C9.15815 4.032 9.38054 3.82214 9.53089 3.7407C9.794 3.60601 9.76267 3.60601 12.5504 3.61228L15.2128 3.61854L15.3913 3.70311ZM13.6936 13.2032V14.4091H12.5034H11.3131V13.2032V11.9973H12.5034H13.6936V13.2032Z" fill="#164194"/>
</svg>
