<svg width="24" height="24" viewBox="-3.5 -3.5 24 24" fill="none" xmlns="http://www.w3.org/2000/svg">
<path d="M11.1665 10.5C13.929 10.5 16.1665 8.2625 16.1665 5.5C16.1665 5.02187 16.0978 4.55938 15.9728 4.11875C15.8759 3.78125 15.4603 3.70625 15.2134 3.95312L12.8134 6.35313C12.7196 6.44688 12.5915 6.5 12.4603 6.5H10.6665C10.3915 6.5 10.1665 6.275 10.1665 6V4.20625C10.1665 4.075 10.2196 3.94688 10.3134 3.85313L12.7134 1.45312C12.9603 1.20625 12.8821 0.790625 12.5478 0.69375C12.1071 0.56875 11.6446 0.5 11.1665 0.5C8.404 0.5 6.1665 2.7375 6.1665 5.5C6.1665 6.09688 6.27275 6.67188 6.46338 7.20312L0.788379 12.8781C0.391504 13.275 0.166504 13.8156 0.166504 14.3781C0.166504 15.55 1.1165 16.5 2.28838 16.5C2.85088 16.5 3.3915 16.275 3.78838 15.8781L9.46338 10.2031C9.99463 10.3969 10.5696 10.5 11.1665 10.5ZM2.6665 13.25C2.86542 13.25 3.05618 13.329 3.19683 13.4697C3.33749 13.6103 3.4165 13.8011 3.4165 14C3.4165 14.1989 3.33749 14.3897 3.19683 14.5303C3.05618 14.671 2.86542 14.75 2.6665 14.75C2.46759 14.75 2.27683 14.671 2.13617 14.5303C1.99552 14.3897 1.9165 14.1989 1.9165 14C1.9165 13.8011 1.99552 13.6103 2.13617 13.4697C2.27683 13.329 2.46759 13.25 2.6665 13.25Z" fill="#164194"/>
</svg>
