<svg width="24" height="18" viewBox="-1.5 0 24 18" fill="none" xmlns="http://www.w3.org/2000/svg">
<path d="M3.13672 1.5C3.13672 0.808594 2.57812 0.25 1.88672 0.25C1.19531 0.25 0.636719 0.808594 0.636719 1.5V14.625C0.636719 16.3516 2.03516 17.75 3.76172 17.75H19.3867C20.0781 17.75 20.6367 17.1914 20.6367 16.5C20.6367 15.8086 20.0781 15.25 19.3867 15.25H3.76172C3.41797 15.25 3.13672 14.9688 3.13672 14.625V1.5ZM19.0195 4.88281C19.5078 4.39453 19.5078 3.60156 19.0195 3.11328C18.5312 2.625 17.7383 2.625 17.25 3.11328L13.1367 7.23047L10.8945 4.98828C10.4062 4.5 9.61328 4.5 9.125 4.98828L4.75 9.36328C4.26172 9.85156 4.26172 10.6445 4.75 11.1328C5.23828 11.6211 6.03125 11.6211 6.51953 11.1328L10.0117 7.64453L12.2539 9.88672C12.7422 10.375 13.5352 10.375 14.0234 9.88672L19.0234 4.88672L19.0195 4.88281Z" fill="#164194"/>
</svg>
