<svg width="24" height="22" viewBox="-3 0 24 22" fill="none" xmlns="http://www.w3.org/2000/svg">
<path d="M4.5 0.5C3.67031 0.5 3 1.17031 3 2V11H1.5C0.670312 11 0 11.6703 0 12.5C0 13.3297 0.670312 14 1.5 14H3V15.5H1.5C0.670312 15.5 0 16.1703 0 17C0 17.8297 0.670312 18.5 1.5 18.5H3V20C3 20.8297 3.67031 21.5 4.5 21.5C5.32969 21.5 6 20.8297 6 20V18.5H13.5C14.3297 18.5 15 17.8297 15 17C15 16.1703 14.3297 15.5 13.5 15.5H6V14H11.25C14.9766 14 18 10.9766 18 7.25C18 3.52344 14.9766 0.5 11.25 0.5H4.5ZM11.25 11H6V3.5H11.25C13.3219 3.5 15 5.17812 15 7.25C15 9.32187 13.3219 11 11.25 11Z" fill="#164194"/>
</svg>
