<svg width="24" height="16" viewBox="0 0 24 16" fill="none" xmlns="http://www.w3.org/2000/svg">
<path d="M12 3.81885C10.0117 3.81885 8.4 5.69921 8.4 8.01885C8.4 10.3381 10.0116 12.2188 12 12.2188C13.9875 12.2188 15.6 10.339 15.6 8.01885C15.6 5.69921 13.9883 3.81885 12 3.81885ZM13.8 9.9849C13.8 10.2653 13.6531 10.4188 13.3661 10.4188H10.8426C10.5555 10.4188 10.4086 10.2653 10.4086 9.9849V9.65111C10.4086 9.37072 10.5555 9.21716 10.8426 9.21716H11.41V7.72174C11.41 7.52812 11.43 7.32787 11.43 7.32787H11.4167C11.4167 7.32787 11.3499 7.428 11.3099 7.46805C11.1429 7.62829 10.9159 7.63496 10.7224 7.428L10.5154 7.19434C10.3151 6.99405 10.3286 6.77374 10.5355 6.58012L11.35 5.83241C11.5168 5.67885 11.6637 5.61877 11.8907 5.61877H12.3447C12.6318 5.61877 12.7853 5.76562 12.7853 6.05272V9.21712H13.3661C13.6531 9.21712 13.8 9.37065 13.8 9.65107V9.9849H13.8ZM23.1 0.818848H0.9C0.402938 0.818848 0 1.22179 0 1.71885V14.2813C0 14.7784 0.402938 15.1813 0.9 15.1813H23.1C23.5971 15.1813 24 14.7784 24 14.2813V1.71885C24 1.22179 23.5971 0.818848 23.1 0.818848ZM19.2 13.4188H4.8C4.8 11.762 3.45686 10.4188 1.8 10.4188V5.61885C3.45686 5.61885 4.8 4.27571 4.8 2.61885H19.2C19.2 4.27571 20.5431 5.61885 22.2 5.61885V10.4188C20.5431 10.4188 19.2 11.762 19.2 13.4188Z" fill="#164194"/>
</svg>
