<svg width="24" height="16" viewBox="-4.5 0 24 16" fill="none" xmlns="http://www.w3.org/2000/svg">
<path d="M9.47761 0.0898862C9.41826 0.155487 9.28706 0.470994 8.9903 1.27694L8.58734 2.37653L7.46903 2.78888C6.68809 3.07627 6.33198 3.22621 6.282 3.2762C6.18204 3.38241 6.18204 3.62607 6.282 3.73228C6.33198 3.78538 6.68809 3.9322 7.46903 4.21959L8.58734 4.63506L8.9903 5.73153C9.44637 6.97482 9.46199 7.00293 9.71814 7.00293C9.83997 7.00293 9.88682 6.98731 9.94618 6.92796C9.99928 6.87798 10.1523 6.49687 10.4241 5.76277C10.6459 5.16612 10.8364 4.66318 10.8489 4.65068C10.8614 4.63506 11.3644 4.44139 11.961 4.21959C13.173 3.77289 13.223 3.74165 13.223 3.50424C13.223 3.26682 13.173 3.23559 11.961 2.78888C11.3612 2.56709 10.8614 2.37341 10.8489 2.35779C10.8364 2.34529 10.6459 1.84236 10.4241 1.2457C10.1523 0.502232 10.0024 0.13362 9.9493 0.0836382C9.83372 -0.0319433 9.59631 -0.0256958 9.47761 0.0898862ZM10.0024 2.12975C10.1711 2.59208 10.2835 2.85448 10.3304 2.89821C10.3679 2.93257 10.7209 3.07939 11.1082 3.22309C11.4987 3.36991 11.8173 3.49486 11.8173 3.50424C11.8173 3.51361 11.4987 3.63856 11.1082 3.78538C10.7209 3.92908 10.3679 4.0759 10.3304 4.11026C10.2835 4.15399 10.1711 4.4164 10.0024 4.87872C9.86183 5.26608 9.73688 5.59408 9.72439 5.60658C9.71189 5.61907 9.58694 5.31294 9.44325 4.92246C9.29956 4.53198 9.14962 4.17586 9.11213 4.13213C9.06215 4.07277 8.85911 3.98218 8.32182 3.78538C7.9251 3.63856 7.60023 3.51361 7.60023 3.50424C7.60023 3.49486 7.9251 3.36991 8.32182 3.22309C8.86223 3.02629 9.06215 2.9357 9.11213 2.87635C9.14962 2.83261 9.29956 2.47649 9.44325 2.08602C9.58694 1.69866 9.71189 1.3894 9.72439 1.4019C9.73688 1.41439 9.86183 1.74239 10.0024 2.12975Z" fill="#164194"/>
<path d="M12.469 0.595976C12.3847 0.68032 12.3784 0.70531 12.3784 0.923979V1.16139H12.141C11.9224 1.16139 11.8974 1.16764 11.8162 1.25198C11.6537 1.4113 11.6537 1.59873 11.8162 1.75804C11.8974 1.84239 11.9224 1.84863 12.141 1.84863H12.3784V2.08604C12.3784 2.30471 12.3847 2.3297 12.469 2.41405C12.5471 2.48902 12.5877 2.50464 12.7127 2.50464C12.8439 2.50464 12.8814 2.48902 12.9563 2.41092C13.0376 2.32346 13.05 2.28909 13.0594 2.08292L13.0719 1.84863H13.2906C13.4967 1.84863 13.5155 1.84239 13.6155 1.74242C13.7029 1.65496 13.7217 1.61122 13.7217 1.50501C13.7217 1.3988 13.7029 1.35507 13.6155 1.2676C13.5155 1.16764 13.4967 1.16139 13.2906 1.16139H13.0719L13.0594 0.927103C13.05 0.72093 13.0376 0.686567 12.9563 0.5991C12.8814 0.521004 12.8439 0.505385 12.7127 0.505385C12.5877 0.505385 12.5471 0.521004 12.469 0.595976Z" fill="#164194"/>
<path d="M0.674169 1.05826C0.496115 1.12073 0.24309 1.3519 0.140006 1.5487L0.0556641 1.70801V8.50235V15.2967L0.140006 15.456C0.186862 15.5435 0.296194 15.6809 0.383659 15.759C0.674169 16.0214 0.189986 15.9996 6.03455 15.9996C9.34261 15.9996 11.2793 15.9871 11.3481 15.9683C11.5261 15.9183 11.7417 15.7653 11.8604 15.6028C12.0759 15.3061 12.0665 15.4435 12.0665 12.0198C12.0665 8.68354 12.0728 8.82723 11.9041 8.70853C11.7667 8.61169 11.4855 8.67416 11.4105 8.81161C11.3887 8.85222 11.3793 9.88934 11.3793 11.9136C11.3793 13.9003 11.3668 14.9937 11.3481 15.0687C11.3293 15.1311 11.2793 15.2123 11.2325 15.2498C11.1513 15.3123 11.1419 15.3123 6.05016 15.3123H0.945936L0.845976 15.2217L0.742892 15.1311V8.50548V1.87983L0.830357 1.79548L0.914699 1.70801L4.30398 1.6924L7.69014 1.67678L7.78385 1.58619C7.86507 1.50809 7.88069 1.4706 7.88069 1.3394C7.88069 1.21445 7.86507 1.17384 7.7901 1.09574L7.69951 1.00515L4.25088 1.00828C1.27706 1.00828 0.786625 1.01765 0.674169 1.05826Z" fill="#164194"/>
<path d="M12.535 4.37267C12.4319 4.42266 12.4132 4.45702 12.2039 5.01931L11.9821 5.61284L11.4386 5.81901C10.7513 6.07829 10.792 6.05642 10.7388 6.16263C10.6795 6.27509 10.6795 6.38755 10.7388 6.50313C10.7982 6.61871 10.8138 6.62808 11.4479 6.86237C11.7385 6.9717 11.9821 7.06542 11.9852 7.07167C11.9915 7.07479 12.0821 7.32782 12.1945 7.62771C12.4257 8.2681 12.4819 8.34619 12.7068 8.34619C12.9317 8.34619 12.988 8.2681 13.2191 7.62771C13.3284 7.32782 13.4222 7.07479 13.4284 7.06854C13.4315 7.06542 13.6752 6.96858 13.9688 6.86237C14.6061 6.62496 14.6154 6.61871 14.6748 6.50313C14.7623 6.33444 14.7092 6.1189 14.5592 6.0408C14.5217 6.01894 14.25 5.91585 13.9594 5.80651L13.4315 5.60971L13.2347 5.08179C12.9942 4.43203 12.9817 4.41016 12.8568 4.35706C12.7256 4.30395 12.6662 4.30395 12.535 4.37267ZM12.7849 5.89086C12.863 6.12827 12.8974 6.16263 13.1566 6.25947L13.3566 6.33444L13.1629 6.40629C12.9411 6.49063 12.8443 6.5906 12.7693 6.81551C12.7412 6.89986 12.7131 6.9717 12.7068 6.9717C12.7006 6.9717 12.6725 6.89986 12.6443 6.81551C12.5694 6.5906 12.4725 6.49063 12.2508 6.40941L12.0602 6.33757L12.257 6.26259C12.5131 6.16576 12.5475 6.13139 12.6318 5.89086C12.6725 5.78152 12.7068 5.69093 12.7099 5.69093C12.7131 5.69093 12.7474 5.78152 12.7849 5.89086Z" fill="#164194"/>
<path d="M2.60148 4.838C2.57649 4.84737 2.51713 4.89111 2.47028 4.93484C2.39843 5.00044 2.38281 5.04105 2.38281 5.16913C2.38281 5.29408 2.39843 5.33469 2.4734 5.41279L2.56399 5.50338H3.2231H3.88222V7.24648V8.98958L3.96968 9.07704C4.08526 9.18325 4.2477 9.21137 4.37577 9.14577C4.57257 9.04268 4.56945 9.08329 4.56945 7.20587V5.50338H5.21919H5.86893L5.9564 5.41591C6.06261 5.30033 6.09072 5.13789 6.02512 5.00981C5.92204 4.81301 5.95015 4.81613 4.21959 4.81926C3.3543 4.81926 2.62647 4.82863 2.60148 4.838Z" fill="#164194"/>
<path d="M6.86269 4.87553C6.67214 4.99111 6.64715 5.24726 6.80958 5.41595L6.89392 5.50342H7.38123H7.86854L7.956 5.41595C8.06221 5.30037 8.09032 5.13793 8.02473 5.00985C7.94038 4.84429 7.84042 4.81617 7.37498 4.81617C7.02512 4.81617 6.9439 4.82555 6.86269 4.87553Z" fill="#164194"/>
<path d="M6.80601 6.59065C6.6998 6.70624 6.67169 6.86867 6.73729 6.99675C6.831 7.17793 6.89348 7.19043 7.70878 7.19043C8.49597 7.19043 8.57094 7.17793 8.67402 7.02799C8.77086 6.89054 8.70838 6.6094 8.57094 6.53442C8.53345 6.51568 8.19609 6.50319 7.70253 6.50319H6.89348L6.80601 6.59065Z" fill="#164194"/>
<path d="M5.89429 8.26491C5.80683 8.35238 5.78809 8.39612 5.78809 8.50233C5.78809 8.60854 5.80683 8.65227 5.89429 8.73974L6.0005 8.84595H7.80291H9.60532L9.69279 8.75536C9.85523 8.59604 9.85523 8.40861 9.69279 8.2493L9.60532 8.1587H7.80291H6.0005L5.89429 8.26491Z" fill="#164194"/>
<path d="M2.45485 9.87694C2.40175 9.90818 2.33927 9.96441 2.32366 9.99877C2.24869 10.1393 2.31428 10.4017 2.44236 10.4705C2.48297 10.4923 3.68249 10.5017 6.05968 10.5017H9.61764L9.70511 10.4142C9.81132 10.2987 9.83943 10.1362 9.77383 10.0081C9.66762 9.80197 9.89566 9.81447 6.04718 9.81447C2.6454 9.81447 2.55169 9.81759 2.45485 9.87694Z" fill="#164194"/>
<path d="M2.39527 11.7637C2.30781 11.8512 2.28906 11.8949 2.28906 12.0011C2.28906 12.1073 2.30781 12.151 2.39527 12.2385L2.50148 12.3447H6.0532H9.60492L9.69238 12.2541C9.85482 12.0948 9.85482 11.9074 9.69238 11.7481L9.60492 11.6575H6.0532H2.50148L2.39527 11.7637Z" fill="#164194"/>
</svg>
