<svg width="24" height="24" viewBox="-4 -4 24 24" fill="none" xmlns="http://www.w3.org/2000/svg">
<path d="M13.0005 6.49878C13.0005 7.93315 12.5349 9.25815 11.7505 10.3332L15.7067 14.2925C16.0974 14.6832 16.0974 15.3175 15.7067 15.7082C15.3161 16.0988 14.6817 16.0988 14.2911 15.7082L10.3349 11.7488C9.25986 12.5363 7.93486 12.9988 6.50049 12.9988C2.90986 12.9988 0.000488281 10.0894 0.000488281 6.49878C0.000488281 2.90815 2.90986 -0.0012207 6.50049 -0.0012207C10.0911 -0.0012207 13.0005 2.90815 13.0005 6.49878ZM6.50049 10.9988C7.09144 10.9988 7.6766 10.8824 8.22256 10.6562C8.76853 10.4301 9.2646 10.0986 9.68247 9.68076C10.1003 9.2629 10.4318 8.76682 10.6579 8.22085C10.8841 7.67489 11.0005 7.08973 11.0005 6.49878C11.0005 5.90783 10.8841 5.32267 10.6579 4.7767C10.4318 4.23074 10.1003 3.73466 9.68247 3.3168C9.2646 2.89894 8.76853 2.56747 8.22256 2.34132C7.6766 2.11518 7.09144 1.99878 6.50049 1.99878C5.90954 1.99878 5.32438 2.11518 4.77841 2.34132C4.23245 2.56747 3.73637 2.89894 3.31851 3.3168C2.90064 3.73466 2.56918 4.23074 2.34303 4.7767C2.11688 5.32267 2.00049 5.90783 2.00049 6.49878C2.00049 7.08973 2.11688 7.67489 2.34303 8.22085C2.56918 8.76682 2.90064 9.2629 3.31851 9.68076C3.73637 10.0986 4.23245 10.4301 4.77841 10.6562C5.32438 10.8824 5.90954 10.9988 6.50049 10.9988Z" fill="#164194"/>
</svg>
