<svg width="24" height="24" viewBox="-2 -2 24 24" fill="none" xmlns="http://www.w3.org/2000/svg">
<path d="M19.0093 6.50977C19.1343 6.84961 19.0288 7.22852 18.7593 7.4707L17.0679 9.00977C17.1109 9.33398 17.1343 9.66602 17.1343 10.002C17.1343 10.3379 17.1109 10.6699 17.0679 10.9941L18.7593 12.5332C19.0288 12.7754 19.1343 13.1543 19.0093 13.4941C18.8374 13.959 18.6304 14.4043 18.3921 14.834L18.2085 15.1504C17.9507 15.5801 17.6616 15.9863 17.3452 16.3691C17.1148 16.6504 16.7319 16.7441 16.3882 16.6348L14.2124 15.9434C13.689 16.3457 13.1109 16.6816 12.4937 16.9355L12.0054 19.166C11.9273 19.5215 11.6538 19.8027 11.2944 19.8613C10.7554 19.9512 10.2007 19.998 9.63429 19.998C9.06788 19.998 8.51319 19.9512 7.97413 19.8613C7.61476 19.8027 7.34132 19.5215 7.26319 19.166L6.77491 16.9355C6.15772 16.6816 5.5796 16.3457 5.05616 15.9434L2.88429 16.6387C2.54054 16.748 2.15772 16.6504 1.92726 16.373C1.61085 15.9902 1.32179 15.584 1.06397 15.1543L0.880381 14.8379C0.6421 14.4082 0.435069 13.9629 0.263194 13.498C0.138194 13.1582 0.243662 12.7793 0.513194 12.5371L2.2046 10.998C2.16163 10.6699 2.13819 10.3379 2.13819 10.002C2.13819 9.66602 2.16163 9.33398 2.2046 9.00977L0.513194 7.4707C0.243662 7.22852 0.138194 6.84961 0.263194 6.50977C0.435069 6.04492 0.6421 5.59961 0.880381 5.16992L1.06397 4.85352C1.32179 4.42383 1.61085 4.01758 1.92726 3.63477C2.15772 3.35352 2.54054 3.25977 2.88429 3.36914L5.06007 4.06055C5.58351 3.6582 6.16163 3.32227 6.77882 3.06836L7.2671 0.837891C7.34522 0.482422 7.61866 0.201172 7.97804 0.142578C8.5171 0.0488281 9.07179 0.00195312 9.63819 0.00195312C10.2046 0.00195312 10.7593 0.0488281 11.2984 0.138672C11.6577 0.197266 11.9312 0.478516 12.0093 0.833984L12.4976 3.06445C13.1148 3.31836 13.6929 3.6543 14.2163 4.05664L16.3921 3.36523C16.7358 3.25586 17.1187 3.35352 17.3491 3.63086C17.6655 4.01367 17.9546 4.41992 18.2124 4.84961L18.396 5.16602C18.6343 5.5957 18.8413 6.04102 19.0132 6.50586L19.0093 6.50977ZM9.63819 13.127C10.467 13.127 11.2619 12.7977 11.8479 12.2117C12.434 11.6256 12.7632 10.8308 12.7632 10.002C12.7632 9.17315 12.434 8.3783 11.8479 7.79224C11.2619 7.20619 10.467 6.87695 9.63819 6.87695C8.80939 6.87695 8.01454 7.20619 7.42848 7.79224C6.84243 8.3783 6.51319 9.17315 6.51319 10.002C6.51319 10.8308 6.84243 11.6256 7.42848 12.2117C8.01454 12.7977 8.80939 13.127 9.63819 13.127Z" fill="#164194"/>
</svg>
