<svg width="24" height="20" viewBox="-4 0 24 20" fill="none" xmlns="http://www.w3.org/2000/svg">
<g clip-path="url(#clip0_286_4393)">
<path d="M2.20801 0C1.17285 0 0.333008 0.839844 0.333008 1.875V18.125C0.333008 19.1602 1.17285 20 2.20801 20H5.95801V16.875C5.95801 15.8398 6.79785 15 7.83301 15C8.86816 15 9.70801 15.8398 9.70801 16.875V20H13.458C14.4932 20 15.333 19.1602 15.333 18.125V1.875C15.333 0.839844 14.4932 0 13.458 0H2.20801ZM2.83301 9.375C2.83301 9.03125 3.11426 8.75 3.45801 8.75H4.70801C5.05176 8.75 5.33301 9.03125 5.33301 9.375V10.625C5.33301 10.9688 5.05176 11.25 4.70801 11.25H3.45801C3.11426 11.25 2.83301 10.9688 2.83301 10.625V9.375ZM7.20801 8.75H8.45801C8.80176 8.75 9.08301 9.03125 9.08301 9.375V10.625C9.08301 10.9688 8.80176 11.25 8.45801 11.25H7.20801C6.86426 11.25 6.58301 10.9688 6.58301 10.625V9.375C6.58301 9.03125 6.86426 8.75 7.20801 8.75ZM10.333 9.375C10.333 9.03125 10.6143 8.75 10.958 8.75H12.208C12.5518 8.75 12.833 9.03125 12.833 9.375V10.625C12.833 10.9688 12.5518 11.25 12.208 11.25H10.958C10.6143 11.25 10.333 10.9688 10.333 10.625V9.375ZM3.45801 3.75H4.70801C5.05176 3.75 5.33301 4.03125 5.33301 4.375V5.625C5.33301 5.96875 5.05176 6.25 4.70801 6.25H3.45801C3.11426 6.25 2.83301 5.96875 2.83301 5.625V4.375C2.83301 4.03125 3.11426 3.75 3.45801 3.75ZM6.58301 4.375C6.58301 4.03125 6.86426 3.75 7.20801 3.75H8.45801C8.80176 3.75 9.08301 4.03125 9.08301 4.375V5.625C9.08301 5.96875 8.80176 6.25 8.45801 6.25H7.20801C6.86426 6.25 6.58301 5.96875 6.58301 5.625V4.375ZM10.958 3.75H12.208C12.5518 3.75 12.833 4.03125 12.833 4.375V5.625C12.833 5.96875 12.5518 6.25 12.208 6.25H10.958C10.6143 6.25 10.333 5.96875 10.333 5.625V4.375C10.333 4.03125 10.6143 3.75 10.958 3.75Z" fill="#164194"/>
</g>
<defs>
<clipPath id="clip0_286_4393">
<rect width="15" height="20" fill="white" transform="translate(0.333008)"/>
</clipPath>
</defs>
</svg>
