<svg width="40" height="40" viewBox="0 0 40 40" fill="none" xmlns="http://www.w3.org/2000/svg">
<path d="M16.1253 9.70504C18.2763 8.89543 20.6269 8.77995 22.847 9.37482C23.3805 9.51776 23.9288 9.20118 24.0718 8.66771C24.2147 8.13425 23.8981 7.58591 23.3647 7.44297C20.7409 6.73995 17.9629 6.87642 15.4208 7.83323C12.8786 8.79003 10.7 10.5191 9.1909 12.7776C7.68182 15.0361 6.91809 17.7105 7.00696 20.4254C7.09584 23.1402 8.03285 25.7589 9.68641 27.9139C11.34 30.0689 13.627 31.6517 16.2263 32.4402C18.8256 33.2287 21.6066 33.1832 24.1787 32.3101C26.7508 31.437 28.9848 29.7801 30.567 27.5722C32.1492 25.3643 33 22.7163 33 20C33 19.4477 32.5523 19 32 19C31.4477 19 31 19.4477 31 20C31 22.2984 30.2801 24.539 28.9413 26.4073C27.6026 28.2755 25.7122 29.6774 23.5358 30.4162C21.3594 31.155 19.0063 31.1935 16.8069 30.5263C14.6075 29.8592 12.6723 28.5198 11.2731 26.6964C9.87395 24.873 9.08109 22.6571 9.00589 20.3599C8.93069 18.0628 9.57693 15.7998 10.8538 13.8887C12.1307 11.9777 13.9742 10.5146 16.1253 9.70504Z" fill="#2FBBB3"/>
<path d="M30.7863 11.6178C31.1275 11.1836 31.0521 10.5549 30.6178 10.2137C30.1836 9.87247 29.5549 9.94791 29.2137 10.3822L18.9101 23.4959L14.7071 19.2929C14.3166 18.9024 13.6834 18.9024 13.2929 19.2929C12.9024 19.6834 12.9024 20.3166 13.2929 20.7071L18.2929 25.7071C18.4951 25.9093 18.7742 26.0153 19.0597 25.9982C19.3451 25.9812 19.6096 25.8427 19.7863 25.6178L30.7863 11.6178Z" fill="#2FBBB3"/>
</svg>
