<svg width="24" height="16" viewBox="-3.5 0 24 16" fill="none" xmlns="http://www.w3.org/2000/svg">
<g clip-path="url(#clip0_2001_176)">
<path d="M3.67109 6.3313C3.91172 5.65005 4.30234 5.00942 4.85234 4.46255C6.80547 2.50942 9.97109 2.50942 11.9242 4.46255L12.4586 5.00005H10.8867C10.3336 5.00005 9.88672 5.44692 9.88672 6.00005C9.88672 6.55317 10.3336 7.00005 10.8867 7.00005H14.8711H14.8836C15.4367 7.00005 15.8836 6.55317 15.8836 6.00005V2.00005C15.8836 1.44692 15.4367 1.00005 14.8836 1.00005C14.3305 1.00005 13.8836 1.44692 13.8836 2.00005V3.60005L13.3367 3.05005C10.6023 0.315674 6.17109 0.315674 3.43672 3.05005C2.67422 3.81255 2.12422 4.70942 1.78672 5.6688C1.60234 6.19067 1.87734 6.75942 2.39609 6.9438C2.91484 7.12817 3.48672 6.85317 3.67109 6.33442V6.3313ZM1.60547 9.04067C1.44922 9.08755 1.29922 9.17192 1.17734 9.29692C1.05234 9.42192 0.967969 9.57192 0.924219 9.73442C0.914844 9.77192 0.905469 9.81255 0.899219 9.85317C0.889844 9.9063 0.886719 9.95942 0.886719 10.0125V14C0.886719 14.5532 1.33359 15 1.88672 15C2.43984 15 2.88672 14.5532 2.88672 14V12.4032L3.43672 12.95C6.17109 15.6813 10.6023 15.6813 13.3336 12.95C14.0961 12.1875 14.6492 11.2907 14.9867 10.3344C15.1711 9.81255 14.8961 9.2438 14.3773 9.05942C13.8586 8.87505 13.2867 9.15005 13.1023 9.6688C12.8617 10.35 12.4711 10.9907 11.9211 11.5375C9.96797 13.4907 6.80234 13.4907 4.84922 11.5375L4.84609 11.5344L4.31172 11H5.88672C6.43984 11 6.88672 10.5532 6.88672 10C6.88672 9.44692 6.43984 9.00005 5.88672 9.00005H1.89922C1.84922 9.00005 1.79922 9.00317 1.74922 9.00942C1.69922 9.01567 1.65234 9.02505 1.60547 9.04067Z" fill="#164194"/>
</g>
<defs>
<clipPath id="clip0_2001_176">
<rect width="16" height="16" fill="white" transform="translate(0.386719)"/>
</clipPath>
</defs>
</svg>
