<svg width="24" height="25" viewBox="-2 0 24 25" fill="none" xmlns="http://www.w3.org/2000/svg">
<path d="M9.42561 0.513145C9.03818 0.548101 8.77892 0.618013 8.44975 0.784056C8.19631 0.909317 8.05649 0.990881 8.05649 1.00836C8.05649 1.05206 7.9021 1.18314 7.85257 1.18314C7.79723 1.18314 7.53797 1.25597 7.41562 1.30549C7.31658 1.34627 7.24667 1.3754 7.12432 1.41618C6.82136 1.52688 6.28537 1.81527 6.0028 2.02501C5.61537 2.3134 5.09102 2.84065 4.89585 3.1407C4.88129 3.164 4.82011 3.25722 4.76185 3.3417C4.47638 3.77574 4.24042 4.33504 4.06564 4.99921C4.04525 5.07203 4.01903 5.16234 4.00446 5.20312C3.99281 5.2439 3.97242 5.3546 3.96368 5.45073C3.95203 5.54686 3.93455 5.6896 3.91999 5.77116C3.90542 5.84981 3.8792 6.10907 3.86173 6.34503L3.82677 6.77324L3.62868 7.1665C3.51799 7.38498 3.42186 7.60054 3.41021 7.64715C3.36942 7.83067 3.42186 7.93845 3.66073 8.18897C3.83842 8.3725 3.89086 8.44823 3.89086 8.51232C3.89086 8.55893 3.91707 8.75993 3.94912 8.95801C3.99281 9.24932 3.99864 9.35419 3.97242 9.48236C3.93746 9.67462 3.95786 10.4262 4.00155 10.534C4.01612 10.5747 4.04816 10.665 4.06855 10.7379C4.11516 10.9039 4.30742 11.303 4.40646 11.437C4.49677 11.5564 4.77059 11.8273 4.9075 11.9322C4.97742 11.9847 5.00946 12.04 5.02985 12.1361C5.05898 12.2847 5.11142 12.4711 5.14346 12.5585C5.15511 12.5906 5.18133 12.675 5.20463 12.7479C5.41437 13.4878 5.58041 13.8665 5.90376 14.35C6.12806 14.6821 6.13098 14.6879 6.14554 14.9035C6.15137 15.0229 6.16884 15.2589 6.17758 15.4279C6.19506 15.6696 6.18924 15.7716 6.15137 15.9202C6.0698 16.2318 6.01445 16.2843 5.43476 16.5668C5.11724 16.7212 5.10268 16.7271 4.91042 16.7853C4.72981 16.8378 4.60164 16.8785 4.51716 16.9135C4.4589 16.9368 4.07146 17.0533 3.96368 17.0766C3.93164 17.0854 3.8792 17.1028 3.84716 17.1174C3.81512 17.132 3.68986 17.1757 3.57042 17.2194C3.33447 17.3038 3.29369 17.3184 3.12764 17.3912C3.06938 17.4174 3.01112 17.4378 2.99364 17.4378C2.94704 17.4378 2.34113 17.7437 2.1576 17.8631C1.94787 17.9942 1.39439 18.5477 1.17591 18.8419C0.57583 19.6459 0.281614 20.4528 0.232093 21.4287C0.208789 21.854 0.240832 22.0492 0.371918 22.3055C0.540874 22.6347 1.01278 23.0396 1.49635 23.2639C1.60413 23.3134 1.72356 23.3717 1.76435 23.395C1.80513 23.4154 1.92165 23.462 2.02652 23.494C2.13139 23.529 2.24791 23.5727 2.28869 23.5902C2.43143 23.6513 2.47804 23.6688 2.57999 23.6892C2.63534 23.7009 2.69651 23.7154 2.71108 23.7183C2.72856 23.7242 2.78682 23.7416 2.84217 23.7562C2.89751 23.7708 3.01986 23.8028 3.11599 23.829C3.30242 23.8815 4.07729 24.0446 4.31325 24.0825C4.44142 24.1029 4.6395 24.132 5.31824 24.2281C5.42311 24.2427 5.61828 24.266 5.75519 24.2805C5.89211 24.298 6.05524 24.3155 6.11932 24.3242C6.23002 24.3417 6.52132 24.365 7.48845 24.432C8.83135 24.5282 10.7627 24.5223 12.2658 24.4145C13.029 24.3621 13.3116 24.3388 13.4893 24.3126C13.6029 24.298 13.7602 24.2776 13.8388 24.2718C13.9204 24.2631 14.1098 24.2368 14.2612 24.2135C14.4127 24.1932 14.6166 24.164 14.7128 24.1553C14.8089 24.1436 14.9458 24.1232 15.0186 24.1087C15.0914 24.0941 15.3274 24.0475 15.543 24.0067C15.7585 23.9659 15.9624 23.9281 15.9945 23.9222C16.0615 23.9077 16.4984 23.797 16.6499 23.7562C16.7053 23.7387 16.7723 23.7242 16.7956 23.7183C16.9412 23.6892 17.0315 23.6601 17.0461 23.6397C17.0548 23.6251 17.0869 23.6135 17.1189 23.6135C17.148 23.6135 17.1976 23.6018 17.2267 23.5872C17.2529 23.5698 17.3578 23.5319 17.4568 23.4999C17.9491 23.3367 18.5113 23.0046 18.826 22.6871C19.2221 22.2851 19.3066 22.0084 19.2483 21.2597C19.2279 21.0092 19.2017 20.7616 19.1872 20.715C19.1697 20.6655 19.1464 20.5752 19.1289 20.5111C19.0765 20.3101 19.0066 20.077 18.9803 20.0159C18.6686 19.2876 18.357 18.8215 17.8151 18.2797C17.6462 18.1108 17.4306 17.9243 17.3345 17.8631C17.1539 17.7437 16.5451 17.4378 16.4984 17.4378C16.481 17.4378 16.4227 17.4174 16.3644 17.3912C16.2246 17.3301 16.1838 17.3155 15.9217 17.2223C15.8022 17.1786 15.6799 17.132 15.6537 17.1145C15.6245 17.0999 15.575 17.0883 15.5459 17.0883C15.5138 17.0883 15.4789 17.0737 15.4701 17.0591C15.4614 17.0417 15.4294 17.03 15.4002 17.03C15.3361 17.03 15.0565 16.9485 14.9837 16.9106C14.9545 16.896 14.9108 16.8844 14.8875 16.8844C14.8642 16.8844 14.8205 16.8727 14.7914 16.8581C14.7652 16.8436 14.6691 16.8086 14.5817 16.7824C14.3807 16.7241 14.3778 16.7241 13.9554 16.5173C13.5097 16.2988 13.4368 16.2348 13.3553 15.9901C13.2999 15.8153 13.2941 15.7599 13.3116 15.4745C13.3611 14.6879 13.3669 14.6617 13.498 14.4869C13.8505 14.0179 14.0952 13.4761 14.3224 12.6663C14.337 12.6168 14.3632 12.5236 14.3807 12.4624C14.3952 12.4041 14.4273 12.276 14.4506 12.1798C14.4826 12.04 14.5088 11.9905 14.5846 11.9322C14.9516 11.6497 15.1905 11.338 15.3624 10.9127C15.4148 10.7816 15.4352 10.7262 15.476 10.5922C15.5284 10.4204 15.5575 9.68919 15.5197 9.48819C15.4993 9.37458 15.5022 9.26097 15.5342 9.05123C15.5575 8.89684 15.5838 8.69002 15.5983 8.59097C15.6187 8.4191 15.6245 8.40454 15.8401 8.18024C16.0702 7.94137 16.1197 7.83067 16.079 7.6588C16.0702 7.61511 15.9712 7.39372 15.8605 7.16941L15.6595 6.76159L15.6158 6.25181C15.543 5.40995 15.4818 5.09534 15.2808 4.50399C15.1759 4.19521 15.007 3.80195 14.9254 3.68252C14.8963 3.64174 14.873 3.59513 14.873 3.57765C14.873 3.56309 14.8351 3.49609 14.7856 3.432C14.739 3.365 14.6982 3.298 14.6982 3.28635C14.6982 3.27178 14.672 3.23683 14.6399 3.2077C14.6079 3.17857 14.5817 3.14361 14.5817 3.13196C14.5817 3.11739 14.5555 3.07661 14.5263 3.04165C14.2292 2.68626 14.0923 2.5377 13.9 2.36583C13.6874 2.17649 13.3145 1.88227 13.2825 1.88227C13.2737 1.88227 13.2009 1.83857 13.1164 1.78614C12.9387 1.67253 12.5426 1.48027 12.2949 1.38705C12.1988 1.3521 12.0939 1.31132 12.0619 1.29966C11.9454 1.25305 11.689 1.18314 11.6395 1.18314C11.6104 1.18314 11.5317 1.12488 11.4647 1.05497C11.3599 0.944273 11.0977 0.789883 10.8384 0.687927C10.4597 0.536449 9.91791 0.46945 9.42561 0.513145ZM10.2529 1.44823C10.317 1.46571 10.3986 1.49192 10.4306 1.50357C10.4626 1.51523 10.5296 1.54144 10.5763 1.55892L10.6636 1.59388V3.07078V4.54769L11.1093 4.55643L11.5521 4.56517V3.3417C11.5521 2.12696 11.5609 2.02501 11.6483 2.1124C11.6657 2.12988 11.7036 2.14444 11.7327 2.14444C11.7619 2.14444 11.8085 2.15609 11.8376 2.17066C11.8638 2.18522 11.9192 2.20853 11.9599 2.22601C12.2454 2.34253 12.4027 2.41244 12.426 2.43574C12.4348 2.44448 12.5134 2.48818 12.6008 2.53479C12.6882 2.5814 12.7669 2.62509 12.7756 2.63674C12.7843 2.64548 12.8659 2.70374 12.9591 2.76492C13.1339 2.87852 13.6641 3.39122 13.7748 3.55726C14.1826 4.15443 14.3515 4.50399 14.4943 5.02834C14.5147 5.10117 14.5409 5.19147 14.5525 5.23225C14.6428 5.51481 14.6982 5.94012 14.7244 6.53146L14.7419 6.9422L14.9108 7.2772C15.0011 7.46363 15.0769 7.62385 15.0769 7.63841C15.0769 7.65589 14.6545 8.08993 14.1389 8.60554L13.198 9.54353H9.74604H6.2941L5.3532 8.60554C4.83759 8.08993 4.4152 7.65589 4.4152 7.64132C4.4152 7.62676 4.49094 7.46072 4.58416 7.27428L4.7502 6.93637L4.76768 6.52855C4.7939 5.92846 4.84633 5.55851 4.96868 5.13029C4.98033 5.08077 5.01529 4.96425 5.03859 4.87104C5.09102 4.68752 5.11724 4.62052 5.28328 4.27095C5.62702 3.55143 6.27663 2.86105 6.93497 2.50857C7.0311 2.45905 7.13597 2.40079 7.16801 2.38331C7.34279 2.28427 7.89918 2.08327 7.9254 2.10948C7.93414 2.11822 7.93997 2.67461 7.93997 3.34461V4.56517L8.38566 4.55643L8.82844 4.54769L8.83718 3.06787L8.843 1.58805L8.92457 1.55601C8.96826 1.53853 9.02944 1.51523 9.06148 1.50066C9.2887 1.39871 9.96452 1.36958 10.2529 1.44823ZM5.39107 9.92514C5.65033 10.1873 5.87463 10.3883 5.94454 10.4204C6.05524 10.4728 6.20671 10.4757 9.74022 10.4757C12.9853 10.4757 13.431 10.4699 13.5272 10.432C13.5942 10.4029 13.8097 10.2106 14.0923 9.92805C14.4622 9.56101 14.5584 9.47945 14.5875 9.50858C14.637 9.5581 14.637 10.2368 14.5904 10.4C14.4797 10.7787 14.2554 11.0729 13.9233 11.2768C13.7485 11.3846 13.6903 11.4865 13.6175 11.7924C13.5621 12.0313 13.5184 12.2002 13.4747 12.34C13.4631 12.3808 13.4281 12.4915 13.4019 12.5876C13.3465 12.7886 13.3087 12.9023 13.2562 13.0246C13.2359 13.0712 13.1776 13.211 13.1281 13.3334C13.0378 13.5519 12.8339 13.8839 12.7144 14.0092C12.5192 14.2131 12.5047 14.251 12.4785 14.5976C12.4522 14.9851 12.4173 15.0695 12.1784 15.3346C11.9279 15.6085 11.4123 15.9522 11.2463 15.9522C11.2259 15.9522 11.1996 15.9638 11.1909 15.9784C11.1676 16.0134 10.8064 16.1212 10.5908 16.1561C9.80722 16.2814 8.99739 16.2348 8.41479 16.0308C7.82344 15.824 7.38358 15.4978 7.11849 15.0725C7.08354 15.0171 7.05441 14.8744 7.03401 14.6472C6.99906 14.2889 6.96993 14.216 6.78641 14.015C6.65532 13.8665 6.45723 13.546 6.36402 13.3246C6.3145 13.2081 6.25624 13.0712 6.23584 13.0246C6.21545 12.9751 6.17758 12.8586 6.14845 12.7624C6.11932 12.6663 6.07271 12.5148 6.04358 12.4274C6.01445 12.34 5.95619 12.1157 5.9125 11.9322C5.80472 11.4953 5.74646 11.3875 5.56585 11.2768C5.23959 11.0816 4.99781 10.7466 4.89585 10.3504C4.82303 10.065 4.84633 9.48527 4.93081 9.48527C4.94537 9.48527 5.1522 9.68336 5.39107 9.92514ZM7.26414 16.4707C7.61953 16.6921 8.20796 16.9455 8.47305 16.9921C8.51675 17.0009 8.5517 17.0155 8.5517 17.0271C8.5517 17.0417 7.97201 17.8253 7.92831 17.8661C7.90792 17.8864 6.92041 16.6397 6.92041 16.5901C6.92041 16.5348 7.00197 16.3309 7.02236 16.3309C7.0311 16.3309 7.13888 16.395 7.26414 16.4707ZM12.528 16.4678C12.5688 16.5698 12.5717 16.6135 12.5484 16.6542C12.4785 16.7649 11.5754 17.8777 11.5638 17.8661C11.5143 17.8194 10.9404 17.0388 10.9404 17.0213C10.9404 17.0096 10.9579 17.0009 10.9812 17.0009C11.1472 17.0009 11.992 16.6426 12.2338 16.4678C12.3328 16.3979 12.4319 16.3367 12.4581 16.3338C12.4697 16.3309 12.4989 16.3921 12.528 16.4678ZM6.27371 17.2631C6.30576 17.3155 7.3661 18.6467 7.58749 18.9118C7.62827 18.9614 7.72149 19.0779 7.7914 19.1682C7.86131 19.2585 7.92831 19.3313 7.93997 19.3313C7.95162 19.3313 8.10892 19.1332 8.29244 18.8885C8.47596 18.6438 8.67405 18.3846 8.73231 18.3088L8.84009 18.1719L9.06148 18.3875C9.18092 18.5069 9.27996 18.6147 9.27996 18.6293C9.27996 18.6409 9.25665 18.7021 9.22461 18.7662C9.17218 18.8769 9.11974 18.9934 9.03526 19.1915C8.97409 19.3371 8.79057 19.9372 8.7527 20.1178C8.73522 20.2052 8.70901 20.3043 8.69735 20.3363C8.68279 20.3683 8.66531 20.447 8.65366 20.5111C8.642 20.5752 8.62161 20.6859 8.60705 20.7587C8.51092 21.2423 8.43227 22.0783 8.40896 22.8852L8.39149 23.5406L8.12931 23.5494C7.98657 23.5552 7.7244 23.5465 7.54671 23.529C7.37192 23.5115 7.0311 23.4853 6.78932 23.4678C6.33489 23.4387 5.99115 23.4037 5.59498 23.3513C5.4668 23.3338 5.22502 23.3018 5.05607 23.2785C4.6832 23.2289 4.48803 23.1969 3.96368 23.0891C3.86755 23.0687 3.76851 23.0512 3.7452 23.0483C3.63451 23.0338 3.46264 22.9959 3.41021 22.9726C3.37816 22.958 3.3199 22.9406 3.27912 22.9318C3.23834 22.926 3.14803 22.9027 3.07521 22.8852C3.00238 22.8677 2.92373 22.8473 2.90043 22.8415C2.83343 22.8269 2.34404 22.6638 2.245 22.623C2.19839 22.6026 2.13139 22.5764 2.09934 22.5648C1.95661 22.5065 1.60413 22.3259 1.49052 22.2473C1.32157 22.1307 1.19631 21.9822 1.15261 21.8482C1.11183 21.7258 1.12931 21.2277 1.18465 20.9772C1.307 20.415 1.54587 19.8586 1.83426 19.4682C1.90417 19.375 2.30908 18.9031 2.37899 18.8361C2.60038 18.6205 2.95286 18.4254 3.51216 18.2127C3.71316 18.1341 3.8996 18.0612 3.92581 18.0467C3.95494 18.0321 4.00155 18.0204 4.03068 18.0204C4.05981 18.0204 4.09477 18.0088 4.11225 17.9971C4.12681 17.9826 4.21712 17.9476 4.31325 17.9214C4.40938 17.8923 4.56085 17.8457 4.64824 17.8165C4.73563 17.7874 4.88711 17.7437 4.98324 17.7175C5.07937 17.6884 5.18133 17.6563 5.20755 17.6388C5.23668 17.6243 5.28328 17.6126 5.31241 17.6126C5.34154 17.6126 5.3765 17.601 5.39107 17.5893C5.40854 17.5748 5.51341 17.5281 5.62411 17.4815C5.73772 17.4349 5.90667 17.3563 6.0028 17.3038C6.21545 17.1902 6.22711 17.1902 6.27371 17.2631ZM13.4514 17.2893C13.5359 17.3359 13.7107 17.4174 13.8388 17.4699C13.967 17.5223 14.0835 17.5748 14.101 17.5893C14.1156 17.601 14.1505 17.6126 14.1797 17.6126C14.2088 17.6126 14.2554 17.6243 14.2845 17.6388C14.3108 17.6563 14.4127 17.6884 14.5088 17.7175C14.605 17.7437 14.7565 17.7874 14.8438 17.8165C14.9312 17.8457 15.0827 17.8923 15.1788 17.9214C15.275 17.9476 15.3653 17.9826 15.3798 17.9971C15.3973 18.0088 15.4323 18.0204 15.4614 18.0204C15.4905 18.0204 15.5371 18.0321 15.5663 18.0467C15.5925 18.0641 15.7789 18.137 15.9799 18.2098C16.615 18.4457 16.8218 18.571 17.1947 18.9439C17.3724 19.1216 17.55 19.3138 17.5879 19.3692C17.6258 19.4245 17.7044 19.541 17.7627 19.6314C18.121 20.1703 18.3162 20.7645 18.357 21.4316C18.3803 21.7841 18.3511 21.9035 18.2142 22.0608C18.0802 22.2123 17.6957 22.4483 17.3927 22.5648C17.3607 22.5764 17.2704 22.6143 17.1888 22.6463C17.0607 22.6959 16.6557 22.8269 16.5771 22.8444C16.5625 22.8473 16.4897 22.8648 16.4169 22.8852C16.3441 22.9027 16.2537 22.926 16.213 22.9318C16.1722 22.9406 16.1139 22.958 16.0819 22.9726C16.0061 23.0017 15.7731 23.0542 15.5575 23.0891C15.4614 23.1037 15.3187 23.1299 15.2371 23.1474C14.9749 23.1998 14.7477 23.2377 14.4069 23.2814C14.2234 23.3076 13.9932 23.3367 13.8971 23.3513C13.801 23.3659 13.6437 23.3833 13.5475 23.3921C13.4514 23.4037 13.2621 23.4241 13.1252 23.4387C12.6999 23.4882 11.8755 23.5377 11.4793 23.5406H11.1006L11.0831 22.8852C11.0569 22.0521 10.9957 21.3821 10.8909 20.817C10.8676 20.68 10.8413 20.5286 10.8326 20.482C10.8268 20.4324 10.8093 20.3683 10.7947 20.3363C10.7831 20.3043 10.7569 20.2052 10.7394 20.1178C10.6695 19.7828 10.4626 19.1886 10.2704 18.7691C10.1946 18.6089 10.1859 18.6264 10.4772 18.3671L10.6753 18.1923L11.0744 18.7254C11.2929 19.0196 11.4909 19.2789 11.5113 19.2993C11.5463 19.3371 11.5667 19.3255 11.6599 19.2148C11.7211 19.1449 11.7968 19.0517 11.8289 19.008C11.9366 18.8623 13.2737 17.2048 13.2854 17.2048C13.2912 17.2048 13.3669 17.2427 13.4514 17.2893Z" fill="#164194"/>
</svg>
