<svg width="24" height="25" viewBox="-2 0 24 25" fill="none" xmlns="http://www.w3.org/2000/svg">
<path d="M8.64606 0.586246C7.56291 0.820696 6.68138 1.30835 5.91708 2.10078C5.6076 2.41495 5.57478 2.47121 5.57478 2.63533C5.57478 2.85102 5.66856 2.96355 5.88894 3.00576C6.02492 3.03389 6.07181 3.00107 6.51258 2.58375C7.26281 1.87103 7.96147 1.5006 8.90864 1.30835C9.48069 1.19581 10.4232 1.23801 10.9812 1.40213C12.3081 1.80069 13.4335 2.78537 13.9399 3.99982C14.2025 4.61876 14.3432 5.31742 14.3432 5.9645C14.3432 6.19895 14.3385 6.21301 14.24 6.18957C13.818 6.0911 11.9658 5.77694 11.5063 5.72067C10.2778 5.58 8.80079 5.58938 7.70826 5.7488C7.30032 5.80976 5.34971 6.16143 5.2278 6.19895C5.1434 6.22239 5.13871 6.19895 5.16684 5.71598C5.19966 5.12517 5.28876 4.67034 5.45756 4.2202C5.59823 3.8357 5.6076 3.6669 5.47631 3.53561C5.40598 3.46527 5.33564 3.44652 5.1856 3.4559C4.94177 3.47465 4.83861 3.61063 4.66981 4.15924C4.48225 4.76881 4.44474 5.01264 4.41661 5.77694C4.39785 6.28804 4.37441 6.49435 4.33221 6.49435C4.30407 6.49435 4.14934 6.56 3.9946 6.63502C3.6523 6.80851 3.36159 7.10861 3.19279 7.46966C3.08025 7.70411 3.06618 7.7932 3.06618 8.22927C3.06618 8.67003 3.08025 8.74975 3.19279 8.97951C3.42723 9.45309 3.85862 9.80476 4.35565 9.93137C4.58541 9.99232 4.61354 10.0111 4.62761 10.133C4.68857 10.6675 4.99335 11.6663 5.25593 12.1915C5.59823 12.8714 6.12808 13.5372 6.68138 14.0014L7.02836 14.2827V14.8407C7.02836 15.3002 7.0143 15.4081 6.94865 15.4878C6.89707 15.5488 6.00617 15.9239 4.5901 16.4819C2.22217 17.415 1.90801 17.565 1.54696 17.9636C1.17653 18.3574 0.965524 18.7654 0.670119 19.6375C0.487249 20.1627 0.468493 20.4159 0.595096 20.5284C0.71232 20.6363 1.03586 20.6316 1.12964 20.5238C1.16715 20.4816 1.27969 20.2096 1.37346 19.9283C1.72514 18.9014 2.01585 18.4559 2.53164 18.1558C2.7192 18.0433 4.83861 17.1852 4.92302 17.1852C4.94177 17.1852 4.87144 17.5087 4.77297 17.8979C4.57134 18.7044 4.56196 18.7841 4.66043 19.0561L4.72608 19.2484L4.49163 19.6141C3.81173 20.6504 3.4835 21.7101 3.43192 23.0324L3.40379 23.7498H2.06743H0.731076L0.75921 23.1308C0.777965 22.7885 0.824855 22.3009 0.862367 22.043C0.899879 21.7898 0.918635 21.5319 0.904568 21.4709C0.838922 21.2177 0.510694 21.138 0.29969 21.3209C0.196533 21.4147 0.173088 21.4991 0.107443 21.9211C0.0699309 22.193 0.0277302 22.7604 0.00897427 23.1871C-0.0144706 23.9467 -0.0144706 23.9655 0.0980647 24.1249C0.159021 24.214 0.280935 24.3359 0.365336 24.3922L0.524761 24.5H9.74797H18.9712L19.1306 24.3922C19.215 24.3359 19.3369 24.214 19.3979 24.1249C19.5104 23.9655 19.5104 23.9467 19.487 23.1636C19.4682 22.7229 19.426 22.1555 19.3838 21.8976C19.1212 20.2237 18.5539 18.6341 18.0052 18.0245C17.5551 17.5228 17.541 17.5134 13.9071 16.0833C13.2647 15.8301 12.6786 15.5722 12.6035 15.5112L12.4676 15.394V14.8313V14.264L12.9505 13.8091C13.6398 13.1527 14.104 12.4587 14.4322 11.6053C14.5495 11.3052 14.7464 10.555 14.7886 10.2361C14.8214 10.0064 14.8308 10.0017 15.1403 9.94074C15.5623 9.85634 16.064 9.43902 16.2938 8.99357C16.4204 8.74506 16.4298 8.67941 16.4298 8.22927C16.4298 7.7932 16.4157 7.70411 16.3031 7.46966C16.2375 7.3243 16.0921 7.10861 15.9843 6.99138C15.8014 6.79445 15.3044 6.49435 15.1543 6.49435C15.1075 6.49435 15.0934 6.39588 15.0934 6.07234C15.0934 5.0689 14.9246 4.28116 14.5354 3.46996C13.8743 2.09141 12.6035 1.04108 11.1171 0.647203C10.4794 0.478401 9.27907 0.450266 8.64606 0.586246ZM10.6389 6.40057C11.4548 6.46153 11.5907 6.48028 13.1381 6.76162L14.3478 6.982L14.3338 7.68066L14.3197 8.37932L14.165 8.5153C14.0524 8.61845 13.968 8.65128 13.8321 8.65128C13.6679 8.65128 13.5882 8.60439 13.1475 8.22927C12.5285 7.70411 12.1815 7.46497 11.7455 7.26803C10.2638 6.58813 8.42099 6.71942 7.08932 7.60564C6.93927 7.70411 6.59229 7.98075 6.31095 8.2152C5.86081 8.60439 5.78579 8.65128 5.62167 8.65128C5.481 8.65128 5.3966 8.61845 5.28407 8.5153L5.12933 8.37932V7.68066V6.98669L6.1609 6.78975C8.31314 6.38181 9.23218 6.3021 10.6389 6.40057ZM15.5342 7.68535C15.778 8.07453 15.7498 8.53874 15.4544 8.86697C15.3372 9.00764 15.0184 9.21395 14.9293 9.21395C14.873 9.21395 14.9105 8.82008 14.9855 8.6841C15.0465 8.57156 15.0699 8.37932 15.084 7.91042L15.1028 7.29148L15.2528 7.38057C15.3325 7.43214 15.4591 7.56812 15.5342 7.68535ZM4.35565 7.86353C4.36034 8.23396 4.38378 8.44965 4.43536 8.58094C4.47287 8.6841 4.51976 8.87166 4.52914 8.99357L4.55259 9.21864L4.37441 9.12955C3.868 8.86697 3.66168 8.31367 3.88675 7.81664C3.97584 7.6197 4.22905 7.33837 4.31345 7.33837C4.33689 7.33837 4.35565 7.5775 4.35565 7.86353ZM10.7139 7.71348C11.4126 7.89166 11.9705 8.2152 12.702 8.86228C13.1568 9.27022 13.4335 9.40151 13.818 9.40151C14.104 9.40151 14.1087 9.40151 14.1087 9.52812C14.1087 9.98295 13.8743 10.9536 13.6257 11.5444C13.1709 12.6181 12.1534 13.6825 11.164 14.1233C10.3857 14.4656 9.3916 14.5125 8.60855 14.2405C7.53008 13.8701 6.49382 12.9276 5.94052 11.8163C5.64981 11.2349 5.43411 10.4753 5.34971 9.73912L5.3122 9.40151H5.61698C6.0343 9.39682 6.24062 9.29836 6.78923 8.82477C7.38941 8.31367 7.51133 8.22458 7.89582 8.02764C8.27563 7.84009 8.7539 7.68535 9.16185 7.6197C9.56041 7.55875 10.2731 7.60095 10.7139 7.71348ZM11.8252 15.8066C11.8674 15.891 11.9893 16.0317 12.0971 16.1208L12.2894 16.2896L12.205 16.6413C12.1581 16.8382 12.1018 16.9976 12.0737 16.9976C12.0456 16.9976 11.8908 16.9554 11.7314 16.9039C10.7186 16.5897 9.25094 16.5991 8.13027 16.932C7.90051 16.9976 7.67544 17.0586 7.64262 17.0633C7.59104 17.068 7.55353 16.9508 7.49257 16.6038C7.41755 16.1489 7.41755 16.1349 7.50664 16.0411C7.6942 15.8395 7.75046 15.6707 7.76922 15.2018C7.78798 14.7985 7.79735 14.7469 7.86769 14.7751C8.57572 15.0845 9.15716 15.1924 9.9449 15.1549C10.5404 15.1314 11.1406 14.9955 11.5204 14.7985L11.6939 14.7094L11.722 15.183C11.7361 15.4925 11.7736 15.7129 11.8252 15.8066ZM6.70014 16.4912C6.70014 16.5006 6.73296 16.6835 6.77047 16.9039C6.80798 17.1242 6.8408 17.3353 6.8408 17.3728C6.8408 17.4103 6.68607 17.5369 6.5032 17.6541C6.31564 17.7666 5.99679 17.9964 5.79047 18.1605C5.55603 18.3528 5.42942 18.4278 5.44349 18.3715C5.45756 18.3246 5.54665 17.9589 5.64512 17.5509L5.82799 16.8195L6.22655 16.6554C6.61573 16.4959 6.70014 16.4678 6.70014 16.4912ZM13.4382 16.721C13.6398 16.8007 13.8133 16.871 13.8227 16.8851C13.8321 16.8945 13.9071 17.1852 13.9915 17.5275L14.1415 18.1558L13.7899 17.9026C13.5929 17.7619 13.3022 17.5744 13.1381 17.4853C12.974 17.3915 12.8427 17.3024 12.8427 17.2884C12.838 17.1805 13.0068 16.5756 13.0396 16.5756C13.0584 16.5756 13.2366 16.6413 13.4382 16.721ZM15.792 17.6494C16.9408 18.1089 17.2597 18.2918 17.541 18.6669C17.8552 19.0889 18.296 20.294 18.5117 21.3443C18.6383 21.9586 18.7508 22.9198 18.7508 23.384V23.7498H17.6301H16.5142L16.486 23.0136C16.4532 22.1977 16.3875 21.8132 16.1437 21.0771C15.9468 20.4956 15.6561 19.9283 15.281 19.4031C15.0371 19.0608 15.009 18.9998 15.0324 18.8404C15.0465 18.7279 14.9902 18.409 14.8871 17.9683C14.7183 17.2696 14.7089 17.2321 14.7323 17.2321C14.737 17.2321 15.2153 17.4197 15.792 17.6494ZM11.0984 17.5322C11.8814 17.701 12.6598 18.0433 13.3116 18.5028C13.7664 18.8217 14.3947 19.4547 14.7089 19.9189C15.3935 20.9129 15.7874 22.2212 15.7405 23.3512L15.7264 23.7263L15.2528 23.7404L14.7792 23.7545L14.7511 23.037C14.7323 22.4509 14.7042 22.2446 14.6057 21.907C14.3478 21.0442 13.9821 20.4253 13.3632 19.8063C12.7489 19.1874 12.1206 18.817 11.2719 18.5638C10.7045 18.395 9.63543 18.3528 9.03993 18.4747C8.07869 18.6669 7.29563 19.0842 6.60636 19.7641C5.63574 20.716 5.21373 21.6913 5.16684 23.0558L5.1434 23.7498H4.67919H4.21967L4.18685 23.5763C4.13996 23.3371 4.19623 22.5306 4.29 22.0852C4.65106 20.3315 5.78579 18.8451 7.37535 18.0433C7.87238 17.7948 8.46788 17.5931 8.95084 17.5134C9.14309 17.4853 9.33534 17.4525 9.37285 17.4431C9.54634 17.4009 10.7889 17.4665 11.0984 17.5322ZM10.7655 19.2296C10.9577 19.2671 11.2062 19.3374 11.3141 19.3796L11.511 19.4594L10.9905 21.5928L10.4701 23.7263L9.83237 23.7404C9.25094 23.7498 9.18998 23.7451 9.16653 23.6701C9.11495 23.4919 8.20998 19.7829 8.19592 19.6704C8.17716 19.5719 8.20998 19.5438 8.48194 19.4312C9.12433 19.1593 10.0481 19.0795 10.7655 19.2296ZM12.8239 20.3456C13.0068 20.5284 13.2319 20.791 13.321 20.927L13.4898 21.1755L12.552 22.465L11.6142 23.7498H11.4266C11.2953 23.7498 11.2437 23.731 11.2578 23.6888C11.2719 23.6607 11.4876 22.7745 11.7455 21.7241L12.205 19.8204L12.3503 19.9189C12.4254 19.9705 12.6411 20.1674 12.8239 20.3456ZM8.38816 23.7123C8.38816 23.7357 8.30845 23.7498 8.20998 23.7498H8.0318L7.17372 22.5775L6.31564 21.4006L6.44693 21.1802C6.6298 20.866 7.00023 20.4065 7.25343 20.1815L7.47382 19.9892L7.92865 21.832C8.17716 22.8495 8.38348 23.6935 8.38816 23.7123ZM13.9258 22.329C13.9587 22.4791 13.9868 22.8542 13.9915 23.1636V23.7263L13.2741 23.7404L12.5613 23.7545L13.1803 22.9057C13.5226 22.4415 13.8133 22.0617 13.8321 22.0617C13.8508 22.0617 13.893 22.1836 13.9258 22.329ZM6.59698 23.0933L7.06119 23.7263L6.52195 23.7404C6.12339 23.7498 5.96866 23.7357 5.94052 23.6935C5.89363 23.6232 5.92177 22.5728 5.97803 22.3947C6.01086 22.2821 6.01555 22.2821 6.07181 22.3712C6.10932 22.4181 6.34377 22.7463 6.59698 23.0933Z" fill="#164194"/>
</svg>
