<svg width="24" height="25" viewBox="-1.5 0 24 25" fill="none" xmlns="http://www.w3.org/2000/svg">
<path d="M9.06674 0.509773C8.23442 0.636652 7.06206 0.966536 6.49872 1.23044C5.69177 1.60854 5.12335 2.31399 4.90259 3.20975C4.81885 3.54978 4.60315 5.23981 4.62599 5.38445C4.6336 5.44535 4.68182 5.57223 4.73003 5.66358L4.81631 5.83106L4.77824 5.96301C4.6742 6.31573 4.63614 6.60248 4.62092 7.10999C4.60823 7.51854 4.61584 7.68349 4.64883 7.92709L4.6945 8.23414L4.58285 8.36102C4.31894 8.66299 4.18192 9.01317 4.18192 9.39381C4.18192 9.62219 4.35701 10.7336 4.42045 10.9138C4.54733 11.2792 4.80362 11.566 5.13858 11.7258L5.34666 11.8248L5.54205 12.4084C5.72983 12.9718 5.83895 13.2281 5.97852 13.4463C6.09524 13.6265 6.3287 13.9005 6.47588 14.0274L6.61798 14.1492V14.8521V15.555L6.14092 15.6997C2.83954 16.6969 2.54264 16.7908 2.26351 16.9253C1.46418 17.3136 0.87546 18.0266 0.644541 18.8869C0.532888 19.303 0.525276 19.539 0.532888 21.8609C0.540501 24.028 0.540501 24.0305 0.596328 24.132C0.664842 24.2614 0.768882 24.3604 0.888148 24.4086C0.974426 24.4441 1.79406 24.4492 8.83836 24.4492H16.6921L16.5399 24.2665C16.3521 24.0457 16.2049 23.759 16.144 23.5002L16.0983 23.3073H15.7101H15.3219V20.4906C15.3219 18.9402 15.3295 17.6739 15.3371 17.6739C15.3548 17.6739 15.9816 17.8693 16.0501 17.8947C16.073 17.9023 16.0831 17.8871 16.0806 17.849C16.0806 17.8008 16.0374 17.7627 15.9004 17.6739C15.634 17.5064 15.1874 17.0547 14.9869 16.7477C14.893 16.6081 14.794 16.4406 14.7636 16.3772L14.7052 16.2605L13.543 15.9078L12.3783 15.555V14.8496V14.1467L12.5737 13.9614C12.8249 13.7254 13.038 13.4336 13.1776 13.1469C13.2385 13.02 13.3654 12.6724 13.4593 12.3755L13.6344 11.8324L13.8475 11.7309C14.1267 11.599 14.3576 11.3731 14.4921 11.0991C14.5758 10.9265 14.5986 10.8377 14.7001 10.2363C14.7636 9.86833 14.8143 9.49024 14.8143 9.39888C14.8143 9.05631 14.6697 8.67314 14.4312 8.38639L14.3017 8.22906L14.3424 7.90933C14.4185 7.30031 14.383 6.64816 14.2434 6.08482L14.1774 5.82598L14.2535 5.67373C14.3956 5.39206 14.3956 5.38445 14.2688 4.40748C14.1393 3.41529 14.1038 3.20214 14.0099 2.93062C13.7536 2.18203 13.1751 1.54003 12.4696 1.21775C12.0103 1.00967 10.9395 0.689939 10.2924 0.568136C10.0158 0.517385 9.25959 0.481859 9.06674 0.509773ZM9.9828 1.69989C10.5817 1.8014 11.7388 2.14651 12.0839 2.32667C12.1829 2.37996 12.3199 2.48908 12.4671 2.63626C12.8452 3.01689 12.9467 3.26558 13.0507 4.07252C13.0863 4.34404 13.1192 4.5978 13.1269 4.63586L13.1395 4.70691H9.49559H5.85164L5.86686 4.61049C5.87448 4.55974 5.91 4.29329 5.94553 4.02177C5.98613 3.72487 6.03688 3.45589 6.07241 3.34424C6.22973 2.87733 6.54186 2.51192 6.97324 2.29622C7.14072 2.21248 7.7878 1.99425 8.19128 1.88514C9.0033 1.6669 9.49051 1.61615 9.9828 1.69989ZM12.8097 5.88942C12.8097 5.89704 12.7005 6.11019 12.5661 6.36141C12.3884 6.6913 12.3123 6.8131 12.2844 6.80295C12.2286 6.78011 11.5815 6.66592 11.3506 6.63801C10.3101 6.50605 9.03121 6.49083 7.99842 6.59741C7.60256 6.63801 6.91995 6.74459 6.77024 6.78772C6.66112 6.81817 6.67381 6.8334 6.43528 6.38171C6.33631 6.19393 6.23481 6.00108 6.2069 5.9554L6.15615 5.8742H9.4829C11.3125 5.8742 12.8097 5.88181 12.8097 5.88942ZM5.94299 7.89918C5.9709 7.93217 6.03942 7.98292 6.09017 8.0083C6.26272 8.09711 6.37184 8.09457 6.74486 7.99561C8.33338 7.57945 10.6553 7.57945 12.259 7.99815C12.5838 8.08442 12.6168 8.08696 12.7437 8.05905C12.9061 8.02352 13.0228 7.94232 13.1192 7.79768C13.1801 7.70379 13.1903 7.69617 13.1903 7.74946C13.1903 7.78245 13.1598 7.94232 13.1243 8.10472C13.0533 8.41685 13.0533 8.57417 13.1218 8.70866C13.1421 8.74673 13.2537 8.87107 13.3679 8.98272C13.5963 9.20603 13.6471 9.28216 13.6471 9.40142C13.6471 9.52323 13.472 10.5433 13.4415 10.5992C13.4085 10.6575 13.2715 10.721 13.1725 10.721C13.0786 10.7235 12.8909 10.8098 12.802 10.8935C12.6929 10.995 12.6599 11.0762 12.4036 11.8502C12.2742 12.241 12.1296 12.6343 12.0788 12.7256C11.9164 13.0251 11.6779 13.2255 11.046 13.6036C10.3837 13.9995 10.3406 14.0223 10.0945 14.0985C9.92951 14.1518 9.85339 14.1594 9.51081 14.1594C8.90941 14.1594 8.81298 14.1264 7.92737 13.591C7.34627 13.2408 7.21431 13.1418 7.05191 12.9388C6.89712 12.7409 6.81845 12.5582 6.55708 11.7741C6.37438 11.2209 6.29317 11.0128 6.23735 10.9443C6.15107 10.8402 5.93284 10.721 5.82626 10.721C5.70192 10.721 5.58012 10.655 5.54205 10.5636C5.49638 10.4621 5.3492 9.57905 5.3492 9.40903C5.3492 9.25932 5.38472 9.20095 5.62326 8.98272C5.92015 8.70866 5.97344 8.54372 5.88716 8.19608C5.85925 8.08442 5.82626 7.93471 5.81865 7.86619C5.8085 7.79514 5.79581 7.71647 5.79074 7.68856C5.78312 7.66065 5.80342 7.68349 5.83387 7.73931C5.86433 7.79514 5.91254 7.86873 5.94299 7.89918ZM8.35622 15.149C8.71148 15.2835 8.97031 15.3216 9.49813 15.3216C10.1477 15.3216 10.5055 15.2429 10.9801 14.9942C11.0968 14.9333 11.1958 14.8826 11.2008 14.8826C11.2059 14.8826 11.2135 15.149 11.2161 15.4764L11.2237 16.0702L10.3482 16.5066L9.47275 16.9431L8.61759 16.5168L7.75989 16.0879V15.4738V14.8597L7.97051 14.9714C8.0847 15.0323 8.25979 15.1135 8.35622 15.149ZM12.1245 16.7071C12.1245 16.7426 11.8454 18.189 11.8378 18.1966C11.8327 18.2017 11.5003 18.0317 11.0993 17.8211L10.3711 17.4354L11.1628 17.037C11.9088 16.664 11.9621 16.6437 12.0408 16.6665C12.0864 16.6817 12.1245 16.6995 12.1245 16.7071ZM7.80557 17.0471L8.57445 17.4328L7.84363 17.8185C7.44269 18.0317 7.11027 18.1992 7.1052 18.1941C7.09505 18.1865 6.82099 16.7705 6.82099 16.7299C6.82099 16.7096 6.94533 16.664 6.99862 16.6614C7.01892 16.6614 7.38179 16.8365 7.80557 17.0471ZM12.9112 18.6382V20.1353H9.48544H6.05972L6.06226 18.7067C6.06479 17.9226 6.06987 17.2983 6.07494 17.3186C6.08002 17.3389 6.15361 17.7272 6.23989 18.1814C6.34393 18.7346 6.4099 19.0315 6.44289 19.0873C6.51141 19.199 6.69157 19.2827 6.83114 19.2675C6.9098 19.2573 7.28283 19.0721 8.19382 18.59C8.88403 18.2246 9.45245 17.9226 9.46006 17.92C9.46768 17.9175 10.0437 18.2169 10.739 18.5849C11.5206 18.9985 12.0382 19.2573 12.0991 19.265C12.2286 19.2827 12.3529 19.237 12.4519 19.1355C12.5432 19.0417 12.5686 18.9275 12.8122 17.6054C12.8604 17.3491 12.901 17.141 12.9061 17.141C12.9086 17.141 12.9112 17.8135 12.9112 18.6382ZM5.22232 18.6636V20.1353H4.86706H4.5118V18.7701V17.4075L4.86198 17.3009C5.0523 17.2425 5.21217 17.1943 5.21724 17.1943C5.21978 17.1918 5.22232 17.8541 5.22232 18.6636ZM14.1165 17.3009L14.4718 17.41L14.4794 18.7727L14.4845 20.1353H14.1165H13.7486V18.6636C13.7486 17.8541 13.7511 17.1918 13.7562 17.1918C13.7587 17.1918 13.9211 17.24 14.1165 17.3009ZM3.6744 20.4906V23.3073H2.68475H1.6951V21.4523C1.6951 20.2394 1.70525 19.539 1.72301 19.4198C1.82451 18.7676 2.22545 18.2296 2.82178 17.9505C2.97149 17.8794 3.56275 17.6841 3.64395 17.6764C3.66679 17.6739 3.6744 18.2525 3.6744 20.4906ZM14.4845 22.14V23.3073H13.6344H12.7843V22.7414C12.7843 22.107 12.764 22.0258 12.6041 21.9091L12.5178 21.8482H9.49305C6.47842 21.8482 6.46827 21.8482 6.39975 21.9015C6.2272 22.0309 6.22466 22.0335 6.21705 22.7008L6.20943 23.3073H5.35935H4.5118V22.14V20.9727H9.49813H14.4845V22.14ZM11.9469 22.9901V23.3073H9.49813H7.04937V22.9901V22.6729H9.49813H11.9469V22.9901Z" fill="#164194"/>
<path d="M16.5882 11.9974C16.4614 12.0456 16.2254 12.1801 16.0706 12.2917C14.7384 13.2586 14.3806 15.0831 15.2509 16.4711C15.492 16.8568 15.9234 17.2755 16.299 17.4836L16.4614 17.575L16.469 20.4602C16.4766 23.183 16.4791 23.353 16.5248 23.485C16.6111 23.7438 16.7202 23.924 16.8928 24.094C17.1693 24.368 17.4865 24.5 17.8824 24.5C18.4813 24.5 18.9888 24.1321 19.1969 23.5459L19.2679 23.3454L19.2755 20.4576L19.2831 17.5724L19.4024 17.5115C19.7323 17.344 20.222 16.8924 20.453 16.5447C20.7981 16.0169 20.9605 15.4739 20.963 14.8319C20.963 14.4436 20.9402 14.2787 20.8387 13.9234C20.6204 13.1697 20.0317 12.444 19.3567 12.0938C19.2527 12.0405 19.1309 11.9872 19.0852 11.9771C18.9025 11.939 18.6741 12.0811 18.6208 12.2714C18.6056 12.3197 18.5955 12.7713 18.5955 13.3398V14.3218L18.2351 14.5121L17.8748 14.7024L17.517 14.5147L17.1617 14.3269L17.149 13.2915C17.1364 12.3146 17.1338 12.2511 17.0856 12.1725C16.9866 12.0101 16.7659 11.9314 16.5882 11.9974ZM16.3726 14.7963C16.4284 14.8902 16.5045 14.9359 17.1998 15.3038C17.9078 15.6794 17.8342 15.6794 18.5955 15.2785C19.2984 14.908 19.3237 14.8928 19.3846 14.776C19.4278 14.6897 19.4329 14.6212 19.4329 13.9386L19.4354 13.1951L19.5699 13.3372C19.745 13.525 19.9201 13.827 20.014 14.1086C20.3819 15.21 19.8642 16.3798 18.7883 16.8771C18.6208 16.9533 18.5371 17.0192 18.4787 17.1157C18.466 17.1385 18.4508 18.4682 18.4432 20.1988L18.4305 23.2439L18.3747 23.3454C18.1489 23.7666 17.5957 23.7692 17.3698 23.3479L17.314 23.2439L17.3089 20.2369C17.3038 18.5824 17.2962 17.2045 17.2886 17.174C17.2632 17.07 17.1414 16.9583 16.9537 16.8746C16.3142 16.5828 15.86 16.0423 15.6849 15.3673C15.6087 15.0704 15.5986 14.6415 15.6595 14.3599C15.7382 13.9945 15.9386 13.5961 16.1721 13.3398L16.299 13.2002L16.3116 13.9589C16.3243 14.6441 16.3294 14.7253 16.3726 14.7963Z" fill="#164194"/>
</svg>
