<svg width="24" height="17" viewBox="-1.5 0 24 17" fill="none" xmlns="http://www.w3.org/2000/svg">
<path d="M4.8335 0.5C5.49654 0.5 6.13242 0.763392 6.60126 1.23223C7.0701 1.70107 7.3335 2.33696 7.3335 3C7.3335 3.66304 7.0701 4.29893 6.60126 4.76777C6.13242 5.23661 5.49654 5.5 4.8335 5.5C4.17045 5.5 3.53457 5.23661 3.06573 4.76777C2.59689 4.29893 2.3335 3.66304 2.3335 3C2.3335 2.33696 2.59689 1.70107 3.06573 1.23223C3.53457 0.763392 4.17045 0.5 4.8335 0.5ZM16.3335 0.5C16.9965 0.5 17.6324 0.763392 18.1013 1.23223C18.5701 1.70107 18.8335 2.33696 18.8335 3C18.8335 3.66304 18.5701 4.29893 18.1013 4.76777C17.6324 5.23661 16.9965 5.5 16.3335 5.5C15.6705 5.5 15.0346 5.23661 14.5657 4.76777C14.0969 4.29893 13.8335 3.66304 13.8335 3C13.8335 2.33696 14.0969 1.70107 14.5657 1.23223C15.0346 0.763392 15.6705 0.5 16.3335 0.5ZM0.333496 9.83438C0.333496 7.99375 1.82725 6.5 3.66787 6.5H5.00225C5.49912 6.5 5.971 6.60938 6.396 6.80312C6.35537 7.02812 6.33662 7.2625 6.33662 7.5C6.33662 8.69375 6.86162 9.76562 7.68975 10.5C7.6835 10.5 7.67725 10.5 7.66787 10.5H0.999121C0.633496 10.5 0.333496 10.2 0.333496 9.83438ZM12.9991 10.5C12.9929 10.5 12.9866 10.5 12.9772 10.5C13.8085 9.76562 14.3304 8.69375 14.3304 7.5C14.3304 7.2625 14.3085 7.03125 14.271 6.80312C14.696 6.60625 15.1679 6.5 15.6647 6.5H16.9991C18.8397 6.5 20.3335 7.99375 20.3335 9.83438C20.3335 10.2031 20.0335 10.5 19.6679 10.5H12.9991ZM7.3335 7.5C7.3335 6.70435 7.64957 5.94129 8.21218 5.37868C8.77479 4.81607 9.53785 4.5 10.3335 4.5C11.1291 4.5 11.8922 4.81607 12.4548 5.37868C13.0174 5.94129 13.3335 6.70435 13.3335 7.5C13.3335 8.29565 13.0174 9.05871 12.4548 9.62132C11.8922 10.1839 11.1291 10.5 10.3335 10.5C9.53785 10.5 8.77479 10.1839 8.21218 9.62132C7.64957 9.05871 7.3335 8.29565 7.3335 7.5ZM4.3335 15.6656C4.3335 13.3656 6.19912 11.5 8.49912 11.5H12.1679C14.4679 11.5 16.3335 13.3656 16.3335 15.6656C16.3335 16.125 15.9616 16.5 15.4991 16.5H5.16787C4.7085 16.5 4.3335 16.1281 4.3335 15.6656Z" fill="#164194"/>
</svg>
