<svg width="24" height="18" viewBox="-1.5 0 24 18" fill="none" xmlns="http://www.w3.org/2000/svg">
<path d="M19.0381 4.30762C19.0483 4.30762 19.3289 4.57989 19.6601 4.91113C20.2972 5.5533 20.3815 5.66322 20.458 5.95117C20.5394 6.26447 20.5114 6.58318 20.2949 7.77246C20.1777 8.42482 19.9324 9.84501 19.54 12.1436C19.0686 14.903 18.8649 16.088 18.8369 16.2256C18.7732 16.544 18.5315 16.8547 18.2412 17C17.9125 17.1605 18.5033 17.1504 10.5097 17.1504C2.46483 17.1504 3.07318 17.1633 2.75974 16.9951C2.46938 16.8397 2.29095 16.6152 2.1865 16.2764C2.13042 16.0825 2.01367 15.4168 1.46091 12.1436C0.94616 9.09327 0.652427 7.37245 0.568334 6.94434C0.461388 6.39158 0.479756 6.035 0.624974 5.73438C0.691224 5.59425 0.795102 5.47657 1.33005 4.93652C1.67407 4.58996 1.96537 4.30762 1.97556 4.30762C1.98559 4.31912 1.99607 4.68174 1.99607 5.12305V5.93848H19.0185V5.12305C19.0185 4.68098 19.0256 4.31794 19.0381 4.30762ZM6.42966 8.99609V9.98242C6.42967 10.5277 6.44231 11.05 6.45505 11.1494C6.52388 11.6157 6.88059 11.9701 7.34177 12.0312C7.43605 12.0414 8.88853 12.0512 10.5703 12.0537C13.2376 12.0537 13.6486 12.0487 13.7812 12.0156C14.2119 11.9035 14.4948 11.5877 14.5586 11.1494C14.5713 11.05 14.584 10.5277 14.584 9.98242V8.99609H13.5644V11.0352H7.44919V8.99609H6.42966ZM16.8642 2.89258L17.0049 2.94922C17.2749 3.05879 17.441 3.2221 17.5556 3.49219C17.5962 3.5914 17.6037 3.68927 17.6113 4.26172L17.6191 4.91895H3.39451L3.40232 4.24902C3.40996 3.58956 3.40947 3.5783 3.47556 3.43848C3.51374 3.35957 3.58515 3.24714 3.63865 3.18848C3.73798 3.07895 3.99821 2.93653 4.15622 2.90332C4.20719 2.89313 7.08943 2.88808 10.5576 2.89062L16.8642 2.89258ZM14.8515 0.854492L15.0429 0.946289C15.3536 1.09406 15.5324 1.34349 15.5732 1.69238L15.5927 1.86133H5.40525L5.42283 1.71582C5.47634 1.28773 5.75928 0.965996 6.16697 0.869141C6.22303 0.8564 8.08079 0.84961 10.5576 0.849609L14.8515 0.854492Z" fill="#164194"/>
</svg>
