<svg width="24" height="12" viewBox="-2 0 24 12" fill="none" xmlns="http://www.w3.org/2000/svg">
<path fill-rule="evenodd" clip-rule="evenodd" d="M14.1667 0.126465H5.83333C2.61167 0.126465 0 2.75613 0 5.99999C0 9.24385 2.61167 11.8735 5.83333 11.8735H14.1667C17.3883 11.8735 20 9.24385 20 5.99999C20 2.75613 17.3883 0.126465 14.1667 0.126465ZM1.66667 6C1.66667 3.68296 3.53215 1.80463 5.83333 1.80463H14.1667C16.4679 1.80463 18.3333 3.68296 18.3333 6C18.3333 8.31705 16.4679 10.1954 14.1667 10.1954H5.83333C3.53215 10.1954 1.66667 8.31705 1.66667 6ZM5.83333 9.35626C3.99238 9.35626 2.5 7.85359 2.5 5.99996C2.5 4.14632 3.99238 2.64366 5.83333 2.64366C7.67428 2.64366 9.16667 4.14632 9.16667 5.99996C9.16667 7.85359 7.67428 9.35626 5.83333 9.35626ZM7.5 5.99997C7.5 6.92678 6.75381 7.67812 5.83333 7.67812C4.91286 7.67812 4.16667 6.92678 4.16667 5.99997C4.16667 5.07315 4.91286 4.32182 5.83333 4.32182C6.75381 4.32182 7.5 5.07315 7.5 5.99997Z" fill="#164194"/>
</svg>
