<svg width="24" height="12" viewBox="-2 0 24 12" fill="none" xmlns="http://www.w3.org/2000/svg">
<path fill-rule="evenodd" clip-rule="evenodd" d="M5.83333 0.126465H14.1667C17.3883 0.126465 20 2.75613 20 5.99999C20 9.24385 17.3883 11.8735 14.1667 11.8735H5.83333C2.61167 11.8735 0 9.24385 0 5.99999C0 2.75613 2.61167 0.126465 5.83333 0.126465ZM18.3333 6C18.3333 3.68296 16.4679 1.80463 14.1667 1.80463H5.83333C3.53215 1.80463 1.66667 3.68296 1.66667 6C1.66667 8.31705 3.53215 10.1954 5.83333 10.1954H14.1667C16.4679 10.1954 18.3333 8.31705 18.3333 6ZM14.1667 9.35626C16.0076 9.35626 17.5 7.85359 17.5 5.99996C17.5 4.14632 16.0076 2.64366 14.1667 2.64366C12.3257 2.64366 10.8333 4.14632 10.8333 5.99996C10.8333 7.85359 12.3257 9.35626 14.1667 9.35626ZM12.5 5.99997C12.5 6.92678 13.2462 7.67812 14.1667 7.67812C15.0871 7.67812 15.8333 6.92678 15.8333 5.99997C15.8333 5.07315 15.0871 4.32182 14.1667 4.32182C13.2462 4.32182 12.5 5.07315 12.5 5.99997Z" fill="#164194"/>
</svg>
