<svg width="24" height="14" viewBox="-5.5 0 24 14" fill="none" xmlns="http://www.w3.org/2000/svg">
<path d="M4.44687 0.483984L4.25 0.875H1.625C1.14102 0.875 0.75 1.26602 0.75 1.75C0.75 2.23398 1.14102 2.625 1.625 2.625H12.125C12.609 2.625 13 2.23398 13 1.75C13 1.26602 12.609 0.875 12.125 0.875H9.5L9.30312 0.483984C9.15547 0.185938 8.85195 0 8.52109 0H5.22891C4.89805 0 4.59453 0.185938 4.44687 0.483984ZM12.125 3.5H1.625L2.20469 12.7695C2.24844 13.4613 2.82266 14 3.51445 14H10.2355C10.9273 14 11.5016 13.4613 11.5453 12.7695L12.125 3.5Z" fill="#164194"/>
</svg>
