<svg width="32" height="32" viewBox="0 0 32 32" fill="none" xmlns="http://www.w3.org/2000/svg">
<g clip-path="url(#clip0_286_3776)">
<mask id="mask0_286_3776" style="mask-type:luminance" maskUnits="userSpaceOnUse" x="0" y="0" width="32" height="32">
<path d="M32 0H0V32H32V0Z" fill="white"/>
</mask>
<g mask="url(#mask0_286_3776)">
<path d="M23.8164 28.576C20.1761 39.4751 10.466 42.8365 5.33203 29.3026C4.62377 27.442 6.46964 26.7521 7.76139 25.9301C8.64579 25.3687 9.11185 24.8843 9.0568 24.3815C8.79992 22.0182 7.70267 15.4347 7.70267 15.4347L7.59258 15.2219C7.59258 15.2219 7.61827 15.1631 7.51185 15.2659C7.40175 15.376 7.14854 16.5209 6.15405 16.5209C5.25497 16.5209 4.34854 16.1209 3.91552 13.354C3.75038 12.3521 3.83845 9.72462 4.95405 9.24755C5.41276 9.05306 5.83478 8.98333 6.24579 9.21819C6.66047 9.45306 5.76873 8.41086 10.3559 4.59434C13.3357 2.10627 18.044 1.74297 19.9449 2.16498C21.8458 2.587 23.743 3.51544 24.5834 5.48608C25.6036 7.87141 23.6329 9.68058 24.0696 15.1191C23.9889 17.0861 24.099 21.4017 18.6898 22.8476C17.6623 23.1228 17.9816 24.6237 19.5229 24.9907C21.9816 25.7613 23.8164 27.6439 23.8164 28.5833" fill="white"/>
<path fill-rule="evenodd" clip-rule="evenodd" d="M23.8165 11.6403L23.8202 11.5889C23.9706 10.2531 24.1211 8.95774 24.8147 7.79443C25.0532 7.9559 25.0238 8.16141 24.9504 8.35223C24.2202 10.2311 24.2899 12.1834 24.3559 14.1357L24.3706 14.6495C24.4477 17.0862 23.8385 19.3027 22.2165 21.1632C21.6514 21.8091 20.9027 22.2568 20.1431 22.6421C19.3578 23.0458 19.1926 23.3798 19.4385 24.2421L19.4679 24.3376C19.5192 24.4807 19.5706 24.6275 19.4312 24.7706C19.266 24.9394 19.0825 24.8917 18.888 24.8366L18.866 24.833C17.0465 24.3235 15.3404 23.4729 13.8385 22.3265C13.6183 22.1651 13.4422 21.9486 13.2697 21.7357L13.2587 21.721C13.1669 21.6109 13.1486 21.4348 13.277 21.3394C13.3981 21.2476 13.4899 21.321 13.5963 21.4054L13.633 21.4385C14.4343 22.0887 15.4069 22.4927 16.433 22.6018C16.9247 22.6531 17.4091 22.6348 17.9009 22.6165C18.1725 22.6054 18.444 22.5944 18.7192 22.5981C19.0936 22.5981 19.4055 22.4256 19.6991 22.2605L19.8018 22.2018C20.822 21.633 21.7945 20.9981 22.4514 19.9742C23.0422 19.0568 23.4018 18.0587 23.611 17.0054C23.8752 15.6807 23.8532 14.3376 23.8312 12.9761C23.8202 12.5357 23.8128 12.088 23.8128 11.6403H23.8165ZM5.34309 8.87333C6.14676 8.81095 6.5908 9.28434 6.96878 9.83847C7.41676 10.5155 7.69842 11.2888 7.7908 12.0954C7.80915 12.2311 7.8275 12.3742 7.74676 12.51C7.58163 12.532 7.56695 12.3999 7.56328 12.3045C7.54493 11.5449 7.20731 10.8843 6.8697 10.2458C6.6275 9.78709 6.2752 9.34306 5.71741 9.23297C5.08621 9.10453 4.5064 9.67333 4.22016 10.4146C3.68805 11.7944 3.77979 13.1522 4.27153 14.488C4.48438 15.0715 4.75227 15.666 5.29172 16.0733C5.83484 16.488 6.49172 16.4146 6.89172 15.8642L6.96511 15.7724C7.03851 15.677 7.1119 15.5853 7.1486 15.4788C7.22566 15.266 7.34676 15.0678 7.56328 15.0972C7.81282 15.1339 7.85686 15.4018 7.88254 15.6109C8.1102 17.5334 8.37937 19.4506 8.68988 21.3614L8.9064 22.7853C9.00181 23.4128 9.1119 24.3155 9.03851 24.6972C9.03377 24.7239 9.0301 24.7509 9.0275 24.7779C9.01282 24.8807 9.00548 24.9614 8.87337 24.9798C8.69355 25.0091 8.61649 24.9064 8.5908 24.7449C8.5064 24.121 8.48071 23.8788 8.44401 22.9247C8.41098 21.9999 8.23851 21.0898 8.06236 20.1761L7.87887 19.1853C7.68805 18.055 7.50089 16.91 7.48254 15.6256L7.40915 15.7357C7.13025 16.1504 6.9064 16.488 6.51007 16.6165C6.21586 16.7292 5.89345 16.7455 5.58937 16.663C5.2853 16.5806 5.01529 16.4036 4.81832 16.1577C4.30121 15.5737 3.93796 14.8699 3.76144 14.11C3.45319 12.8623 3.39814 11.6476 3.79447 10.4183C3.9853 9.82746 4.66419 8.77792 5.34309 8.877V8.87333ZM6.61282 13.5522C6.77429 13.6697 6.92108 13.7724 7.05319 13.3541C7.01282 11.8054 6.51374 10.8146 5.73942 10.7743C6.15043 11.31 6.54676 11.8311 6.58346 12.5541C6.43076 12.4761 6.29679 12.3659 6.1908 12.2311C6.11741 12.1504 6.04401 12.0697 5.95227 12.0109L5.84218 11.9229C5.66603 11.7908 5.48621 11.6513 5.18897 11.7577C5.32842 11.9706 5.51924 12.1247 5.71374 12.2715C5.93392 12.444 6.1541 12.6128 6.28621 12.877C5.89722 13.1596 5.72842 13.5265 5.93025 13.9742C6.1064 14.3596 6.36695 14.6788 6.88071 14.7009C6.85869 14.4697 6.70823 14.3009 6.55777 14.1357C6.37429 13.9376 6.20181 13.7467 6.28254 13.4531C6.39997 13.3981 6.51007 13.4788 6.61282 13.5522Z" fill="#343A40"/>
<path d="M38.7299 48.4035L-9.1123 48.275C-9.1123 48.275 -7.39854 37.1154 -2.8224 31.9448C-0.771019 29.6292 0.935402 27.3429 5.51889 25.6989C6.30421 25.4163 7.46751 22.4695 8.09137 22.1613C8.68219 21.8677 8.2932 24.0769 8.83999 24.5246C9.95496 25.4549 11.132 26.3083 12.3629 27.0787C14.5244 28.4439 15.5189 31.2952 15.5189 31.2952C15.5189 31.2952 16.4877 28.5466 17.295 27.1961C17.8638 26.242 19.7648 23.4383 19.7648 23.4383C19.7648 23.4383 23.24 24.5246 24.5281 25.4824C25.3097 26.0622 24.851 25.9338 28.396 27.9594C31.4749 29.7172 34.495 34.5319 36.1024 38.5283C37.8125 42.7778 38.7299 48.3998 38.7299 48.3998V48.4035Z" fill="white"/>
<path fill-rule="evenodd" clip-rule="evenodd" d="M38.4952 48.4035C38.2493 47.4127 38.0365 46.4219 37.8236 45.4274C37.7319 44.987 37.6401 44.5466 37.541 44.1136C37.2401 42.7558 36.8438 41.4347 36.4071 40.1209C35.9863 38.8429 35.4711 37.5979 34.8658 36.3962C34.2645 35.1691 33.5778 33.9858 32.8108 32.8549C31.7098 31.2659 30.5135 29.754 28.9282 28.62C27.7759 27.798 26.4988 27.1815 25.2254 26.5686C24.7741 26.3485 24.3117 26.4512 23.8603 26.5503L23.7135 26.587C23.3502 26.6604 22.9943 26.7411 22.6346 26.8219C22.2037 26.92 21.7719 27.0142 21.3392 27.1044C21.1521 27.1411 21.0823 27.2512 21.0273 27.4053L20.8071 28.0475C20.6566 28.4953 20.5025 28.943 20.3631 29.3943C20.2676 29.6953 20.1062 29.8274 19.7869 29.82C19.5154 29.8164 19.2438 29.82 18.9722 29.8274C18.6787 29.831 18.3887 29.8384 18.0988 29.831C17.5851 29.82 17.3319 30.0035 17.3943 30.62C17.464 31.2806 17.4603 31.9448 17.4603 32.6127C17.4603 33.0053 17.4603 33.398 17.4713 33.7943C17.508 34.8035 17.508 35.8237 17.4897 36.8292C17.453 38.7118 17.453 40.5943 17.453 42.4806C17.4566 44.4329 17.4603 46.3888 17.4163 48.3595C17.2752 48.4008 17.1256 48.4033 16.9832 48.3668C16.9355 46.3815 16.9135 44.4292 16.9245 42.4769C16.9319 41.3099 16.9245 40.1393 16.9209 38.9686C16.9062 36.6237 16.8952 34.2787 16.9869 31.9338C16.9943 31.8053 16.9502 31.6879 16.8071 31.6842C16.7234 31.7779 16.639 31.8709 16.5539 31.9631C16.0842 32.4769 15.6218 32.9833 15.4016 33.7209C15.097 33.3686 14.9722 32.9576 14.8475 32.565C14.7117 32.1283 14.5796 31.7099 14.2236 31.3943C14.1502 31.6072 14.1502 31.8017 14.1502 31.9998V33.2109L14.1576 35.743L14.1539 38.8402C14.1502 41.0787 14.1465 43.3136 14.1539 45.5485C14.1576 45.82 14.1539 46.0916 14.1429 46.3595C14.1282 47.042 14.1098 47.7246 14.2163 48.3998H13.6952C13.647 47.6363 13.6238 46.8713 13.6254 46.1063V31.4641C13.6254 30.5833 13.3429 30.3338 12.5025 30.1063C11.108 29.7393 9.70618 29.3393 8.63462 28.2824C8.23829 27.8934 7.8126 28.0879 7.46031 28.2457L7.41627 28.2677C7.10068 28.4145 6.77407 28.5209 6.44746 28.6274C6.0071 28.7742 5.56673 28.9209 5.15939 29.1521C5.07499 29.1962 4.99792 29.2475 4.91719 29.2989C4.76437 29.402 4.60219 29.4905 4.43279 29.5631L4.35205 29.5998C4.24196 29.6512 4.13554 29.6989 4.01077 29.5815C3.87132 29.4567 3.87499 29.3246 3.93737 29.1595L4.14655 28.532C4.33003 27.9742 4.51352 27.42 4.75572 26.8806L4.79242 26.8072C4.84379 26.7228 4.8915 26.6384 4.84379 26.5246C4.69701 26.4255 4.56122 26.4989 4.44012 26.565L4.37407 26.6017L4.29334 26.6384L4.21994 26.6751C2.66398 27.4567 1.10801 28.2384 -0.176389 29.4641C-1.09222 30.3233 -1.93888 31.2534 -2.7085 32.2457C-4.18717 34.21 -5.39322 36.3653 -6.29382 38.6531C-7.15988 40.8109 -7.9085 43.02 -8.28648 45.332C-8.35987 45.7576 -8.42593 46.1833 -8.49565 46.6127L-8.78556 48.3631C-8.9874 48.3998 -9.18189 48.3998 -9.41309 48.3998C-9.24428 47.1888 -9.04978 45.9778 -8.81859 44.7705C-8.73419 44.3338 -8.6241 43.9044 -8.51033 43.4751C-8.44428 43.2109 -8.37455 42.9503 -8.31584 42.6861C-8.10772 41.8597 -7.8591 41.044 -7.57088 40.242L-7.53419 40.143C-6.77153 37.8386 -5.73669 35.6334 -4.45162 33.5742C-3.8316 32.5867 -3.13203 31.6515 -2.35988 30.7778C-0.96538 29.1888 0.575904 27.7686 2.50985 26.8769C3.55939 26.3925 4.53554 25.8127 5.50434 25.1962C5.77957 25.02 5.90801 24.7668 6.04012 24.5136C6.0915 24.4219 6.13921 24.3264 6.19792 24.2347C6.73737 23.3723 7.29884 22.532 8.14655 21.9301L8.20526 21.8861C8.31168 21.8017 8.41444 21.7246 8.56122 21.8127C8.69333 21.8861 8.686 21.9998 8.68233 22.1209V22.2237C8.70434 22.8329 8.75572 23.4384 8.8071 24.0439C8.82545 24.2384 8.90618 24.4109 9.10068 24.4989C9.92269 24.8769 10.6236 25.4274 11.3245 25.9815C11.7465 26.3118 12.1686 26.642 12.6163 26.9356C13.6958 27.6211 14.5905 28.5611 15.2218 29.6732C15.2952 29.8053 15.3502 29.9448 15.4126 30.1063L15.508 30.3485C15.8493 28.9723 16.5832 27.8457 17.3172 26.7264L17.7465 26.0659C17.8199 25.9485 17.8787 25.8237 17.9374 25.6989C18.0181 25.5301 18.0988 25.3613 18.2236 25.2072C18.3139 25.0973 18.3703 24.9635 18.3859 24.8221C18.4015 24.6807 18.3757 24.5378 18.3117 24.4109C18.2309 24.2384 18.1869 24.0586 18.2566 23.8714C18.5686 23.776 18.7337 23.9558 18.9098 24.143L18.9465 24.1797C19.2768 23.9668 19.2401 23.6916 19.0676 23.398C19.0089 23.2953 18.9576 23.1962 19.0456 23.0971C19.13 23.0053 19.2438 23.0164 19.3539 23.0494C20.7154 23.442 22.0695 23.8567 23.3245 24.5393C23.497 24.6347 23.6768 24.7228 23.8566 24.8072C24.3447 25.042 24.8328 25.2769 25.1887 25.6696C25.7539 26.2934 26.4768 26.631 27.1998 26.9686C27.6328 27.1742 28.0621 27.3723 28.4621 27.6365C29.3594 28.1965 30.1893 28.8577 30.9355 29.6072C31.7796 30.4989 32.5686 31.442 33.2548 32.4549C33.8566 33.3356 34.4291 34.2384 34.9282 35.1888C35.608 36.4832 36.1965 37.8235 36.6897 39.1998C37.1484 40.4732 37.541 41.765 37.8897 43.0714C38.1392 44.0182 38.3007 44.9797 38.4585 45.9448C38.5942 46.7521 38.7264 47.5595 38.9135 48.3668C38.7961 48.4035 38.6676 48.4035 38.4952 48.4035ZM14.5576 29.5118C13.7102 28.4965 12.7172 27.6123 11.6108 26.8879C11.2795 26.6692 10.9621 26.4302 10.6603 26.1723C10.2199 25.8127 9.77957 25.4494 9.25847 25.2109C8.64196 24.932 8.31168 24.5356 8.28967 23.8714V23.7833C8.286 23.6402 8.28233 23.4971 8.26398 23.3576C8.23462 23.0787 7.90801 22.932 7.73554 23.1411C7.67682 23.2145 7.6071 23.2732 7.54104 23.3356C7.44435 23.4152 7.35913 23.5079 7.28783 23.6109C6.44379 24.954 5.6071 26.2971 4.99792 27.7686C4.91719 27.9668 4.86214 28.2274 5.03095 28.3888C5.16673 28.5209 5.33921 28.4512 5.50801 28.3815C5.53718 28.3688 5.56654 28.3566 5.59609 28.3448L6.31168 28.0732C6.79242 27.8824 7.27682 27.6953 7.77223 27.5448C8.297 27.387 8.697 27.4787 9.06765 27.8934C9.46013 28.3111 9.94008 28.6369 10.4732 28.8475C11.0566 29.1044 11.6548 29.2989 12.253 29.4971C12.7741 29.6696 13.2952 29.842 13.8053 30.0512C14.4328 30.3081 15.0163 30.642 15.0089 31.4641C15.0089 31.5925 15.0383 31.7209 15.2511 31.7026C15.3576 31.409 15.3576 31.1154 15.2108 30.8219L15.0199 30.4329C14.8732 30.1393 14.7264 29.8384 14.5576 29.5118ZM21.2108 24.1943L21.541 24.3118L23.1741 25.0641C23.4702 25.1985 23.7662 25.333 24.0621 25.4677C24.1796 25.5228 24.308 25.5778 24.308 25.7283C24.308 25.8898 24.1796 25.9118 24.0621 25.9338L23.9961 25.9485C23.8184 25.9912 23.641 26.0352 23.464 26.0806C23.0089 26.1943 22.5539 26.3081 22.0878 26.3778C21.1117 26.5246 20.5832 26.9173 20.3154 27.8567C20.2823 27.9742 20.242 28.0916 20.1979 28.2053C20.1392 28.3705 20.0842 28.5356 20.0511 28.6971C19.9594 29.1375 19.6768 29.1815 19.3355 29.2109L18.686 29.2842C18.33 29.3209 17.9741 29.365 17.6144 29.387C17.3209 29.4053 17.1521 29.5558 17.042 29.7907C16.9576 29.9668 16.8621 30.1356 16.7704 30.3044C16.5943 30.6237 16.4144 30.943 16.308 31.2953C16.2566 31.4567 16.1832 31.6989 15.8787 31.6916C15.9521 30.8109 16.1722 29.9558 16.5209 29.1485C16.7594 28.598 17.0933 28.1099 17.4273 27.6255C17.7062 27.2145 17.9851 26.8035 18.2089 26.3631C18.6199 25.5375 19.2218 24.8806 19.8309 24.2237L20.0218 24.0145C20.1502 23.8714 20.2383 23.831 20.4108 23.8971C20.6787 24.0072 20.9465 24.1026 21.2181 24.198L21.2108 24.1943Z" fill="#343A40"/>
<path fill-rule="evenodd" clip-rule="evenodd" d="M23.9997 34.5467C23.7868 33.2476 23.8162 32.0146 24.4144 30.7632C25.4822 31.9669 25.4566 33.3687 25.4345 34.7375L25.4272 35.3136C25.6107 35.3834 25.7098 35.3173 25.7978 35.2586L25.8859 35.2072C26.3446 35.0054 26.4841 35.0898 26.5611 35.5999C26.7006 36.5247 26.7079 37.4604 26.7153 38.3925L26.7189 38.7962C26.7189 39.0494 26.5832 39.2329 26.407 39.3503C25.9355 39.7001 25.509 40.1069 25.1373 40.5613C24.8951 40.8292 24.6529 41.1008 24.3887 41.3467C24.0254 41.6769 23.4089 41.787 23.0089 41.4824L22.6235 41.1925C22.0437 40.7595 21.4676 40.3302 20.9171 39.8568C20.6513 39.6517 20.4482 39.3763 20.3308 39.0617C20.2134 38.7472 20.1864 38.406 20.2529 38.0769C20.3153 37.6953 20.3483 37.3063 20.3813 36.9136C20.4107 36.6054 20.4364 36.2971 20.4767 35.9889C20.5795 35.2292 20.7226 35.1412 21.4125 35.4421C21.4749 35.4678 21.5373 35.4861 21.5997 35.5008C21.7648 35.5448 21.9373 35.5925 22.0878 35.7944L22.1611 35.2439C22.2199 34.8036 22.2749 34.3962 22.2712 33.9815V33.9595C22.2712 33.9008 22.2712 33.8274 22.2419 33.8054C21.5813 33.3577 21.7024 32.7705 21.996 32.2017L22.0327 32.1283C22.2491 31.7709 22.3971 31.3765 22.4694 30.965C22.4694 30.921 22.5098 30.8806 22.5428 30.8402L22.5868 30.7889L22.6419 30.7999L22.6969 30.8146C22.752 31.1962 22.9538 31.5008 23.152 31.8091C23.3208 32.0696 23.4896 32.3302 23.574 32.6347C23.6694 32.998 23.6107 33.3026 23.3501 33.5338C23.0933 33.765 23.0566 34.0329 23.0933 34.3412L23.1189 34.5613C23.141 34.7338 23.163 34.91 23.1703 35.0861C23.2034 35.7357 23.3024 35.8164 24.0107 35.688C24.0804 35.321 24.0584 34.954 23.9997 34.5467ZM25.0749 39.7577C25.1116 39.721 25.1556 39.688 25.196 39.6549C25.283 39.5769 25.3749 39.5046 25.4712 39.4384C25.985 39.1081 26.2345 38.6824 26.1465 38.0329C26.0988 37.6769 26.1098 37.3173 26.1098 36.954C26.1171 36.7669 26.1171 36.5797 26.1134 36.3925V36.3045C26.1134 36.1357 26.1134 35.9632 25.9667 35.8274C25.7978 35.8641 25.64 35.9375 25.4859 36.0109C25.2657 36.11 25.0456 36.2091 24.807 36.2091C24.5355 36.2091 24.2639 36.2164 23.9923 36.2274C23.1263 36.2568 22.2602 36.2898 21.4272 35.9412C21.141 35.8201 21.0272 35.9118 21.0125 36.2127C20.9758 36.9467 20.8841 37.6733 20.752 38.3925L20.7483 38.4072C20.7043 38.6384 20.6566 38.91 20.8804 39.0971C21.6742 39.7476 22.4718 40.3935 23.2731 41.0347C23.5593 41.2696 23.8529 41.2182 24.0474 40.9393C24.2032 40.7317 24.3736 40.5354 24.5575 40.3522C24.73 40.1687 24.9098 39.9779 25.0712 39.7577H25.0749ZM24.33 32.8696C24.374 32.8916 24.4217 32.9173 24.4694 32.899L24.9098 32.8439C24.6162 33.1448 24.4364 33.1485 24.1355 32.8733C24.2052 32.8036 24.2676 32.8366 24.33 32.8696Z" fill="#343A40"/>
<path d="M24.642 1.8274C25.1925 3.28796 25.6989 4.38887 25.6035 5.92649C25.5668 6.49162 25.1558 7.38337 25.0163 7.92649C24.8218 8.67511 24.4145 9.36135 24.3668 10.154C24.3595 10.2531 24.2861 10.3191 24.1173 10.3522C23.831 9.97786 23.7943 9.5008 23.7796 9.06043C23.7356 7.68429 23.6695 6.31548 23.3613 4.97236C23.2732 4.59438 23.1301 4.23474 22.9796 3.77236C22.8439 5.02007 22.8439 5.01273 21.7099 5.03107C19.6695 5.06777 17.6365 5.18887 15.6182 5.48245C15.042 5.56685 14.9943 5.53016 14.598 4.79254C14.1943 5.0641 14.2053 5.54851 14.0035 5.91548C13.3906 7.04942 12.6017 8.01089 11.4347 8.62741C11.031 8.84025 10.209 8.81089 9.27689 8.56502C8.92826 9.67695 8.08423 10.6421 8.38147 11.9485C8.43252 12.1626 8.43598 12.3853 8.3916 12.6009C8.34721 12.8165 8.25607 13.0197 8.12459 13.1962C7.98514 13.3944 7.83102 13.4274 7.64019 13.3687C7.44569 13.31 7.53744 13.1522 7.54111 13.0164C7.55946 11.8201 7.26955 10.6861 6.59065 9.70263C5.9668 8.79254 4.49524 9.02007 4.02551 10.0476C3.94111 10.2384 3.90074 10.4659 3.60349 10.6494C3.54845 9.97786 3.53744 9.36502 3.60716 8.75952C3.74765 7.34938 4.05563 5.961 4.52459 4.62374C5.21445 2.67904 6.42399 0.960546 8.02184 -0.345072C9.72219 -1.71598 11.7912 -2.55126 13.9668 -2.74507C14.4072 -2.79278 14.8439 -2.87718 15.2842 -2.92122C16.8301 -3.07051 18.3899 -2.87241 19.8494 -2.3414C21.8237 -1.64415 23.5264 -0.572595 24.4182 1.4274C24.4732 1.55585 24.554 1.67328 24.642 1.8274ZM7.18147 14.7925C7.32826 14.7522 7.43102 14.7595 7.47505 14.899C7.79065 15.787 7.80533 16.7118 7.76129 17.6329C7.74294 17.9852 7.15946 18.4109 6.67138 18.4769C6.20533 18.5357 5.7723 18.4733 5.49707 18.0366C5.35028 17.8054 5.46037 17.5595 5.54478 17.2843C5.02001 17.299 4.56496 17.5045 4.09524 17.2843C3.47138 16.9944 3.409 16.7191 3.90441 16.2568L4.03285 16.099C3.81267 15.8201 3.45303 15.7797 3.22551 15.5302C2.9723 15.2623 2.9356 15.0091 3.14111 14.7412C3.41267 14.3925 3.84569 14.3265 4.13927 14.5577C4.25303 14.6384 4.34845 14.7485 4.4145 14.8733C4.55258 15.1496 4.76621 15.3811 5.03058 15.5409C5.29496 15.7007 5.59923 15.7822 5.90808 15.776C6.57597 15.7944 6.94661 15.398 7.18147 14.7925Z" fill="#343A40"/>
<path d="M16.0732 19.1118C15.9851 19.7614 16.664 20.3045 17.2622 20.0659C17.1044 19.4861 16.4989 19.4274 16.0732 19.1118Z" fill="white"/>
<path fill-rule="evenodd" clip-rule="evenodd" d="M15.6807 19.7358C16.1358 20.5945 17.0018 20.833 17.945 20.3339C18.3303 20.0991 18.4917 19.7248 18.6312 19.3761C18.6911 19.2339 18.7172 19.0797 18.7077 18.9256C18.6981 18.7716 18.6531 18.6218 18.5762 18.4881C18.0624 17.5413 17.4312 17.5156 16.6716 17.6587C15.8459 17.8165 15.2844 18.9945 15.6807 19.7358ZM17.2624 20.066C16.6642 20.3046 15.9853 19.7615 16.0734 19.1119C16.2092 19.211 16.3596 19.2844 16.5101 19.3578C16.8367 19.5156 17.156 19.6697 17.2624 20.066Z" fill="#343A40"/>
<path d="M15.4861 17.321C15.7871 17.4568 15.7687 17.6623 15.6403 17.8715C15.5449 18.0366 15.4017 18.1357 15.2109 18.0183C15.0348 17.9082 15.0751 17.7577 15.1742 17.6146C15.255 17.5045 15.2843 17.3467 15.4861 17.321Z" fill="#343A40"/>
<path d="M18.7302 15.6548C18.5467 15.6622 18.4109 15.6402 18.2898 15.5484C18.187 15.475 18.1724 15.3723 18.1944 15.2585C18.2127 15.1374 18.3118 15.1191 18.4072 15.1264C18.9247 15.1521 19.4347 15.1081 19.9155 14.8915C20.0329 14.8365 20.1357 14.8842 20.1981 14.987C20.2604 15.1007 20.2714 15.2181 20.1687 15.3319C19.9852 15.5448 19.7577 15.6622 19.4714 15.6548H18.7338H18.7302Z" fill="#343A40"/>
<path d="M21.7834 13.0275C21.6293 12.6788 21.4201 12.4697 21.0568 12.4513C20.8366 12.4403 20.7999 12.2642 20.7302 12.0917C20.8036 12.0366 20.8586 11.9559 20.9247 11.9522C21.699 11.8898 22.4806 11.8862 23.255 11.9486C23.4751 11.9632 23.5962 12.2421 23.3724 12.3302C23.0054 12.477 22.9137 12.8146 22.6935 13.0568C22.3926 13.3871 22.1357 13.3908 21.7834 13.0275ZM14.7742 11.9412C15.2219 11.9669 15.6219 11.9779 16.0219 12.0146C16.154 12.0256 16.3155 12.0807 16.3155 12.2605C16.3155 12.466 16.1467 12.4513 16.0109 12.4476C15.7797 12.4476 15.655 12.5467 15.5522 12.7632C15.4274 13.0348 15.299 13.3247 14.8917 13.3064C14.5063 13.288 14.3375 13.0421 14.2274 12.7486C14.1467 12.5394 14.044 12.4403 13.8238 12.4476C13.699 12.4513 13.5632 12.4403 13.5485 12.2678C13.5339 12.0843 13.6586 12.0476 13.8054 12.0036C14.1211 11.9195 14.4503 11.8983 14.7742 11.9412Z" fill="#343A40"/>
<path d="M17.218 9.69541C17.0125 10.3119 16.9758 10.2605 16.374 10.1211C15.4125 9.90091 14.44 9.41651 13.4272 9.9633C13.3538 10.0037 13.2437 9.99999 13.1483 9.99265C13.0162 9.98531 12.8474 10.0404 12.7776 9.87155C12.7006 9.68807 12.8327 9.56697 12.9721 9.49357C13.6951 9.1266 14.3483 8.60183 15.262 8.69724C15.7318 8.74495 16.2162 8.59449 16.7043 8.60917C17.3942 8.63486 17.5263 8.81834 17.2914 9.48623L17.218 9.69908V9.69541ZM23.3648 8.91008C23.7171 9.15229 23.8235 9.5266 24.0364 9.82752C24.0763 9.87745 24.0961 9.94046 24.092 10.0043C24.088 10.068 24.0603 10.128 24.0143 10.1725C23.9263 10.2716 23.8162 10.2752 23.7171 10.2165C23.0162 9.81284 22.2896 9.98164 21.5887 10.1725C21.2143 10.2716 21.0529 10.1431 20.9575 9.83486C20.8951 9.62568 20.851 9.41284 20.8254 9.19632C20.7776 8.83669 21.0786 8.75963 21.3024 8.74862C21.9813 8.71559 22.6749 8.58348 23.3648 8.91008Z" fill="#343A40"/>
</g>
</g>
<defs>
<clipPath id="clip0_286_3776">
<path d="M0 16C0 7.16344 7.16344 0 16 0C24.8366 0 32 7.16344 32 16C32 24.8366 24.8366 32 16 32C7.16344 32 0 24.8366 0 16Z" fill="white"/>
</clipPath>
</defs>
</svg>
