<svg width="32" height="32" viewBox="0 0 32 32" fill="none" xmlns="http://www.w3.org/2000/svg">
<g clip-path="url(#clip0_286_3827)">
<mask id="mask0_286_3827" style="mask-type:luminance" maskUnits="userSpaceOnUse" x="0" y="0" width="32" height="32">
<path d="M32 0H0V32H32V0Z" fill="white"/>
</mask>
<g mask="url(#mask0_286_3827)">
<path d="M23.8164 28.5762C20.1761 39.4753 10.466 42.8368 5.33203 29.3028C4.62377 27.4423 6.46964 26.7524 7.76139 25.9304C8.64579 25.3689 9.11185 24.8845 9.0568 24.3817C8.79992 22.0184 7.70267 15.435 7.70267 15.435L7.59258 15.2221C7.59258 15.2221 7.61827 15.1634 7.51185 15.2661C7.40175 15.3762 7.14854 16.5212 6.15405 16.5212C5.25497 16.5212 4.34854 16.1212 3.91552 13.3542C3.75038 12.3524 3.83845 9.72486 4.95405 9.2478C5.41276 9.0533 5.83478 8.98358 6.24579 9.21844C6.66047 9.4533 5.76873 8.4111 10.3559 4.59459C13.3357 2.10651 18.044 1.74321 19.9449 2.16523C21.8458 2.58725 23.743 3.51569 24.5834 5.48633C25.6036 7.87165 23.6329 9.68082 24.0696 15.1194C23.9889 17.0863 24.099 21.4019 18.6898 22.8478C17.6623 23.123 17.9816 24.6239 19.5229 24.9909C21.9816 25.7616 23.8164 27.6441 23.8164 28.5836" fill="white"/>
<path fill-rule="evenodd" clip-rule="evenodd" d="M23.8165 11.6405L23.8202 11.5892C23.9706 10.2534 24.1211 8.95798 24.8147 7.79468C25.0532 7.95615 25.0238 8.16165 24.9504 8.35248C24.2202 10.2314 24.2899 12.1837 24.3559 14.136L24.3706 14.6497C24.4477 17.0864 23.8385 19.3029 22.2165 21.1635C21.6514 21.8094 20.9027 22.2571 20.1431 22.6424C19.3578 23.0461 19.1926 23.38 19.4385 24.2424L19.4679 24.3378C19.5192 24.4809 19.5706 24.6277 19.4312 24.7708C19.266 24.9396 19.0825 24.8919 18.888 24.8369L18.866 24.8332C17.0465 24.3238 15.3404 23.4732 13.8385 22.3268C13.6183 22.1653 13.4422 21.9488 13.2697 21.736L13.2587 21.7213C13.1669 21.6112 13.1486 21.435 13.277 21.3396C13.3981 21.2479 13.4899 21.3213 13.5963 21.4057L13.633 21.4387C14.4343 22.0889 15.4069 22.493 16.433 22.602C16.9247 22.6534 17.4091 22.635 17.9009 22.6167C18.1725 22.6057 18.444 22.5947 18.7192 22.5983C19.0936 22.5983 19.4055 22.4259 19.6991 22.2607L19.8018 22.202C20.822 21.6332 21.7945 20.9983 22.4514 19.9745C23.0422 19.0571 23.4018 18.0589 23.611 17.0057C23.8752 15.6809 23.8532 14.3378 23.8312 12.9763C23.8202 12.536 23.8128 12.0883 23.8128 11.6405H23.8165ZM5.34309 8.87358C6.14676 8.81119 6.5908 9.28459 6.96878 9.83871C7.41676 10.5157 7.69842 11.289 7.7908 12.0956C7.80915 12.2314 7.8275 12.3745 7.74676 12.5103C7.58163 12.5323 7.56695 12.4002 7.56328 12.3048C7.54493 11.5451 7.20731 10.8846 6.8697 10.2461C6.6275 9.78734 6.2752 9.3433 5.71741 9.23321C5.08621 9.10477 4.5064 9.67358 4.22016 10.4149C3.68805 11.7947 3.77979 13.1525 4.27153 14.4883C4.48438 15.0717 4.75227 15.6662 5.29172 16.0736C5.83484 16.4883 6.49172 16.4149 6.89172 15.8644L6.96511 15.7727C7.03851 15.6772 7.1119 15.5855 7.1486 15.4791C7.22566 15.2662 7.34676 15.0681 7.56328 15.0974C7.81282 15.1341 7.85686 15.402 7.88254 15.6112C8.1102 17.5336 8.37937 19.4509 8.68988 21.3616L8.9064 22.7855C9.00181 23.413 9.1119 24.3158 9.03851 24.6974C9.03377 24.7242 9.0301 24.7511 9.0275 24.7782C9.01282 24.8809 9.00548 24.9617 8.87337 24.98C8.69355 25.0094 8.61649 24.9066 8.5908 24.7451C8.5064 24.1213 8.48071 23.8791 8.44401 22.925C8.41098 22.0002 8.23851 21.0901 8.06236 20.1763L7.87887 19.1855C7.68805 18.0552 7.50089 16.9103 7.48254 15.6259L7.40915 15.736C7.13025 16.1506 6.9064 16.4883 6.51007 16.6167C6.21586 16.7294 5.89345 16.7457 5.58937 16.6633C5.2853 16.5808 5.01529 16.4039 4.81832 16.158C4.30121 15.5739 3.93796 14.8701 3.76144 14.1103C3.45319 12.8626 3.39814 11.6479 3.79447 10.4185C3.9853 9.82771 4.66419 8.77816 5.34309 8.87725V8.87358ZM6.61282 13.5525C6.77429 13.6699 6.92108 13.7727 7.05319 13.3543C7.01282 11.8057 6.51374 10.8149 5.73942 10.7745C6.15043 11.3103 6.54676 11.8314 6.58346 12.5543C6.43076 12.4763 6.29679 12.3662 6.1908 12.2314C6.11741 12.1506 6.04401 12.0699 5.95227 12.0112L5.84218 11.9231C5.66603 11.791 5.48621 11.6516 5.18897 11.758C5.32842 11.9708 5.51924 12.125 5.71374 12.2717C5.93392 12.4442 6.1541 12.613 6.28621 12.8772C5.89722 13.1598 5.72842 13.5268 5.93025 13.9745C6.1064 14.3598 6.36695 14.6791 6.88071 14.7011C6.85869 14.4699 6.70823 14.3011 6.55777 14.136C6.37429 13.9378 6.20181 13.747 6.28254 13.4534C6.39997 13.3983 6.51007 13.4791 6.61282 13.5525Z" fill="#343A40"/>
<path d="M37.9303 48.0734H-6.41469L-6.0991 45.7505C-6.0991 45.7505 -8.9468 44.7817 -9.22937 44.2202C-9.51561 43.6587 -6.14313 36.3596 -5.68075 35.2073C-5.21469 34.0514 -2.85506 29.967 -1.45689 29.189C0.0990686 28.3156 5.21099 26 5.50457 25.7651C6.46237 24.9945 8.53944 24.1945 8.53944 24.1945V25.3211L14.8293 35.633L15.2073 37.0202C15.2073 37.0202 19.0092 26.7156 19.3651 24.6239C19.666 22.8624 23.7615 24.9982 23.7615 24.9982C23.7615 24.9982 27.9486 27.589 29.0092 28.422C31.1523 30.1174 34.1468 33.5083 35.6404 37.2C36.4917 39.2917 38.3009 43.3725 38.5982 43.8532C38.8954 44.3303 37.6073 45.1743 37.6073 45.1743L37.9303 48.0771V48.0734Z" fill="white"/>
<path fill-rule="evenodd" clip-rule="evenodd" d="M28.8623 28.6606C27.9779 27.9303 27.0898 27.2 26.11 26.6349C25.9632 26.5542 25.8237 26.4661 25.6806 26.378C25.1962 26.0918 24.7118 25.7982 24.1613 25.622C24.0953 25.9964 24.11 26.356 24.143 26.7083C24.3191 28.4309 24.3203 30.167 24.1467 31.8899C24.0953 32.312 24.1063 32.745 24.1173 33.1743L24.1246 33.6257C24.1246 33.8753 24.0879 34.1248 24.0256 34.3597C23.9375 34.6973 23.7797 34.8477 23.4384 34.8734C23.1338 34.8954 22.8292 34.9431 22.5283 34.9909C22.0413 35.0856 21.5454 35.1274 21.0494 35.1156C20.9467 35.1083 20.8439 35.112 20.7815 35.1156H20.7338L20.8623 35.2771C20.9797 35.4239 21.1191 35.5964 21.2439 35.7762C21.4457 36.0587 21.4898 36.3046 21.299 36.6899C20.3448 38.6129 19.0604 40.2606 17.6806 41.7652C17.2402 42.2459 16.8219 42.7633 16.4072 43.2771C15.721 44.1321 15.0347 44.9872 14.2127 45.6918C13.798 46.0477 13.4237 46.4551 13.0457 46.8661C12.6802 47.2801 12.2919 47.6734 11.8824 48.0441C11.3944 48.0698 10.921 48.0698 10.4072 48.0698C10.6421 47.6 10.8329 47.0973 11.0237 46.5945C11.1895 46.1422 11.3731 45.6966 11.5742 45.2587C11.9326 44.4846 12.2595 43.6961 12.554 42.8954C12.7742 42.3083 12.7852 41.7138 12.3999 41.178L11.9815 40.5909C11.2329 39.545 10.4806 38.4991 9.62556 37.556C9.23657 37.1303 9.1485 36.4551 9.39437 35.8312C9.45675 35.6771 9.5118 35.5193 9.57051 35.3578L9.64758 35.145C9.13382 34.9248 8.62006 34.9138 8.10262 34.8991C7.85675 34.8991 7.61455 34.8918 7.37602 34.8624L7.32464 34.8551C6.53198 34.767 6.51731 34.7633 6.23841 33.8936C5.63266 32.0238 5.24357 30.0907 5.07877 28.1321C5.04691 27.5848 4.92413 27.0465 4.71547 26.5395C3.87877 26.8808 3.07877 27.2661 2.28244 27.6514L2.24575 27.6661C1.33932 28.1064 0.440241 28.5798 -0.451502 29.0642C-1.7726 29.7909 -2.8038 30.8918 -3.64416 32.2422L-3.66251 32.2716C-4.27536 33.2551 -4.88453 34.2386 -5.36526 35.3175L-6.23866 37.2624L-6.72673 38.3376L-7.11205 39.1853C-7.44967 39.9266 -7.78728 40.6642 -8.10288 41.4129C-8.37499 42.0448 -8.62469 42.6862 -8.8515 43.3358C-8.99829 43.7652 -8.85517 43.9597 -8.54691 44.0698L-7.99646 44.2899C-7.48709 44.5168 -6.95419 44.6867 -6.40746 44.7964C-5.67352 44.9138 -5.01297 45.2184 -4.35242 45.523L-4.30471 45.545L-4.25334 45.567C-3.14141 46.0808 -2.0515 46.6422 -0.957924 47.2074C-0.49403 47.4581 -0.0455246 47.7362 0.385195 48.0404C0.0329018 48.0698 -0.319392 48.0771 -0.671685 48.0514C-1.62719 47.5245 -2.61935 47.0671 -3.64049 46.6826C-4.35242 46.3964 -5.06435 46.1101 -5.76893 45.7652C-5.82003 46.0305 -5.87631 46.2947 -5.93774 46.5578C-6.05517 47.0826 -6.16526 47.567 -6.17994 48.0734H-6.64233C-6.72306 47.8092 -6.66435 47.5597 -6.6093 47.3101L-6.56526 47.1083C-6.49187 46.6936 -6.52123 46.3853 -6.98361 46.2973C-7.66251 46.1615 -8.23132 45.7542 -8.8038 45.3468C-8.86485 45.3039 -8.92602 45.261 -8.98728 45.2184C-9.42765 44.9065 -9.5671 44.2569 -9.39829 43.4936C-9.20746 42.6312 -8.86985 41.8422 -8.52857 41.0532L-8.48086 40.9431C-7.88269 39.5487 -7.26251 38.1725 -6.63866 36.7964L-6.14691 35.7028C-5.2038 33.6074 -4.11022 31.5927 -2.56893 29.9633C-1.79829 29.1487 -0.917557 28.5358 0.0622597 28.0624C0.348498 27.9266 0.634737 27.7835 0.920976 27.6404C1.65492 27.2734 2.38887 26.9064 3.14116 26.6055C3.84942 26.3266 4.16868 25.9817 4.47694 25.6404C4.80721 25.2844 5.13015 24.9321 5.89345 24.6789L6.40354 24.5028C7.02006 24.2826 7.63657 24.0698 8.28978 24.0074H8.32648C8.37419 24.0037 8.42189 24 8.45125 23.9707L8.46226 23.9597C8.60905 23.8129 8.76685 23.6661 8.93932 23.9009C9.01355 24.002 9.05658 24.1225 9.0631 24.2477C9.06962 24.373 9.03935 24.4973 8.97602 24.6055C8.71914 25.0019 8.85859 25.3762 8.98703 25.7211L8.99804 25.7542C9.3063 26.5615 11.2072 29.7725 11.8861 30.6936L12.1063 30.9835C12.8769 32.011 14.7632 34.5211 15.332 36.2569C15.5595 35.8129 15.721 35.3395 15.8788 34.8734L16.0696 34.323C16.4488 33.27 16.8061 32.2092 17.1412 31.1413C17.2769 30.7193 17.398 30.2973 17.5155 29.8679C17.6146 29.523 17.71 29.178 17.8164 28.8404C17.9742 28.3193 18.1393 27.8055 18.3045 27.2918L18.6347 26.2569L18.8512 25.5523L19.0898 24.7633C19.3944 23.8165 19.4714 23.6441 20.3375 23.6734C21.409 23.7101 22.6714 24.0881 23.4054 24.3964C26.9283 25.8789 32.5246 29.556 35.1375 35.0459C35.9226 36.7373 36.6508 38.4544 37.321 40.1945C37.9632 41.8092 38.4659 43.0789 38.8843 43.6808C39.2366 44.1945 39.1962 44.4881 38.7375 44.8587C38.6783 44.9069 38.6208 44.9571 38.565 45.0092C38.4182 45.145 38.2714 45.2808 38.0806 45.3395C37.8751 45.4019 37.8127 45.578 37.8421 45.8165C37.9295 46.5545 38.009 47.2934 38.0806 48.0331C37.9301 48.0698 37.787 48.0698 37.5925 48.0367C37.4457 47.6991 37.4531 47.3762 37.4604 47.0642V47.0276C37.4788 46.4587 37.332 45.9376 37.1779 45.3909L37.0678 44.9909C36.9467 45.0422 36.8256 45.0899 36.7008 45.134C36.4439 45.2294 36.198 45.3211 35.9668 45.4569C35.1044 45.9795 34.1623 46.3575 33.1779 46.5762C32.4109 46.7376 32.0586 47.2037 32.165 48.0734C31.9815 48.0771 31.7944 48.0624 31.6109 48.0294C31.5375 46.4991 32.4623 46.1358 33.6586 45.6661L34.0879 45.4936C35.8274 44.778 38.0513 43.7615 38.0513 43.7615C38.0513 43.7615 35.809 38.4808 35.0201 36.4881C33.4788 32.5762 29.6035 29.2698 29.4751 29.167L28.8623 28.6642V28.6606ZM17.2953 32.378C16.7127 34.1141 16.0813 35.8335 15.4017 37.534C14.8879 38.8404 14.3301 40.1248 13.7724 41.4055L13.7173 41.5376C13.5155 41.9927 13.3283 42.4551 13.1412 42.9138C12.8659 43.5817 12.5907 44.2532 12.2898 44.9065C12.0439 45.4349 11.8311 45.9817 11.6182 46.5321L11.3246 47.2808L11.3063 47.3248C11.2623 47.4239 11.2182 47.523 11.321 47.6184C11.398 47.6918 11.4824 47.6367 11.5485 47.5817C11.6366 47.5083 11.7246 47.4312 11.8054 47.3468L12.2824 46.8514L12.9577 46.1542L13.6733 45.4349C14.0623 45.0459 14.4513 44.6606 14.8329 44.2606C15.1081 43.9743 15.3467 43.6477 15.5852 43.3211C15.8421 42.9725 16.099 42.6239 16.3925 42.3303C17.1775 41.5577 17.8991 40.7232 18.5503 39.8349C18.7779 39.523 19.0164 39.2184 19.2549 38.9138C19.7797 38.2349 20.3045 37.556 20.7265 36.7817C20.9173 36.4331 20.9613 36.1909 20.6384 35.9083C20.3925 35.6881 20.187 35.4092 19.9852 35.1376L19.9595 35.1009L19.9448 35.0826C19.8347 34.9285 19.7026 34.7523 19.8274 34.5064C20.099 34.4698 20.3742 34.4587 20.6494 34.4624C21.4201 34.4624 22.1907 34.4331 22.9613 34.4037L23.0971 34.4C23.3613 34.389 23.5338 34.2386 23.5448 33.9083C23.5618 33.486 23.5838 33.064 23.6109 32.6422L23.6659 31.7248C23.732 30.6789 23.798 29.6331 23.7577 28.5872C23.721 27.6954 23.7063 26.8 23.754 25.9083C23.7797 25.4679 23.6329 25.2624 23.3246 25.0679C22.4586 24.5248 21.5081 24.3964 20.5577 24.2642L20.132 24.2055C19.8898 24.1688 19.809 24.3303 19.7467 24.5285C19.6879 24.7193 19.6182 24.9101 19.5522 25.1009C19.4494 25.3835 19.3467 25.6698 19.2733 25.967C19.1522 26.4587 18.9797 26.9285 18.8072 27.3982C18.7045 27.6771 18.6017 27.9597 18.51 28.2422C18.3412 28.7707 18.1907 29.3064 18.0402 29.8496C17.8237 30.6202 17.6072 31.4092 17.321 32.1945C17.318 32.2563 17.3094 32.3177 17.2953 32.378ZM8.46226 26.0661L8.48061 26.1101C9.08611 27.4606 12.0109 31.8569 13.1742 33.4679L13.3393 33.6954C13.9448 34.5138 15.0384 35.9964 14.7338 37.2037C14.4424 38.4185 14.0242 39.5993 13.4861 40.7266C13.4531 40.7964 13.4311 40.8734 13.4054 40.9505C13.3715 41.114 13.2912 41.2644 13.1742 41.3835C12.6971 40.5762 12.1357 39.8422 11.5742 39.112C11.321 38.7817 11.0678 38.4514 10.8219 38.1138C10.6457 37.8716 10.4476 37.6514 10.2531 37.4276C10.0879 37.2441 9.92281 37.0606 9.77235 36.8624C9.58519 36.6202 9.60354 36.4624 9.72098 36.2642C9.84942 36.0477 9.93015 35.8092 10.0146 35.5707L10.0806 35.3725C10.2531 34.8954 10.1357 34.6459 9.68428 34.5028C9.37235 34.4074 9.05309 34.4037 8.73382 34.4037C8.52831 34.4037 8.32281 34.4037 8.12097 34.3743C8.09896 34.3743 8.07327 34.3743 8.04758 34.3817L7.9962 34.389C6.97602 34.4074 6.88795 34.3156 6.56134 33.2587C6.1081 31.7921 5.80321 30.2836 5.65125 28.756C5.61455 28.4331 5.55584 28.1175 5.49712 27.8019C5.44208 27.523 5.38703 27.2477 5.354 26.9652C5.28061 26.3853 5.37235 26.1762 5.84208 25.9743C6.37786 25.7431 6.54299 25.5083 6.69345 25.2954C6.86226 25.0569 7.01272 24.8441 7.64024 24.6863H7.64758C8.13565 24.5615 8.16868 24.5505 8.1907 25.1413C8.20171 25.4826 8.33749 25.7835 8.46226 26.0624V26.0661Z" fill="#343A40"/>
<path d="M27.7796 4.11017C28.0338 4.67679 28.1674 5.29011 28.1718 5.91114C28.1763 6.53217 28.0514 7.14733 27.8053 7.71751C27.3392 8.80375 26.8768 9.89365 26.4622 11.0019C25.9704 12.3083 26.1796 13.556 26.8291 14.7817C27.5998 16.2313 28.4732 17.6368 28.9649 19.2258C29.442 20.7854 29.6365 22.3634 28.9833 23.8937C28.4255 25.2111 27.7502 26.4808 26.3778 27.1891C25.316 27.7426 24.0859 27.88 22.9282 27.5744C21.6071 27.2625 20.642 26.4258 19.6768 25.556C19.1184 25.0396 18.5381 24.5474 17.9374 24.0808C17.475 23.7285 17.1888 23.2441 16.8218 22.8221C16.7631 22.756 16.7521 22.679 16.8035 22.6093C16.8512 22.5359 16.9246 22.5432 17.009 22.5615C18.9209 23.0386 20.1759 22.0478 21.2732 20.668C22.3998 19.2515 23.0787 17.6221 23.5484 15.901C24.1224 13.8703 24.3555 11.7585 24.2383 9.65145C24.1649 8.55787 24.0035 7.46063 23.7099 6.3854C23.3943 5.24778 22.9833 4.17622 22.308 3.20375C22.0732 2.87347 21.7686 2.61292 21.5044 2.2643C20.868 2.94281 20.1592 3.5495 19.3906 4.07347C17.8541 5.15388 16.187 6.0355 14.4291 6.69732C12.8658 7.31017 11.1998 7.49365 9.61446 7.99641C9.07156 8.16344 8.6116 8.52904 8.32639 9.02026C7.819 9.85685 7.63742 10.851 7.81629 11.8129C7.85299 12.0037 7.92272 12.2349 7.66217 12.268C7.42363 12.2973 7.47134 12.0404 7.4273 11.8826C7.25116 11.2404 7.12639 10.5836 6.87685 9.95971C6.59795 9.26246 5.70987 8.73402 5.07868 8.93219C4.8857 9.00002 4.71122 9.11198 4.56914 9.25915C4.42707 9.40632 4.32132 9.58464 4.26033 9.77989C3.84691 10.826 3.70061 11.9585 3.83464 13.0753C3.93373 13.8349 4.35208 14.4221 4.77776 15.0129C5.35758 15.8276 5.73189 15.9304 6.67868 15.6551C6.99061 15.5597 7.13373 15.3505 7.27684 15.1047C7.33556 14.9982 7.40896 14.8698 7.55574 14.8992C7.69886 14.9212 7.81262 15.0313 7.84932 15.1744C8.1429 16.5102 8.59428 17.8093 8.63831 19.2001C8.7007 21.2404 6.91354 23.101 4.98694 23.134C3.77593 23.156 2.60162 22.9872 1.41629 22.8037C0.595941 22.6797 -0.240349 22.7095 -1.04976 22.8918C-1.92683 23.0863 -2.77453 23.3175 -3.4938 23.8863C-3.68829 24.0404 -3.84609 23.9634 -3.9782 23.7395C-4.70481 22.5138 -5.38738 21.2735 -5.76169 19.8863C-6.23875 18.0992 -6.45894 16.3304 -5.94884 14.4881C-5.74701 13.7542 -5.57453 13.0203 -5.23692 12.3377C-4.6204 11.09 -3.80572 10.0111 -2.64609 9.21843C-1.36169 8.33769 -0.0699444 7.47164 1.21446 6.59457C2.27868 5.87164 3.08602 4.9065 3.78327 3.84228C5.04932 1.912 6.49152 0.135857 8.32272 -1.27699C9.59611 -2.26781 10.9833 -3.08983 12.5649 -3.47148C13.6879 -3.75038 14.8548 -3.80176 15.9998 -3.62194C16.8658 -3.48983 17.7062 -3.31368 18.4695 -2.87699C18.9246 -2.61644 19.3943 -2.35956 19.7906 -2.02194C20.2377 -1.66955 20.7486 -1.40665 21.2952 -1.24763C22.7631 -0.759556 24.1099 -0.0696473 25.3099 0.90283C26.3741 1.76521 27.2915 2.75237 27.7796 4.1065V4.11017Z" fill="#343A40"/>
<path d="M19.2293 19.6699C19.4055 19.1488 19.3761 19.0754 18.8697 18.9837C18.4954 18.9176 18.1615 18.7525 17.8055 18.6387C17.4055 18.5103 17.1449 18.1323 16.7229 18.0332C16.5027 19.1268 17.9596 20.1066 19.2257 19.6736L19.2293 19.6699Z" fill="white"/>
<path fill-rule="evenodd" clip-rule="evenodd" d="M16.6091 19.5085C16.9292 19.8275 17.3214 20.0647 17.7525 20.2001C18.1837 20.3355 18.6411 20.3651 19.0861 20.2864L19.321 20.1947C19.4971 20.125 19.6586 20.0663 19.8054 19.9818C19.9962 19.8718 20.1467 19.6442 19.9815 19.4754C19.6146 19.0974 19.7981 18.8809 20.1283 18.6607C20.2751 18.5653 20.3632 18.4332 20.2861 18.2681C20.1871 18.0479 19.9926 18.1286 19.8458 18.1947C19.6418 18.2727 19.4256 18.3137 19.2072 18.3158C18.2971 18.4185 17.5595 17.9855 16.8293 17.5635L16.8072 17.5525C16.3742 17.2956 16.11 17.3837 16.0549 17.8901C16.0111 18.1845 16.0386 18.4851 16.135 18.7667C16.2314 19.0483 16.394 19.3027 16.6091 19.5085ZM18.8696 18.9837C19.3797 19.0754 19.4054 19.1488 19.2256 19.6736C17.9595 20.1066 16.5026 19.1231 16.7228 18.0332C16.943 18.0883 17.1265 18.2167 17.3026 18.3488C17.4532 18.4733 17.623 18.5725 17.8054 18.6424C17.9265 18.6791 18.0439 18.7231 18.1614 18.7672C18.3926 18.8552 18.6201 18.9433 18.8696 18.9874V18.9837Z" fill="#343A40"/>
<path d="M15.4861 17.3213C15.7871 17.4571 15.7687 17.6626 15.6403 17.8717C15.5449 18.0369 15.4017 18.136 15.2109 18.0185C15.0348 17.9084 15.0751 17.758 15.1742 17.6149C15.255 17.5048 15.2843 17.347 15.4861 17.3213Z" fill="#343A40"/>
<path d="M19.879 11.5378C19.7256 12.5172 19.7667 13.5173 20.0001 14.4809C20.1725 15.3029 19.4423 16.4772 18.2826 16.3048C17.879 16.246 17.6404 16.0075 17.501 15.6515C17.4386 15.4937 17.4459 15.3286 17.6221 15.2479C17.7689 15.1855 17.8936 15.2405 17.967 15.3947C18.1432 15.7653 18.4588 15.7396 18.7707 15.6479C19.123 15.5415 19.3725 15.2956 19.3982 14.9176C19.4239 14.547 19.4056 14.1726 19.3395 13.802C19.1295 12.6989 19.2416 11.5587 19.6624 10.5176C19.7432 10.3084 19.8606 10.1176 20.0991 10.213C20.3744 10.3231 20.1652 10.5359 20.1248 10.6937C20.0624 10.9653 19.9707 11.2332 19.879 11.5378Z" fill="#343A40"/>
<path d="M21.3355 13.4497C21.8126 13.4607 22.2676 13.4901 22.7154 13.5415C22.8254 13.5561 22.8988 13.6626 22.8988 13.7873C22.8988 13.9084 22.8365 13.9928 22.7264 14.0442C22.3154 14.2204 21.919 14.3451 21.4897 14.0515C21.2511 13.8864 21.1594 13.7323 21.3355 13.4497ZM15.4713 13.2479C15.7282 13.2479 15.7576 13.3873 15.7282 13.5598C15.6548 13.9341 14.9943 14.3818 14.6126 14.3121C14.3961 14.2754 14.2273 14.1653 14.2199 13.9268C14.2126 13.6809 14.3961 13.6259 14.5979 13.6185C14.9282 13.6075 15.1777 13.4277 15.4713 13.2515V13.2479ZM14.2787 11.7653C14.4621 11.3249 14.6089 10.6864 15.1631 10.9396C15.9227 11.2846 15.6732 12.0662 15.519 12.6791C15.4603 12.9103 14.9869 13.2626 14.8475 13.2038C14.2493 12.9543 14.1429 12.4075 14.2787 11.7653ZM22.6053 13.1158C22.2897 13.391 21.9814 13.3947 21.7906 13.0607C21.4603 12.4736 21.475 11.857 21.9117 11.3286C22.0034 11.2185 22.4181 11.1965 22.5098 11.2919C23.0236 11.8424 23.0456 12.4589 22.6053 13.1158Z" fill="#343A40"/>
<path d="M16.1504 9.68087C15.8312 9.23684 15.2257 9.09372 14.7266 9.22216C14.2862 9.33959 13.9302 9.62583 13.4936 9.7506C13.3468 9.79097 13.2183 9.84968 13.1376 9.67353C13.0679 9.53041 13.0825 9.40197 13.2183 9.29555C13.9082 8.77078 15.1853 8.3084 16.1064 8.82216C16.3305 8.95993 16.5191 9.14849 16.6569 9.37262C16.778 9.54509 16.822 9.7983 16.6569 9.92674C16.4403 10.0956 16.2899 9.88271 16.1504 9.68087ZM22.9725 9.90106C22.6165 9.66252 22.2789 9.63317 21.9449 9.8717C21.8275 9.9561 21.6991 10.0478 21.578 9.90106C21.4569 9.7506 21.4899 9.58546 21.6257 9.43867C21.8312 9.21482 22.1101 9.17812 22.389 9.14509C22.7132 9.11429 23.0365 9.21262 23.2886 9.41875C23.5408 9.62487 23.7015 9.92214 23.7358 10.246C23.7431 10.4038 23.7358 10.58 23.5449 10.624C23.3725 10.6607 23.2403 10.5616 23.1706 10.4075C23.1009 10.2534 23.0532 10.0882 22.9725 9.90106ZM19.4348 9.21115C19.6257 8.96895 19.7284 8.66069 19.9669 8.45519C20.0587 8.37812 20.1284 8.25335 20.2789 8.33775C20.4147 8.41482 20.4257 8.55427 20.389 8.66803C20.2752 8.98363 20.1431 9.29555 19.9963 9.60014C19.9229 9.74693 19.7394 9.80197 19.5926 9.75427C19.3504 9.68087 19.4091 9.46436 19.4312 9.24418V9.20748L19.4348 9.21115Z" fill="#343A40"/>
<path d="M19.4385 9.2038C19.3651 9.35793 19.3064 9.51573 19.2293 9.66619C19.1706 9.77995 19.0752 9.87903 18.9357 9.83499C18.7669 9.78362 18.7523 9.6405 18.7889 9.49371C18.833 9.34325 18.8807 9.20013 18.9357 9.05334C19.0091 8.88086 18.9908 8.5983 19.277 8.63866C19.5853 8.68637 19.4385 8.94692 19.4385 9.1671V9.2038Z" fill="#343A40"/>
<path d="M34.2569 48.2533L29.5413 48.3267C29.5413 48.3267 29.7982 46.8074 29.967 46.2717C30.3266 45.1194 29.4385 45.0643 29.2918 44.29C29.145 43.5084 29.3798 43.3506 29.4532 42.9212C29.5266 42.4882 29.167 42.5322 28.9248 42.29C28.6826 42.0441 28.8367 41.9964 28.9541 41.5817C29.0716 41.1671 28.1835 41.3726 27.7175 40.701C27.2514 40.0331 27.4385 39.3799 27.4385 39.3799C27.4385 39.3799 26.9101 39.2918 26.9982 38.7487C27.0863 38.2056 27.2918 37.501 27.9523 37.1451C28.6129 36.7928 32.3119 36.3377 32.3119 36.3377C32.3119 36.3377 32.0184 33.1414 31.9927 32.4588C31.9707 31.7799 32.2129 30.0221 32.7963 29.9414C33.3762 29.857 33.6844 32.0038 33.8459 32.9726C34.0074 33.9451 35.0789 37.046 35.1963 37.9854C35.3138 38.9249 35.0055 41.7616 34.9762 42.2423C34.9468 42.7304 34.3303 43.89 34.0954 44.5946C33.8606 45.2992 34.2569 48.2533 34.2569 48.2533Z" fill="white"/>
<path d="M29.4092 48.3303C29.3725 47.6881 29.5927 47.0826 29.6955 46.4514C29.7725 45.956 29.7946 45.5633 29.4202 45.123C29.1958 44.8664 29.0563 44.5467 29.0208 44.2076C28.9853 43.8686 29.0556 43.5269 29.2221 43.2294C29.3615 42.9578 29.3248 42.8 29.0569 42.6679C28.3817 42.3303 28.3303 42.1248 28.7303 41.4422C27.6991 41.2 27.3212 40.745 27.2698 39.7065C27.2661 39.6147 27.2771 39.4863 27.2258 39.4386C26.356 38.6753 27.1083 38.0698 27.4386 37.4496C27.6845 36.9909 28.1285 36.8074 28.6606 36.7156C29.6331 36.5542 30.5909 36.3377 31.5854 36.3707C31.8423 36.378 31.934 36.2459 31.978 36.0037C32.0808 35.4129 31.9927 34.8147 31.9413 34.2312C31.8716 33.3945 31.7469 32.3854 31.8313 31.534C31.89 30.9982 32.712 29.6991 32.8514 29.6955C33.1707 29.6844 33.3358 29.8166 33.3652 30.1578C33.3835 30.389 33.6294 31.8973 33.7358 32.323C34.0661 33.6294 34.6276 34.8918 35.0753 36.6643C36.1322 40.8257 35.0239 42.5432 34.4184 44.6936C34.0551 45.978 34.6313 48.334 34.6313 48.334C34.6313 48.334 34.1835 48.334 33.923 48.2973C33.8276 47.3432 33.7615 46.4294 33.7138 45.5156C33.6845 44.9762 33.6588 44.4441 33.9597 43.9377C34.268 43.4166 34.5725 42.8734 34.6753 42.2679C34.8955 41.0386 35.0459 39.7982 34.9762 38.5395C34.9615 38.2276 34.8735 37.9377 34.8037 37.6367C34.6826 37.1046 34.4368 36.6202 34.2606 36.1175C34.0294 35.4753 34.0991 34.7854 33.8386 34.1615C33.7358 33.9156 33.6991 33.6551 33.6478 33.3945C33.4276 32.323 33.167 31.2588 32.9138 30.1578C32.7795 30.2297 32.666 30.335 32.5844 30.4636C32.5027 30.5922 32.4557 30.7397 32.4478 30.8918C32.4111 31.4716 32.2753 32.0404 32.3267 32.6202C32.4147 33.6844 32.4331 34.756 32.5835 35.8166C32.6092 36.0367 32.6643 36.2129 32.8624 36.323C32.9946 36.3964 33.0863 36.5065 33.0349 36.6679C32.9762 36.8514 32.8147 36.8184 32.6826 36.7817C32.5358 36.745 32.4074 36.7854 32.268 36.7854C31.3872 36.7927 30.5432 37.0312 29.6698 37.1156C28.7413 37.2 27.8459 37.4459 27.5046 38.5101C27.4643 38.6386 27.3248 38.7744 27.4606 38.8844C27.578 38.9835 27.7028 39.0973 27.9193 39.0129C29.3138 38.4808 30.7744 38.4074 32.2459 38.4441C32.4478 38.4551 32.6496 38.5065 32.8331 38.5982C32.9542 38.6606 33.0533 38.7303 33.0092 38.8808C32.9725 39.0092 32.8551 39.0166 32.7377 39.0019C31.8276 38.9028 30.9358 39.0716 30.0368 39.1633C29.4349 39.2221 28.8258 39.2514 28.2569 39.4936C28.0258 39.5964 27.8349 39.7138 27.7982 39.9744C27.7615 40.2422 27.8643 40.4588 28.0735 40.6349C28.2459 40.7817 28.4404 40.7854 28.6496 40.7854H32.778C32.9652 40.7854 33.1524 40.8 33.3395 40.8221C33.4313 40.8294 33.523 40.8844 33.5303 40.9945C33.545 41.0973 33.4826 41.167 33.4056 41.2294C33.2955 41.3101 33.1707 41.3065 33.0459 41.3211C32.2056 41.4202 31.3615 41.3799 30.5175 41.3799C29.9487 41.3799 29.4533 41.5413 29.0496 42.0221C29.6001 42.2973 30.1102 42.5945 30.6459 42.8111C31.1891 43.0276 31.8423 42.701 32.4147 43.0679C31.7909 43.6294 30.9615 43.6257 29.7358 43.0863C29.6624 43.7542 29.4276 44.4074 30.0441 44.9578C30.2643 45.1523 30.3377 45.4092 30.3487 45.7101C30.3817 46.6129 30.0808 47.4606 29.934 48.334H29.4092V48.3303Z" fill="#343A40"/>
</g>
</g>
<defs>
<clipPath id="clip0_286_3827">
<path d="M0 16C0 7.16344 7.16344 0 16 0C24.8366 0 32 7.16344 32 16C32 24.8366 24.8366 32 16 32C7.16344 32 0 24.8366 0 16Z" fill="white"/>
</clipPath>
</defs>
</svg>
