<svg width="32" height="32" viewBox="0 0 32 32" fill="none" xmlns="http://www.w3.org/2000/svg">
<g clip-path="url(#clip0_286_3881)">
<mask id="mask0_286_3881" style="mask-type:luminance" maskUnits="userSpaceOnUse" x="0" y="0" width="32" height="32">
<path d="M32 0H0V32H32V0Z" fill="white"/>
</mask>
<g mask="url(#mask0_286_3881)">
<path d="M23.8164 28.5762C20.1761 39.4753 10.466 42.8368 5.33203 29.3028C4.62377 27.4423 6.46964 26.7524 7.76139 25.9304C8.64579 25.3689 9.11185 24.8845 9.0568 24.3817C8.79992 22.0184 7.70267 15.435 7.70267 15.435L7.59258 15.2221C7.59258 15.2221 7.61827 15.1634 7.51185 15.2661C7.40175 15.3762 7.14854 16.5212 6.15405 16.5212C5.25497 16.5212 4.34854 16.1212 3.91552 13.3542C3.75038 12.3524 3.83845 9.72486 4.95405 9.2478C5.41276 9.0533 5.83478 8.98358 6.24579 9.21844C6.66047 9.4533 5.76873 8.4111 10.3559 4.59459C13.3357 2.10651 18.044 1.74321 19.9449 2.16523C21.8458 2.58725 23.743 3.51569 24.5834 5.48633C25.6036 7.87165 23.6329 9.68082 24.0696 15.1194C23.9889 17.0863 24.099 21.4019 18.6898 22.8478C17.6623 23.123 17.9816 24.6239 19.5229 24.9909C21.9816 25.7616 23.8164 27.6441 23.8164 28.5836" fill="white"/>
<path fill-rule="evenodd" clip-rule="evenodd" d="M23.8165 11.6405L23.8202 11.5892C23.9706 10.2534 24.1211 8.95798 24.8147 7.79468C25.0532 7.95615 25.0238 8.16165 24.9504 8.35248C24.2202 10.2314 24.2899 12.1837 24.3559 14.136L24.3706 14.6497C24.4477 17.0864 23.8385 19.3029 22.2165 21.1635C21.6514 21.8094 20.9027 22.2571 20.1431 22.6424C19.3578 23.0461 19.1926 23.38 19.4385 24.2424L19.4679 24.3378C19.5192 24.4809 19.5706 24.6277 19.4312 24.7708C19.266 24.9396 19.0825 24.8919 18.888 24.8369L18.866 24.8332C17.0465 24.3238 15.3404 23.4732 13.8385 22.3268C13.6183 22.1653 13.4422 21.9488 13.2697 21.736L13.2587 21.7213C13.1669 21.6112 13.1486 21.435 13.277 21.3396C13.3981 21.2479 13.4899 21.3213 13.5963 21.4057L13.633 21.4387C14.4343 22.0889 15.4069 22.493 16.433 22.602C16.9247 22.6534 17.4091 22.635 17.9009 22.6167C18.1725 22.6057 18.444 22.5947 18.7192 22.5983C19.0936 22.5983 19.4055 22.4259 19.6991 22.2607L19.8018 22.202C20.822 21.6332 21.7945 20.9983 22.4514 19.9745C23.0422 19.0571 23.4018 18.0589 23.611 17.0057C23.8752 15.6809 23.8532 14.3378 23.8312 12.9763C23.8202 12.536 23.8128 12.0883 23.8128 11.6405H23.8165ZM5.34309 8.87358C6.14676 8.81119 6.5908 9.28459 6.96878 9.83871C7.41676 10.5157 7.69842 11.289 7.7908 12.0956C7.80915 12.2314 7.8275 12.3745 7.74676 12.5103C7.58163 12.5323 7.56695 12.4002 7.56328 12.3048C7.54493 11.5451 7.20731 10.8846 6.8697 10.2461C6.6275 9.78734 6.2752 9.3433 5.71741 9.23321C5.08621 9.10477 4.5064 9.67358 4.22016 10.4149C3.68805 11.7947 3.77979 13.1525 4.27153 14.4883C4.48438 15.0717 4.75227 15.6662 5.29172 16.0736C5.83484 16.4883 6.49172 16.4149 6.89172 15.8644L6.96511 15.7727C7.03851 15.6772 7.1119 15.5855 7.1486 15.4791C7.22566 15.2662 7.34676 15.0681 7.56328 15.0974C7.81282 15.1341 7.85686 15.402 7.88254 15.6112C8.1102 17.5336 8.37937 19.4509 8.68988 21.3616L8.9064 22.7855C9.00181 23.413 9.1119 24.3158 9.03851 24.6974C9.03377 24.7242 9.0301 24.7511 9.0275 24.7782C9.01282 24.8809 9.00548 24.9617 8.87337 24.98C8.69355 25.0094 8.61649 24.9066 8.5908 24.7451C8.5064 24.1213 8.48071 23.8791 8.44401 22.925C8.41098 22.0002 8.23851 21.0901 8.06236 20.1763L7.87887 19.1855C7.68805 18.0552 7.50089 16.9103 7.48254 15.6259L7.40915 15.736C7.13025 16.1506 6.9064 16.4883 6.51007 16.6167C6.21586 16.7294 5.89345 16.7457 5.58937 16.6633C5.2853 16.5808 5.01529 16.4039 4.81832 16.158C4.30121 15.5739 3.93796 14.8701 3.76144 14.1103C3.45319 12.8626 3.39814 11.6479 3.79447 10.4185C3.9853 9.82771 4.66419 8.77816 5.34309 8.87725V8.87358ZM6.61282 13.5525C6.77429 13.6699 6.92108 13.7727 7.05319 13.3543C7.01282 11.8057 6.51374 10.8149 5.73942 10.7745C6.15043 11.3103 6.54676 11.8314 6.58346 12.5543C6.43076 12.4763 6.29679 12.3662 6.1908 12.2314C6.11741 12.1506 6.04401 12.0699 5.95227 12.0112L5.84218 11.9231C5.66603 11.791 5.48621 11.6516 5.18897 11.758C5.32842 11.9708 5.51924 12.125 5.71374 12.2717C5.93392 12.4442 6.1541 12.613 6.28621 12.8772C5.89722 13.1598 5.72842 13.5268 5.93025 13.9745C6.1064 14.3598 6.36695 14.6791 6.88071 14.7011C6.85869 14.4699 6.70823 14.3011 6.55777 14.136C6.37429 13.9378 6.20181 13.747 6.28254 13.4534C6.39997 13.3983 6.51007 13.4791 6.61282 13.5525Z" fill="#343A40"/>
<path d="M38.7967 48.5286L-9.22168 48.5616C-9.22168 48.5616 -6.54645 38.2753 -5.83452 37.0937C-5.11893 35.9157 -2.25287 31.9414 -2.2859 31.2662C-2.31893 30.5909 -2.23085 28.1909 -1.74645 27.2442C-1.26205 26.29 0.279237 24.9946 0.881072 24.8955C1.48291 24.8038 3.51226 24.712 4.77832 24.3928C6.04437 24.0772 7.21502 23.6845 8.50309 23.6845C8.71227 23.6845 8.51043 24.1432 8.51043 24.1432C8.51043 24.1432 8.57648 28.6313 14.5581 28.9139C19.0169 29.123 20.4921 24.5983 20.4921 24.5983C20.4921 24.5983 19.5123 23.7249 19.8095 23.7029C23.3178 23.4019 25.1563 24.1873 26.2205 24.3928C27.204 24.5836 28.026 24.5836 29.0095 25.2808C30.1361 26.0772 30.7159 27.8864 31.9783 30.657C33.4205 33.835 39.1013 43.4753 38.7967 48.5506" fill="white"/>
<path fill-rule="evenodd" clip-rule="evenodd" d="M27.3578 48.6422C27.3285 48.0184 27.3174 47.3945 27.3028 46.7743C27.2734 45.4129 27.2441 44.0477 27.0679 42.6826C26.9064 41.4349 26.7193 40.1872 26.5174 38.9431C26.1646 36.9036 25.7535 34.8747 25.2844 32.8587C25.1303 32.1652 24.8624 31.4863 24.5762 30.8294C24.367 30.3523 24.1945 29.8606 24.0184 29.3688C23.8165 28.8074 23.6147 28.2459 23.3652 27.7028C23.3211 27.6074 23.2661 27.5193 23.211 27.4312C23.1009 27.2661 22.9908 27.0899 22.9358 26.8294C21.1927 30.2569 18.5174 32.033 14.745 32.0514C11.0312 32.0661 8.28625 30.356 6.28258 27.2697C5.96699 27.5266 5.82387 27.8936 5.69543 28.2239L5.64405 28.345C4.96148 30.0294 4.32295 31.7211 4.12112 33.5633C4.00735 34.6275 3.84222 35.6918 3.68075 36.7486L3.61469 37.167C3.36148 38.8257 3.13763 40.4954 3.0202 42.1725C2.8624 44.3009 2.69726 46.4294 2.52846 48.6019C2.35598 48.6422 2.19451 48.6422 1.99268 48.6422C2.10613 47.7314 2.16984 46.815 2.1835 45.8973C2.24222 44.0734 2.45139 42.2642 2.66057 40.4587L2.8257 38.9725C2.9358 37.945 3.08258 36.9174 3.23304 35.8973C3.37983 34.8881 3.52662 33.8789 3.63671 32.8624C3.81653 31.2477 4.44038 29.7358 5.1046 28.2532L5.13396 28.1798C5.51561 27.3248 5.89726 26.4661 6.51011 25.7395C6.9835 25.178 7.51928 24.6789 8.15414 24.3083C8.66424 24.011 8.82937 24.0734 9.00185 24.6385C9.35414 25.7945 9.96699 26.7853 10.9578 27.4606C12.5285 28.5248 14.2239 29.0092 16.1431 28.4477C17.4826 28.0551 18.5872 27.3798 19.3835 26.2385C19.6918 25.7982 19.9707 25.3211 20.0624 24.7707C19.8358 24.6957 19.6129 24.6099 19.3945 24.5138V24.5101C19.2844 24.4587 19.1486 24.4 19.2074 24.2349C19.2514 24.1101 19.3541 24.0184 19.4936 24.0404C20.7083 24.2055 21.8606 24.4697 22.6642 25.5486C23.4006 26.5491 23.9866 27.6519 24.4037 28.822L24.6789 29.5707C25.1413 30.8074 25.6 32.0441 25.9413 33.3211C26.0734 33.8275 26.1762 34.3376 26.2752 34.8514L26.4074 35.5083L26.5982 36.378C26.745 37.0459 26.8918 37.7101 26.9982 38.3853C27.0716 38.8477 27.145 39.3101 27.2257 39.7725C27.4459 41.0863 27.6734 42.4037 27.7321 43.7431C27.7615 44.4037 27.8055 45.0642 27.8569 45.7248C27.8973 46.2752 27.9376 46.8294 27.967 47.3872C27.9817 47.6881 27.9523 47.9927 27.9193 48.3046L27.8899 48.6202C27.7138 48.6422 27.534 48.6532 27.3541 48.6459L27.3578 48.6422ZM20.5652 25.1376C20.2716 25.8165 19.9853 26.4954 19.4899 27.0606C18.2312 28.4954 16.6019 29.1523 14.7413 29.2074C13.4936 29.2441 12.2642 28.9872 11.1817 28.2899C10.1358 27.6147 9.23671 26.7963 8.79635 25.5743L8.75231 25.4349C8.67891 25.222 8.60552 25.0019 8.43671 24.8477C7.95231 24.9578 7.82387 25.2624 7.90093 25.6918L7.93396 25.9046C7.95231 26.0514 7.97066 26.1982 8.02203 26.334C8.48075 27.633 9.37983 28.5872 10.5285 29.2844C11.4312 29.8349 12.4147 30.1945 13.4936 30.3303C15.7064 30.6055 17.7688 30.3119 19.5963 28.9431C20.1385 28.5596 20.5933 28.0658 20.931 27.4941C21.2688 26.9223 21.4818 26.2856 21.556 25.6257C21.6184 25.0752 21.2918 24.8184 20.6496 24.9395L20.5652 25.1376ZM7.31011 25.7174C8.04405 28.7266 10.1358 30.1725 12.9505 30.8037C14.3817 31.1633 15.7395 31.1046 17.1009 30.7486C18.6165 30.356 19.9486 29.6734 20.9468 28.4367C21.556 27.6734 22.0074 26.833 22.022 25.8092C22.5725 26.0954 22.6275 26.2936 22.2606 26.9835C21.4737 28.5133 20.2364 29.7647 18.7156 30.5688C17.0129 31.4496 15.178 31.6844 13.2624 31.3945C11.2734 31.0973 9.64038 30.1578 8.20919 28.811C7.71512 28.3093 7.28158 27.7513 6.91745 27.1486L6.66791 26.7707C6.56882 26.6239 6.63121 26.5064 6.73029 26.3927C6.92289 26.1658 7.11616 25.9395 7.31011 25.7138V25.7174Z" fill="#343A40"/>
<path fill-rule="evenodd" clip-rule="evenodd" d="M-1.57787 48.6422C-1.40906 48.0771 -1.34667 47.4936 -1.28429 46.9064C-1.25493 46.6129 -1.2219 46.3193 -1.17787 46.0257L-1.07878 45.3652C-0.950342 44.4771 -0.821902 43.589 -0.623737 42.7083L-0.443921 41.9523C-0.330159 41.4642 -0.212728 40.9762 -0.124655 40.4807C0.0221348 39.6367 0.271676 38.811 0.623969 38.0257C1.15485 36.8489 1.43241 35.5736 1.43865 34.2826C1.46006 33.6377 1.51764 32.9944 1.61112 32.356C1.67351 31.8789 1.73223 31.4018 1.76158 30.9248C1.8203 30.0184 1.77626 29.1266 1.72489 28.1505C1.58544 28.2606 1.44966 28.3707 1.32122 28.4807C1.05638 28.7013 0.787212 28.9167 0.513878 29.1266C-1.0641 30.3156 -2.28979 31.8129 -3.33933 33.4569C-3.73764 34.107 -4.10263 34.777 -4.43291 35.4642C-4.57236 35.7395 -4.70814 36.0147 -4.85126 36.2863C-5.41468 37.4071 -5.90858 38.5616 -6.33016 39.7431C-6.40355 39.956 -6.48796 40.1651 -6.56502 40.3743C-7.2219 42.0991 -7.87878 43.8312 -8.13566 45.6734C-8.20906 46.2018 -8.35585 46.7083 -8.49897 47.2184C-8.62741 47.6734 -8.75585 48.1285 -8.84025 48.6092C-9.04209 48.6459 -9.23658 48.6459 -9.46777 48.6459L-9.36502 48.2863C-9.05676 47.2037 -8.74117 46.1174 -8.58337 44.9835C-8.50631 44.411 -8.34117 43.8459 -8.17603 43.2881L-8.06594 42.9028C-7.9008 42.334 -7.68796 41.7835 -7.47878 41.233C-7.2953 40.756 -7.11181 40.2789 -6.95768 39.7835C-6.77787 39.2037 -6.53566 38.6385 -6.29713 38.0771C-6.20539 37.8679 -6.11365 37.6624 -6.02924 37.4532C-5.42007 35.9743 -4.65676 34.5688 -3.8641 33.1853L-3.85309 33.167C-3.58154 32.6936 -3.30264 32.2092 -2.89897 31.8202C-2.5797 31.5156 -2.56135 31.1229 -2.543 30.7303C-2.53747 30.4822 -2.50797 30.2351 -2.45493 29.9927C-2.27144 28.8294 -2.08429 27.6587 -1.49346 26.6239C-0.876948 25.545 0.143235 24.9468 1.33223 24.6569C2.19828 24.444 3.07901 24.3119 3.96709 24.2532C4.33406 24.2349 4.69369 24.1174 5.05333 24C5.24415 23.9376 5.43865 23.8752 5.63314 23.8275C5.81663 23.7835 6.00012 23.7321 6.1836 23.6807C6.89186 23.4936 7.59278 23.3028 8.33039 23.3395H8.36709C8.51388 23.3468 8.67167 23.3505 8.69736 23.5413C8.71938 23.7285 8.58727 23.7541 8.45516 23.7798L8.38177 23.7945L6.84048 24.1578C5.87168 24.3853 4.90654 24.6165 3.92672 24.8294C3.5047 24.9211 3.06434 24.9468 2.62764 24.9762L2.3047 24.9982C1.98911 25.0202 1.69186 25.0606 1.43131 25.2294C2.3781 25.8202 2.9359 26.6165 2.92122 27.7541C2.91021 28.4257 2.93956 29.0936 2.96525 29.7652C3.00195 30.6496 3.03865 31.534 2.98727 32.4184C2.92489 33.5743 2.79645 34.7156 2.62397 35.8606C2.52489 36.5248 2.45149 37.1963 2.37443 37.8642C2.30103 38.4954 2.22764 39.1266 2.13957 39.7541C2.04782 40.378 1.98911 41.0092 1.92672 41.6367C1.87168 42.2165 1.81663 42.7963 1.7359 43.3762C1.64048 44.0551 1.57443 44.734 1.5047 45.4165C1.44599 46.0037 1.38727 46.5982 1.31021 47.1853C1.29186 47.3321 1.28452 47.4862 1.27351 47.6367C1.25516 47.956 1.23681 48.2789 1.12672 48.6092C0.917547 48.6459 0.708373 48.6459 0.502869 48.6092C0.789143 47.3887 0.993876 46.1505 1.11571 44.9028L1.13039 44.7633C1.20378 44.1578 1.25516 43.5523 1.31021 42.9431C1.39461 41.9523 1.48269 40.9615 1.65149 39.978C1.71313 39.5827 1.75599 39.1847 1.77993 38.7853C1.8203 38.2679 1.86067 37.7505 1.98177 37.2404C2.25707 35.9607 2.41673 34.6588 2.45883 33.3505C2.56158 31.4312 2.58727 29.5046 2.46984 27.589C2.43314 26.9762 2.30103 26.3596 1.75424 25.8642C1.81296 26.0477 1.87535 26.2202 1.93773 26.389C2.07351 26.7486 2.20195 27.0863 2.23131 27.4349C2.31196 28.4444 2.33891 29.4574 2.31204 30.4697C2.29369 31.6514 2.16525 32.8257 2.03314 34L1.9047 35.2147C1.77259 36.5505 1.58544 37.8716 1.39461 39.1927L1.14874 40.9578C1.07535 41.4899 1.02397 42.0257 0.965253 42.5615C0.902868 43.2037 0.836814 43.8459 0.741401 44.4844C0.682685 44.8881 0.645988 45.2991 0.60929 45.7064C0.546906 46.3853 0.48819 47.0642 0.315713 47.7285C0.308373 47.7725 0.293694 47.8202 0.279016 47.8642C0.209291 48.1138 0.132226 48.378 0.260667 48.6459C0.0557194 48.6508 -0.14928 48.6385 -0.352178 48.6092C-0.32282 48.3229 -0.278783 48.0477 -0.234746 47.7762C-0.198049 47.5376 -0.157682 47.2991 -0.131994 47.0569C-0.0806179 46.5541 -0.0219021 46.0551 0.033143 45.556L0.21663 43.9009C0.326721 42.8367 0.466171 41.7762 0.60929 40.7156L0.792777 39.3578C0.719382 39.6587 0.631309 39.9523 0.543235 40.2422C0.414795 40.6642 0.286355 41.0826 0.2203 41.5119C0.124887 42.1285 0.000115395 42.734 -0.131994 43.3468C-0.297132 44.1358 -0.462269 44.9248 -0.557682 45.7321L-0.671444 46.5652C-0.790965 47.2525 -0.855999 47.9483 -0.865939 48.6459H-1.57787V48.6422ZM0.634978 28.3009C0.854795 28.0583 1.10811 27.8482 1.38727 27.6771C1.63314 27.5376 1.70287 27.3101 1.61479 27.0789C1.57076 26.9688 1.55608 26.8404 1.53773 26.7156C1.49736 26.4294 1.457 26.1395 1.11204 25.9927C0.928555 25.9119 0.75241 25.9817 0.623969 26.0734C0.377944 26.2386 0.161986 26.4446 -0.0145626 26.6826C-0.645755 27.6367 -0.99438 28.7083 -1.32465 29.9229C-0.920985 29.5193 -0.509975 29.2074 -0.102636 28.8918C0.146905 28.7009 0.392776 28.5101 0.634978 28.3046V28.3009ZM-0.744838 26.833C-1.10447 27.6991 -1.46777 28.5578 -1.55218 29.5119C-1.57353 29.9269 -1.7193 30.3259 -1.97053 30.6569L-1.83475 29.9963C-1.58521 28.7707 -1.33566 27.5413 -0.594379 26.4734L-0.741168 26.833H-0.744838ZM37.3763 43.3138C37.9561 45.0385 38.2607 46.8367 38.5359 48.6422C38.7377 48.6422 38.9029 48.6422 39.0717 48.6055C38.9249 47.1596 38.6056 45.7908 38.2864 44.422L38.279 44.4C38.1322 43.7541 37.9194 43.1266 37.7065 42.4991L37.523 41.9486C37.053 40.4513 36.5192 38.9747 35.923 37.5229C35.5876 36.7705 35.214 36.0356 34.8038 35.3211C34.6313 35.0092 34.4735 34.6973 34.3157 34.378C33.9544 33.6037 33.5128 32.8694 32.9983 32.1872C32.7854 31.9156 32.5653 31.6404 32.4662 31.3321C32.0415 30.065 31.5863 28.8084 31.101 27.5633C30.8405 26.8278 30.4322 26.1533 29.901 25.5817C29.1524 24.811 28.1396 24.5358 27.1451 24.2973C26.301 24.0991 25.4533 23.9303 24.6056 23.7651L23.1194 23.4642C21.8662 23.2034 20.5814 23.1292 19.3065 23.244C19.1047 23.2624 18.9396 23.3101 18.8662 23.633C19.4019 23.6954 19.9377 23.7064 20.4698 23.7211C21.3579 23.7468 22.246 23.7688 23.1267 24.011C24.0515 24.2606 24.9983 24.4624 25.9671 24.6679C26.4258 24.7633 26.8845 24.8587 27.3579 24.9651C27.0203 25.3211 27.0093 25.6771 26.9983 26.0294L26.9946 26.1945C26.9653 26.7083 27.046 27.211 27.1231 27.7138C27.1781 28.0587 27.2331 28.4037 27.2515 28.7486C27.3396 30.3927 27.6038 32.0147 27.868 33.6294L27.9157 33.9376C28.0442 34.7193 28.1359 35.5046 28.2276 36.2863C28.312 36.9835 28.3928 37.6844 28.5029 38.378C28.6753 39.5156 28.7377 40.6679 28.8001 41.8165C28.8442 42.5982 28.8882 43.3798 28.9653 44.1615C29.0387 44.9321 29.0974 45.7064 29.1524 46.4844C29.2038 47.2037 29.2552 47.9229 29.3249 48.6422H29.7579C29.7359 46.8404 29.6038 45.0459 29.468 43.2477C29.402 42.3229 29.3322 41.4018 29.2772 40.4807C29.223 39.7118 29.1373 38.9454 29.0203 38.1835C28.9616 37.7872 28.9102 37.3945 28.8588 37.0018C28.7231 35.8385 28.5396 34.6826 28.3561 33.5266C28.1983 32.5285 28.0405 31.534 27.9157 30.5321C27.8497 30.0477 27.7689 29.5707 27.6955 29.0899C27.5267 28.0918 27.3653 27.0973 27.3506 26.0807C27.3469 25.6771 27.4753 25.3578 27.8093 25.0899C27.2735 26.1945 27.5084 27.2624 27.7432 28.3193C27.8056 28.6018 27.8643 28.8771 27.912 29.156C27.9561 29.4018 28.0038 29.644 28.0588 29.8899C28.1579 30.378 28.2607 30.8697 28.2864 31.3651C28.3084 31.7762 28.3891 32.1725 28.4625 32.5651C28.5175 32.8404 28.5726 33.1156 28.6093 33.3982C28.6974 34.1211 28.8148 34.8404 28.9322 35.5633C29.1157 36.6863 29.2992 37.8092 29.3799 38.9505C29.446 39.9229 29.6368 40.8918 29.8203 41.8496L29.846 41.9963C29.9377 42.4661 29.9561 42.9431 29.9708 43.4055L29.9744 43.4826C30.0065 44.1604 30.0579 44.8371 30.1286 45.5119C30.2093 46.3927 30.2937 47.2697 30.2937 48.1541L30.2827 48.3156C30.279 48.4037 30.2717 48.4991 30.279 48.6092C30.4164 48.6384 30.5569 48.6507 30.6974 48.6459C30.7964 46.9835 30.6827 45.3285 30.5359 43.5817C31.0497 45.0496 31.3065 46.4954 31.5634 47.9633L31.6735 48.6018C31.8717 48.6385 32.0772 48.6459 32.279 48.6129C32.1322 48.2899 32.1102 47.956 32.0882 47.6294C32.0698 47.4239 32.0552 47.222 32.0148 47.0239L31.89 46.4881C31.6038 45.2037 31.3175 43.9193 30.7891 42.6899L30.6753 42.4367C30.5189 42.1493 30.4157 41.836 30.3708 41.5119C30.3304 40.9615 30.2203 40.422 30.1139 39.8899L30.0221 39.4385C29.9 38.7575 29.8045 38.072 29.7359 37.3835C29.6552 36.6826 29.5744 35.978 29.4386 35.2807C29.3029 34.5908 29.1818 33.8973 29.068 33.2037C28.8845 32.1211 28.701 31.0385 28.4441 29.9633L28.3708 29.6551C28.2475 29.2122 28.1652 28.7589 28.1249 28.3009C28.1836 28.3266 28.2386 28.3413 28.2864 28.3596C28.3744 28.389 28.4405 28.411 28.4955 28.4514L28.5322 28.4807C29.6772 29.3615 30.8295 30.2496 31.7286 31.3982C32.5251 32.3889 33.214 33.4616 33.7836 34.5982C33.9964 35.0385 34.224 35.4789 34.4441 35.9156C34.9411 36.8486 35.3954 37.8037 35.8056 38.778C36.2386 39.8385 36.5909 40.9248 36.9432 42.0074C37.0827 42.4477 37.2258 42.8807 37.3726 43.3138H37.3763ZM28.4368 27.7982C28.213 27.6697 28.0552 27.4973 28.0185 27.233C27.8764 26.8408 27.8397 26.4182 27.912 26.0074C27.9928 25.4459 28.3781 25.2881 28.8845 25.5303C29.6148 25.8716 29.9341 26.5395 30.246 27.189C30.2827 27.2551 30.312 27.3248 30.3451 27.3908C30.646 28.011 30.8955 28.6569 31.1597 29.3431L31.5267 30.2973L31.1084 29.9009C30.4775 29.2764 29.7977 28.7033 29.0753 28.1872C28.8698 28.0477 28.6533 27.9229 28.4368 27.7982Z" fill="#343A40"/>
<path d="M5.17434 2.91008C7.00187 -0.69726 16.411 -4.05506 15.6514 -4.63487C15.6404 -4.8257 15.7615 -4.92845 15.9193 -4.97249C17.5707 -5.44221 19.2441 -5.83487 20.9762 -5.75047C22.6459 -5.66974 23.9193 -4.89175 24.6679 -3.38717C25.0826 -2.55414 25.3799 -1.65873 25.3285 -0.697259C25.309 -0.528363 25.3356 -0.357349 25.4053 -0.202311C25.4751 -0.0472722 25.5855 0.0860238 25.7248 0.183475C26.9248 1.13026 27.0459 3.44219 25.9266 4.46971C25.7542 4.62751 25.9009 4.81834 25.9633 5.05687C26.1101 5.64402 25.7432 6.18347 25.4239 6.66421C25.1083 7.14127 25.0826 7.72843 24.756 8.22751C24.7083 6.56513 24.9762 4.86237 24.1432 3.23669C23.4204 4.20663 22.4135 4.92746 21.2624 5.29907C19.7262 5.83755 18.0737 5.95414 16.4771 5.63669C15.3762 5.43118 14.2496 5.34678 13.1303 5.28072C12.4934 5.22429 11.8517 5.30552 11.2489 5.5189C10.6462 5.73228 10.0963 6.07282 9.63673 6.51742C9.06685 7.0624 8.7346 7.80995 8.71196 8.59815C8.63856 9.73577 8.55049 10.8734 8.63856 12.011C8.65691 12.3009 8.60921 12.6165 8.25324 12.6679C7.967 12.7046 7.73948 12.5578 7.55599 12.3082C7.2404 11.8679 7.29177 11.3027 7.00187 10.8404C6.77904 10.4569 6.4762 10.126 6.11398 9.8702C5.75175 9.61436 5.33864 9.43959 4.90278 9.35779C4.77067 9.3321 4.66425 9.39448 4.54682 9.44219C4.15049 9.611 4.0037 9.48623 3.93398 9.04953C3.77618 8.011 3.35049 6.51742 5.17801 2.91008H5.17434Z" fill="#343A40"/>
<path d="M19.2516 19.4863C18.8699 19.0312 18.4956 18.6423 17.8607 18.7267C17.837 18.7308 17.8127 18.7301 17.7893 18.7245C17.7659 18.7189 17.7439 18.7085 17.7246 18.6941C17.7054 18.6796 17.6893 18.6614 17.6773 18.6405C17.6654 18.6196 17.6579 18.5965 17.6552 18.5725C17.6369 18.4698 17.6956 18.4001 17.7727 18.334C18.0589 18.0845 18.58 18.0845 19.0424 18.345C19.4461 18.5652 19.7286 19.0679 19.6626 19.4239C19.6002 19.7395 19.4497 19.6698 19.2516 19.4863Z" fill="#343A40"/>
<path d="M17.3359 15.3028C17.5341 14.9835 18.1653 14.8551 18.5139 15.0349C18.7561 15.1597 18.991 15.3138 19.2479 15.0973C19.4864 14.8918 19.4167 14.6496 19.3029 14.411C19.2442 14.2936 19.2736 14.2019 19.3836 14.1358C19.4937 14.0661 19.5855 14.0954 19.6846 14.1652C19.8081 14.251 19.9025 14.3726 19.955 14.5137C20.0074 14.6547 20.0155 14.8084 19.9781 14.9542C19.9194 15.2221 19.8387 15.5413 19.5121 15.6514C19.3653 15.7028 19.1891 15.7799 19.0607 15.7395C18.4956 15.567 17.8203 15.8643 17.3359 15.2991V15.3028Z" fill="#343A40"/>
<path d="M21.336 13.4495C21.8131 13.4605 22.2681 13.4898 22.7158 13.5412C22.8259 13.5559 22.8993 13.6623 22.8993 13.7871C22.8993 13.9082 22.8369 13.9926 22.7268 14.044C22.3158 14.2201 21.9195 14.3449 21.4902 14.0513C21.2516 13.8862 21.1599 13.732 21.336 13.4495ZM15.4718 13.2476C15.7287 13.2476 15.758 13.3871 15.7287 13.5596C15.6553 13.9339 14.9947 14.3816 14.6131 14.3119C14.3966 14.2752 14.2278 14.1651 14.2204 13.9265C14.2131 13.6807 14.3966 13.6256 14.5984 13.6183C14.9287 13.6073 15.1782 13.4274 15.4718 13.2513V13.2476ZM14.2791 11.7651C14.4626 11.3247 14.6094 10.6862 15.1635 10.9394C15.9232 11.2843 15.6736 12.066 15.5195 12.6788C15.4608 12.91 14.9874 13.2623 14.848 13.2036C14.2498 12.9541 14.1434 12.4073 14.2791 11.7651ZM22.6057 13.1155C22.2902 13.3908 21.9819 13.3944 21.7911 13.0605C21.4608 12.4733 21.4755 11.8568 21.9122 11.3284C22.0039 11.2183 22.4186 11.1963 22.5103 11.2917C23.0241 11.8421 23.0461 12.4586 22.6057 13.1155Z" fill="#343A40"/>
<path d="M16.1504 9.68063C15.8312 9.23659 15.2257 9.09347 14.7266 9.22191C14.2862 9.33934 13.9302 9.62558 13.4936 9.75035C13.3468 9.79072 13.2183 9.84944 13.1376 9.67329C13.0679 9.53017 13.0825 9.40173 13.2183 9.29531C13.9082 8.77054 15.1853 8.30815 16.1064 8.82191C16.3305 8.95968 16.5191 9.14825 16.6569 9.37237C16.778 9.54485 16.822 9.79806 16.6569 9.9265C16.4403 10.0953 16.2899 9.88246 16.1504 9.68063ZM22.9725 9.90081C22.6165 9.66228 22.2789 9.63292 21.9449 9.87145C21.8275 9.95586 21.6991 10.0476 21.578 9.90081C21.4569 9.75035 21.4899 9.58522 21.6257 9.43843C21.8312 9.21457 22.1101 9.17788 22.389 9.14485C22.7132 9.11405 23.0365 9.21238 23.2886 9.4185C23.5408 9.62463 23.7015 9.92189 23.7358 10.2458C23.7431 10.4036 23.7358 10.5797 23.5449 10.6237C23.3725 10.6604 23.2403 10.5614 23.1706 10.4072C23.1009 10.2531 23.0532 10.088 22.9725 9.90081ZM19.4348 9.2109C19.6257 8.9687 19.7284 8.66045 19.9669 8.45494C20.0587 8.37788 20.1284 8.25311 20.2789 8.33751C20.4147 8.41457 20.4257 8.55402 20.389 8.66779C20.2752 8.98338 20.1431 9.29531 19.9963 9.5999C19.9229 9.74668 19.7394 9.80173 19.5926 9.75402C19.3504 9.68063 19.4091 9.46412 19.4312 9.24393V9.20723L19.4348 9.2109Z" fill="#343A40"/>
<path d="M19.4385 9.20356C19.3651 9.35768 19.3064 9.51548 19.2293 9.66594C19.1706 9.7797 19.0752 9.87879 18.9357 9.83475C18.7669 9.78337 18.7523 9.64025 18.7889 9.49346C18.833 9.34301 18.8807 9.19989 18.9357 9.0531C19.0091 8.88062 18.9908 8.59805 19.277 8.63842C19.5853 8.68613 19.4385 8.94668 19.4385 9.16686V9.20356Z" fill="#343A40"/>
</g>
</g>
<defs>
<clipPath id="clip0_286_3881">
<path d="M0 16C0 7.16344 7.16344 0 16 0C24.8366 0 32 7.16344 32 16C32 24.8366 24.8366 32 16 32C7.16344 32 0 24.8366 0 16Z" fill="white"/>
</clipPath>
</defs>
</svg>
