<svg width="24" height="24" viewBox="-5 -5 24 24" fill="none" xmlns="http://www.w3.org/2000/svg">
<path d="M8.3125 1.3125C8.3125 0.964403 8.17422 0.630564 7.92808 0.384422C7.68194 0.138281 7.3481 0 7 0C6.6519 0 6.31806 0.138281 6.07192 0.384422C5.82578 0.630564 5.6875 0.964403 5.6875 1.3125C5.6875 1.6606 5.82578 1.99444 6.07192 2.24058C6.31806 2.48672 6.6519 2.625 7 2.625C7.3481 2.625 7.68194 2.48672 7.92808 2.24058C8.17422 1.99444 8.3125 1.6606 8.3125 1.3125ZM8.3125 12.6875C8.3125 12.3394 8.17422 12.0056 7.92808 11.7594C7.68194 11.5133 7.3481 11.375 7 11.375C6.6519 11.375 6.31806 11.5133 6.07192 11.7594C5.82578 12.0056 5.6875 12.3394 5.6875 12.6875C5.6875 13.0356 5.82578 13.3694 6.07192 13.6156C6.31806 13.8617 6.6519 14 7 14C7.3481 14 7.68194 13.8617 7.92808 13.6156C8.17422 13.3694 8.3125 13.0356 8.3125 12.6875ZM1.3125 8.3125C1.6606 8.3125 1.99444 8.17422 2.24058 7.92808C2.48672 7.68194 2.625 7.3481 2.625 7C2.625 6.6519 2.48672 6.31806 2.24058 6.07192C1.99444 5.82578 1.6606 5.6875 1.3125 5.6875C0.964403 5.6875 0.630564 5.82578 0.384422 6.07192C0.138281 6.31806 0 6.6519 0 7C0 7.3481 0.138281 7.68194 0.384422 7.92808C0.630564 8.17422 0.964403 8.3125 1.3125 8.3125ZM14 7C14 6.6519 13.8617 6.31806 13.6156 6.07192C13.3694 5.82578 13.0356 5.6875 12.6875 5.6875C12.3394 5.6875 12.0056 5.82578 11.7594 6.07192C11.5133 6.31806 11.375 6.6519 11.375 7C11.375 7.3481 11.5133 7.68194 11.7594 7.92808C12.0056 8.17422 12.3394 8.3125 12.6875 8.3125C13.0356 8.3125 13.3694 8.17422 13.6156 7.92808C13.8617 7.68194 14 7.3481 14 7ZM3.90742 11.9492C4.02933 11.8273 4.12603 11.6826 4.19201 11.5233C4.25799 11.364 4.29194 11.1933 4.29194 11.0209C4.29194 10.8485 4.25799 10.6778 4.19201 10.5185C4.12603 10.3592 4.02933 10.2145 3.90742 10.0926C3.78551 9.97067 3.64079 9.87397 3.4815 9.80799C3.32222 9.74201 3.15151 9.70806 2.9791 9.70806C2.63091 9.70806 2.29699 9.84637 2.05078 10.0926C1.80458 10.3388 1.66626 10.6727 1.66626 11.0209C1.66626 11.3691 1.80458 11.703 2.05078 11.9492C2.29699 12.1954 2.63091 12.3337 2.9791 12.3337C3.32729 12.3337 3.66122 12.1954 3.90742 11.9492ZM3.90742 3.90469C4.03539 3.7842 4.13785 3.63923 4.20873 3.47839C4.27961 3.31755 4.31746 3.14412 4.32004 2.96837C4.32261 2.79263 4.28987 2.61816 4.22374 2.45531C4.15761 2.29246 4.05945 2.14455 3.93507 2.02036C3.8107 1.89616 3.66264 1.79822 3.4997 1.73233C3.33675 1.66644 3.16223 1.63395 2.98649 1.63679C2.81075 1.63963 2.63736 1.67773 2.47663 1.74885C2.3159 1.81996 2.17108 1.92264 2.05078 2.05078C1.80458 2.29699 1.66626 2.63091 1.66626 2.9791C1.66626 3.32729 1.80458 3.66122 2.05078 3.90742C2.29699 4.15363 2.63091 4.29194 2.9791 4.29194C3.32729 4.29194 3.66122 4.15363 3.90742 3.90742V3.90469ZM10.0926 11.9492C10.2145 12.0711 10.3592 12.1678 10.5185 12.2338C10.6778 12.2998 10.8485 12.3337 11.0209 12.3337C11.1933 12.3337 11.364 12.2998 11.5233 12.2338C11.6826 12.1678 11.8273 12.0711 11.9492 11.9492C12.0711 11.8273 12.1678 11.6826 12.2338 11.5233C12.2998 11.364 12.3337 11.1933 12.3337 11.0209C12.3337 10.8485 12.2998 10.6778 12.2338 10.5185C12.1678 10.3592 12.0711 10.2145 11.9492 10.0926C11.8273 9.97067 11.6826 9.87397 11.5233 9.80799C11.364 9.74201 11.1933 9.70806 11.0209 9.70806C10.8485 9.70806 10.6778 9.74201 10.5185 9.80799C10.3592 9.87397 10.2145 9.97067 10.0926 10.0926C9.97067 10.2145 9.87397 10.3592 9.80799 10.5185C9.74201 10.6778 9.70806 10.8485 9.70806 11.0209C9.70806 11.1933 9.74201 11.364 9.80799 11.5233C9.87397 11.6826 9.97067 11.8273 10.0926 11.9492Z" fill="#164194"/>
</svg>
