<svg width="24" height="20" viewBox="-1.5 0 24 20" fill="none" xmlns="http://www.w3.org/2000/svg">
<g clip-path="url(#clip0_286_4442)">
<path d="M3.16699 1.25C1.78809 1.25 0.666992 2.37109 0.666992 3.75V16.25C0.666992 17.6289 1.78809 18.75 3.16699 18.75H18.167C19.5459 18.75 20.667 17.6289 20.667 16.25V7.5C20.667 6.12109 19.5459 5 18.167 5H3.79199C3.44824 5 3.16699 4.71875 3.16699 4.375C3.16699 4.03125 3.44824 3.75 3.79199 3.75H18.167C18.8584 3.75 19.417 3.19141 19.417 2.5C19.417 1.80859 18.8584 1.25 18.167 1.25H3.16699ZM16.917 10.625C17.2485 10.625 17.5665 10.7567 17.8009 10.9911C18.0353 11.2255 18.167 11.5435 18.167 11.875C18.167 12.2065 18.0353 12.5245 17.8009 12.7589C17.5665 12.9933 17.2485 13.125 16.917 13.125C16.5855 13.125 16.2675 12.9933 16.0331 12.7589C15.7987 12.5245 15.667 12.2065 15.667 11.875C15.667 11.5435 15.7987 11.2255 16.0331 10.9911C16.2675 10.7567 16.5855 10.625 16.917 10.625Z" fill="#164194"/>
</g>
<defs>
<clipPath id="clip0_286_4442">
<rect width="20" height="20" fill="white" transform="translate(0.666992)"/>
</clipPath>
</defs>
</svg>
