<svg width="132" height="37" viewBox="0 0 132 37" fill="none" xmlns="http://www.w3.org/2000/svg">
<g clip-path="url(#clip0_2001_4465)">
<path d="M18.9057 11.0171V25.9874H13.7525V20.1535H5.15321V25.9874H0V11.0171H5.15321V16.6478H13.7525V11.0171H18.9057ZM39.9396 11.0171V25.9874H34.7864V14.5228H26.1872V25.9874H21.034V11.0171H39.9396ZM60.9736 11.0171V25.9874H55.8204V14.5228H47.2166V25.9874H42.0679V11.0171H60.9691H60.9736ZM91.0415 11.0171V14.8386H84.0045V25.9874H78.8558V14.8386H71.8189V11.0171H91.0415ZM101.796 26.4566C95.6015 26.4566 92.7849 24.4894 92.7849 21.074H98.2098C98.2098 22.6125 100.501 22.9735 101.796 22.9735C102.996 22.9735 105.813 22.8381 105.813 21.6154C105.813 20.2799 102.679 20.1445 99.7087 20.1445V16.6839C102.684 16.6839 105.564 16.6388 105.564 15.3259C105.564 14.1483 103.001 14.0129 101.796 14.0129C100.501 14.0129 98.2098 14.3739 98.2098 15.9124H92.7849C92.7849 12.4969 95.597 10.5298 101.796 10.5298C108.629 10.5298 110.808 12.7451 110.808 15.3259C110.808 16.6839 109.671 17.8345 108.172 18.2631L108.195 18.5338C109.739 18.985 111.075 20.2302 111.075 21.6064C111.075 24.2503 108.625 26.4476 101.792 26.4476L101.796 26.4566ZM131.973 11.0171L124.596 17.2569L131.973 25.9828H125.371L120.878 20.3972L117.949 22.8832V25.9828H112.795V11.0171H117.949V17.0765L124.506 11.0171H131.973Z" fill="#164194"/>
<path d="M18.9057 11.0171V25.9829H13.7525V20.1491H5.15321V25.9829H0V11.0171H5.15321V16.6434H13.7525V11.0171H18.9057Z" fill="#164194"/>
<path d="M39.9398 11.0171V25.9829H34.7866V14.5183H26.1874V25.9829H21.0342V11.0171H39.9398Z" fill="#164194"/>
<path d="M60.9734 11.0171V25.9829H55.8202V14.5183H47.2209V25.9829H42.0723V11.0171H60.9734Z" fill="#164194"/>
<path d="M91.0415 11.0171V14.8386H84.0045V25.9829H78.8558V14.8386H71.8188V11.0171H91.0415Z" fill="#164194"/>
<path d="M101.796 26.4566C95.6013 26.4566 92.7847 24.4894 92.7847 21.074H98.2096C98.2096 22.6125 100.501 22.9735 101.796 22.9735C102.996 22.9735 105.813 22.8381 105.813 21.6154C105.813 20.2799 102.679 20.1445 99.7084 20.1445V16.6839C102.684 16.6839 105.564 16.6388 105.564 15.3259C105.564 14.1483 103.001 14.0129 101.796 14.0129C100.501 14.0129 98.2096 14.3739 98.2096 15.9124H92.7847C92.7847 12.4969 95.5967 10.5298 101.796 10.5298C108.629 10.5298 110.807 12.7451 110.807 15.3259C110.807 16.6839 109.671 17.8345 108.172 18.2631H108.194V18.5338C109.739 18.985 111.074 20.2302 111.074 21.6064C111.074 24.2503 108.625 26.4476 101.791 26.4476L101.796 26.4566Z" fill="#164194"/>
<path d="M131.973 11.0171L124.601 17.257L131.973 25.9829H125.37L120.878 20.3972L117.948 22.8878V25.9829H112.8V11.0171H117.948V17.0765L124.51 11.0171H131.973Z" fill="#164194"/>
<path d="M132 36.5001H0V32.9944H132V36.5001Z" fill="#164194"/>
<path d="M132 4.0057H0V0.5H132V4.0057Z" fill="#164194"/>
</g>
<defs>
<clipPath id="clip0_2001_4465">
<rect width="132" height="36" fill="white" transform="translate(0 0.5)"/>
</clipPath>
</defs>
</svg>
